<svg width="387" height="379" viewBox="0 0 387 379" fill="none" xmlns="http://www.w3.org/2000/svg">
<g clip-path="url(#clip0_64_1857)">
<path d="M156.011 85.2664V6.15784C156.011 5.34094 155.349 4.67871 154.533 4.67871L98.5129 4.67871C97.6968 4.67871 97.0352 5.34094 97.0352 6.15784V85.2664C97.0352 86.0833 97.6968 86.7455 98.5129 86.7455H154.533C155.349 86.7455 156.011 86.0833 156.011 85.2664Z" fill="#F0F3F8"/>
<path d="M481.177 106.595H384.889C384.236 106.595 383.609 106.335 383.148 105.873C382.686 105.411 382.426 104.784 382.426 104.13V21.5306C382.426 20.8768 382.167 20.2498 381.705 19.7875C381.243 19.3252 380.617 19.0654 379.963 19.0654H182.442C181.789 19.0654 181.163 19.3252 180.701 19.7875C180.239 20.2498 179.979 20.8768 179.979 21.5306V104.13C179.979 104.784 179.72 105.411 179.258 105.873C178.796 106.335 178.17 106.595 177.517 106.595H81.2534C80.6002 106.595 79.9737 106.855 79.5119 107.317C79.05 107.779 78.7905 108.407 78.7905 109.06V279.189C78.7905 279.843 79.05 280.47 79.5119 280.932C79.9737 281.395 80.6002 281.655 81.2534 281.655H177.59C178.244 281.655 178.87 281.914 179.332 282.377C179.794 282.839 180.053 283.466 180.053 284.12V366.719C180.053 367.373 180.313 368 180.775 368.462C181.237 368.924 181.863 369.184 182.516 369.184L378.587 368.109C379.24 368.109 379.61 367.087 380.072 366.624C380.534 366.162 381.556 366.783 381.556 366.129L382.5 284.12C382.5 283.466 382.76 282.839 383.221 282.377C383.683 281.914 384.31 281.655 384.963 281.655H481.197C481.85 281.655 482.476 281.395 482.938 280.932C483.4 280.47 483.659 279.843 483.659 279.189V109.06C483.659 108.735 483.595 108.413 483.47 108.112C483.345 107.812 483.162 107.539 482.931 107.31C482.7 107.081 482.427 106.9 482.125 106.777C481.824 106.654 481.502 106.593 481.177 106.595Z" fill="#F0F3F8"/>
<path d="M86.7894 304.571C86.1983 304.571 85.5038 303.905 83.7355 298.758C80.1693 288.404 78.3911 283.203 79.7654 277.064C80.3318 274.54 81.4647 272.134 83.7355 267.282C85.5777 263.338 86.4249 262.229 87.7056 259.024C89.7252 253.985 89.4345 252.279 90.4591 249.548C94.0549 239.933 107.335 235.249 108.482 236.704C108.975 237.315 107.074 238.77 104.202 244.04C102.415 247.239 100.981 250.623 99.9263 254.133C97.8575 261.499 100.37 262.312 98.3993 270.034C97.4142 273.845 96.7345 273.978 94.7346 280.733C93.7495 284.056 93.6953 284.785 92.5969 288.991C89.9616 298.995 88.5036 304.571 86.7894 304.571ZM75.7805 291.727C74.6968 292.59 71.899 288.947 62.3382 283.168C55.8313 279.224 47.6891 275.215 47.0685 274.91C40.7242 271.794 39.212 271.429 36.9905 269.102C34.1779 266.143 34.8576 264.911 30.8777 259.315C27.7991 254.986 26.8534 254.971 24.4742 251.061C22.435 247.718 20.0411 242.709 21.1149 241.886C21.6075 241.501 22.7108 242.157 24.7796 243.414C27.8779 245.303 28.6315 246.397 30.5821 247.699C34.0301 249.981 34.7443 248.616 38.2219 250.756C39.6208 251.618 41.1773 253.265 44.3298 256.564C47.4822 259.862 47.5315 260.227 49.2161 261.76C51.6346 263.959 53.5507 265.044 55.6195 266.35C59.4593 268.739 63.1265 271.395 66.594 274.298C73.8151 280.649 77.3715 290.47 75.7805 291.727Z" fill="#A8B9DF"/>
<path d="M23.3316 245.051C26.9865 248.635 30.602 252.205 34.3406 255.641C35.2666 256.504 36.2124 257.352 37.1532 258.2C38.094 259.048 39.0397 259.896 39.9953 260.725L45.7485 265.694C49.5425 269.082 53.5256 272.25 57.6786 275.185C59.777 276.635 61.9394 277.981 64.082 279.371C66.2754 280.732 68.3767 282.236 70.3722 283.873C72.3756 285.569 74.149 287.52 75.6476 289.676C77.1462 291.838 78.4141 294.152 79.4306 296.579C81.4994 301.41 82.6569 306.518 83.5238 311.572C83.9524 314.106 84.3218 316.636 84.6617 319.17C84.8291 320.432 85.0015 321.709 85.1542 322.986C85.3069 324.263 85.4153 325.54 85.5286 326.822C85.9627 331.938 86.0302 337.079 85.7306 342.205H85.4843C84.9671 337.116 84.3908 332.063 83.6026 327.044C83.2086 324.534 82.7751 322.049 82.3072 319.54L80.9378 312.026C80.0069 307.046 79.0759 302.091 77.278 297.451C76.383 295.123 75.2801 292.881 73.9827 290.751C72.712 288.604 71.189 286.618 69.4462 284.834C67.6601 283.069 65.7162 281.472 63.6387 280.062C61.5552 278.607 59.4075 277.227 57.2353 275.846C52.9401 273.09 48.5463 270.423 44.458 267.287C42.4138 265.729 40.4337 264.092 38.5471 262.357C37.5965 261.494 36.6557 260.616 35.7296 259.734C34.8036 258.851 33.9022 257.924 33.0057 257.007C29.4211 253.338 26.1274 249.395 23.1543 245.213L23.3316 245.051Z" fill="#899FCA"/>
<path d="M69.057 301.17C68.7368 302.003 65.6681 300.484 60.9394 301.949C57.4914 303.018 57.2451 304.414 52.6149 306.711C49.2802 308.368 46.9553 309.522 43.9161 309.576C40.0347 309.645 39.0594 307.84 33.252 306.322C30.2819 305.566 27.2332 305.164 24.169 305.124C14.5343 304.788 9.48048 307.924 8.584 306.465C7.59886 304.872 12.4408 299.266 18.3566 295.416C30.799 287.315 44.5368 289.253 46.5465 289.568C59.5651 291.6 69.6579 299.587 69.057 301.17Z" fill="#C4CFE6"/>
<path d="M11.5786 304C13.052 302.606 14.7423 301.462 16.5831 300.612C17.0462 300.4 17.5141 300.208 17.982 300.001C18.45 299.794 18.9426 299.661 19.4253 299.508C19.908 299.355 20.4104 299.227 20.903 299.089C21.3956 298.951 21.8881 298.882 22.3807 298.778C24.4066 298.414 26.4707 298.309 28.5231 298.468C29.0363 298.496 29.5477 298.552 30.055 298.635L30.8184 298.744L31.1977 298.803L31.5475 298.857C32.4636 299.025 33.4143 299.138 34.365 299.227C38.2706 299.56 42.1973 299.56 46.1029 299.227C50.0435 298.887 53.9348 298.241 57.9246 297.822C59.9452 297.582 61.9845 297.542 64.0128 297.703C65.0907 297.809 66.1495 298.059 67.1604 298.448C68.2828 298.866 69.2657 299.59 69.9976 300.538C71.2817 302.138 72.4084 303.859 73.3618 305.676C74.2927 307.546 74.956 309.538 75.3321 311.592L75.5735 313.111C75.6621 313.604 75.6917 314.122 75.7459 314.63C75.8641 315.616 75.8986 316.646 75.9478 317.652C75.9971 318.658 75.9774 319.659 75.9971 320.659L75.9232 323.652C75.7565 327.628 75.3866 331.592 74.8149 335.53H74.5686C74.3076 331.585 74.1992 327.606 73.9825 323.697C73.8408 319.817 73.4293 315.952 72.751 312.13C72.392 310.298 71.8252 308.513 71.0615 306.81C70.2274 305.096 69.2468 303.458 68.1307 301.914C67.318 300.667 65.5496 300.036 63.7419 299.671C61.8444 299.348 59.9233 299.183 57.9985 299.178C54.0549 299.191 50.1168 299.473 46.2113 300.021L40.3004 300.834C38.3086 301.124 36.2989 301.272 34.2862 301.278C33.7936 301.278 33.2665 301.278 32.7493 301.214C32.4932 301.214 32.2568 301.179 31.9809 301.15L31.2076 301.041L29.7643 300.839C29.2718 300.785 28.8285 300.667 28.3556 300.652L26.937 300.538C26.4444 300.538 25.9913 300.538 25.5184 300.538C25.2819 300.538 25.0258 300.538 24.8091 300.538L24.0949 300.578C23.6204 300.589 23.1469 300.626 22.6762 300.686C18.8234 301.089 15.0972 302.293 11.7362 304.221L11.5786 304Z" fill="#A4B5DD"/>
<path d="M76.0861 251.061C74.4557 251.204 72.3475 245.248 71.5052 240.357C70.5201 234.628 71.7417 233.129 71.5052 223.845C71.4399 220.161 71.1322 216.485 70.5841 212.841C69.5251 205.983 68.2493 204.183 67.2248 199.386C64.7619 187.829 67.54 176.504 69.0571 176.454C69.8157 176.43 70.0127 179.191 71.8106 183.791C73.5248 188.189 74.9828 189.328 79.4455 196.61C82.6028 201.772 84.1791 204.355 84.6372 205.78C86.3415 211.066 85.5287 215.641 84.3318 221.987C82.9575 229.264 81.7507 229.353 79.4455 238.804C77.4309 247.043 77.3865 250.948 76.0861 251.061Z" fill="#C4CFE6"/>
<path d="M69.1799 181.927C71.3127 188.336 73.3569 194.79 75.7458 201.067C76.0365 201.851 76.3468 202.63 76.662 203.399L76.8985 203.99L77.1398 204.636C77.2876 205.07 77.4157 205.509 77.5191 205.953C77.8865 207.69 78.0518 209.463 78.0117 211.238C77.9794 212.961 77.8594 214.68 77.6521 216.39C77.4748 218.091 77.2088 219.768 76.9724 221.439C76.4798 224.777 75.9429 228.095 75.6227 231.438C75.2755 234.778 75.2261 238.142 75.4749 241.491C75.6075 243.164 75.8344 244.828 76.1547 246.476C76.3222 247.294 76.465 248.137 76.6177 248.976L76.8443 250.233L76.9625 250.859L77.0413 251.495C77.511 254.867 77.7988 258.263 77.9033 261.666C77.9723 265.063 77.992 268.47 77.8294 271.863C77.6669 275.255 77.4305 278.637 77.2334 281.995C77.0364 285.352 76.8394 288.725 76.8147 292.062C76.7803 293.734 76.8147 295.39 76.8689 297.047L77.0413 299.512C77.0906 300.336 77.2531 301.134 77.3369 301.948C78.322 308.555 79.7554 315.181 80.8538 321.867C81.4104 325.215 81.8931 328.587 82.169 331.984C82.3168 333.68 82.3857 335.381 82.4202 337.082C82.4202 337.93 82.4202 338.783 82.4202 339.631C82.4202 340.479 82.3463 341.327 82.3118 342.175H82.0655C81.307 328.636 76.9477 315.832 74.7312 302.342C74.2456 298.914 74.0807 295.448 74.2386 291.988C74.2681 290.278 74.3962 288.582 74.4898 286.876C74.5834 285.17 74.7509 283.488 74.9085 281.802L75.8394 271.734C76.1498 268.377 76.396 265.024 76.534 261.661L76.5635 259.147C76.5635 258.723 76.5635 258.304 76.5635 257.885L76.5241 256.628C76.4896 255.789 76.4896 254.946 76.4256 254.108L76.1892 251.603C76.135 250.76 75.9527 249.942 75.8247 249.109C75.6966 248.275 75.5587 247.462 75.3961 246.619C75.2336 245.776 75.1055 244.942 74.9676 244.099C74.8297 243.256 74.7312 242.413 74.6573 241.565C73.9283 234.796 74.1943 227.913 74.9134 221.183C75.2533 217.815 75.6966 214.477 75.8099 211.199C75.8794 209.592 75.7653 207.982 75.47 206.401C75.3813 206.022 75.2976 205.642 75.1843 205.272L75.007 204.725L74.7903 204.128C74.4947 203.323 74.2123 202.518 73.9431 201.713C73.3864 200.1 72.9037 198.468 72.4309 196.836C71.958 195.204 71.5196 193.567 71.1058 191.906C70.2783 188.617 69.5345 185.309 68.9336 181.971L69.1799 181.927Z" fill="#A4B5DD"/>
<path d="M104.744 301.475C104.384 299.251 110.477 295.45 116.354 295.065C116.984 295.026 117.117 295.065 125.22 295.982C131.86 296.747 132.608 296.821 133.47 296.9C141.613 297.644 140.682 296.9 143.243 297.511C148.336 298.763 148.282 300.854 155.464 303.324C158.217 304.271 159.705 304.473 159.739 305.158C159.813 306.435 154.814 307.672 148.745 309.132C141.273 310.936 137.539 311.839 134.692 311.597C129.274 311.104 129.052 308.989 120.944 306.095C110.832 302.451 105.084 303.561 104.744 301.475Z" fill="#C4CFE6"/>
<path d="M102.389 334.223C101.649 332.455 101.014 330.644 100.488 328.8C100.217 327.883 99.9611 326.956 99.7394 326.019C99.5178 325.082 99.2961 324.15 99.1188 323.209C98.9415 322.267 98.7641 321.315 98.6262 320.359C98.4883 319.402 98.375 318.446 98.2814 317.48C98.081 315.54 98.0629 313.585 98.2272 311.642C98.3845 309.655 98.8464 307.705 99.5966 305.859C99.9856 304.921 100.515 304.048 101.168 303.27C101.499 302.879 101.871 302.523 102.276 302.21C102.689 301.909 103.133 301.654 103.601 301.451C104.066 301.265 104.545 301.12 105.035 301.017C105.498 300.908 105.961 300.8 106.419 300.682L109.212 300.026C111.077 299.575 112.964 299.219 114.866 298.961C116.828 298.703 118.815 298.703 120.777 298.961C122.717 299.255 124.625 299.73 126.476 300.381L127.846 300.874C128.304 301.037 128.722 301.16 129.161 301.308C129.599 301.456 130.038 301.574 130.481 301.697C130.924 301.82 131.363 301.954 131.821 302.052C133.618 302.501 135.451 302.861 137.288 303.216C140.963 303.906 144.677 304.439 148.425 304.828C150.297 304.991 152.174 305.163 154.05 305.208C155.934 305.292 157.82 305.236 159.695 305.04L159.754 305.277C157.922 305.891 156.024 306.291 154.1 306.47L152.661 306.613L151.218 306.697C150.258 306.751 149.292 306.756 148.332 306.766C146.406 306.766 144.48 306.682 142.564 306.509C140.647 306.337 138.731 306.11 136.825 305.809C134.914 305.488 133.022 305.065 131.156 304.542C130.688 304.419 130.225 304.261 129.757 304.113C129.289 303.965 128.826 303.827 128.363 303.645C127.9 303.462 127.422 303.29 126.988 303.117L125.703 302.58C122.23 301.214 118.718 300.262 114.985 300.307C113.106 300.326 111.232 300.507 109.384 300.849C108.448 300.987 107.527 301.214 106.601 301.411C106.143 301.515 105.68 301.633 105.222 301.747C104.779 301.844 104.348 301.988 103.936 302.175C103.147 302.574 102.47 303.164 101.966 303.891C101.475 304.636 101.107 305.455 100.877 306.317C100.449 308.092 100.247 309.915 100.276 311.74C100.276 313.584 100.355 315.438 100.459 317.302C100.518 318.234 100.601 319.166 100.7 320.098C100.798 321.029 100.887 321.966 101.005 322.898C101.458 326.64 102.064 330.377 102.631 334.154L102.389 334.223Z" fill="#A4B5DD"/>
<path d="M97.7737 292.033C96.6752 291.456 99.0002 283.888 102.66 277.049C105.098 272.499 107.502 268.002 112.438 263.9C118.536 258.831 125.072 257.209 130.17 255.952C138.362 253.926 139.45 255.518 145.139 253.201C153.405 249.829 156.518 244.247 157.946 245.248C159.375 246.249 157.715 253.452 153.06 257.786C150.336 260.321 146.745 261.775 144.509 262.677C140.164 264.437 138.391 264.196 136.258 266.35C134.933 267.687 135.229 268.18 132.899 271.853C131.003 274.845 130.008 276.418 128.623 277.661C126.195 279.845 124.417 279.372 117.319 281.023C111.408 282.404 108.453 283.094 105.404 285.002C100.207 288.266 98.611 292.472 97.7737 292.033Z" fill="#DDE6F4"/>
<path d="M154.41 251.057C154.331 251.845 154.03 252.596 153.543 253.221C153.302 253.517 153.085 253.847 152.819 254.123C152.553 254.399 152.302 254.676 152.016 254.971C150.886 255.991 149.66 256.899 148.356 257.683C147.069 258.476 145.742 259.203 144.381 259.862C143.697 260.178 143.012 260.493 142.322 260.794C141.633 261.095 140.943 261.386 140.244 261.657L138.145 262.475C137.441 262.737 136.727 262.969 136.017 263.205C134.599 263.698 133.18 264.191 131.737 264.551C128.87 265.424 125.939 266.03 123.023 266.647H123.102C122.245 266.903 121.339 267.243 120.472 267.593C119.605 267.943 118.723 268.338 117.871 268.752C117.019 269.166 116.182 269.62 115.349 270.093C114.517 270.566 113.724 271.079 112.935 271.621C109.781 273.772 106.997 276.423 104.695 279.471C103.57 280.996 102.566 282.607 101.69 284.288C100.842 285.959 100.132 287.697 99.5671 289.484C99.4292 289.933 99.2715 290.372 99.1582 290.825L98.8085 292.186C98.5967 293.108 98.4145 294.04 98.2125 294.967C98.1239 295.43 98.0056 295.889 97.9268 296.357L97.6953 297.767C97.5475 298.709 97.3702 299.641 97.2421 300.583C97.0156 302.481 96.7249 304.359 96.5624 306.267L96.2669 309.117L96.0206 311.977L95.8974 313.402C95.8629 313.895 95.8334 314.358 95.7891 314.837L95.5575 317.696L95.1635 323.411C94.6956 331.067 94.3655 338.749 94.0207 346.455H93.7744C92.9947 338.767 92.6772 331.038 92.8238 323.312C92.8926 315.557 93.5761 307.82 94.868 300.173C95.0305 299.187 95.2423 298.26 95.4295 297.304L95.7201 295.874C95.8137 295.381 95.9516 294.928 96.0698 294.454C96.3161 293.503 96.5624 292.561 96.8087 291.614L97.2717 290.204C97.4244 289.711 97.6264 289.277 97.7988 288.814C99.2867 285.169 101.356 281.791 103.926 278.81C106.454 275.852 109.315 273.196 112.453 270.897C113.226 270.305 114.024 269.748 114.827 269.206C115.63 268.663 116.448 268.131 117.29 267.628C118.132 267.125 118.974 266.642 119.841 266.183C120.708 265.725 121.58 265.306 122.536 264.911H122.615C124.033 264.492 125.447 264.053 126.875 263.664C127.585 263.471 128.294 263.264 128.998 263.047L131.121 262.426L133.249 261.815L135.357 261.159C136.057 260.937 136.766 260.735 137.461 260.493L139.549 259.783C140.953 259.34 142.293 258.748 143.677 258.255C145.022 257.683 146.376 257.121 147.677 256.46C147.997 256.293 148.337 256.15 148.662 255.967L149.607 255.425C150.258 255.09 150.829 254.656 151.445 254.261L152.292 253.586C152.583 253.369 152.814 253.093 153.08 252.856C153.589 252.368 153.966 251.759 154.178 251.086L154.41 251.057Z" fill="#A4B5DD"/>
<path d="M102.108 242.246C100.456 243.583 99.0447 245.194 97.9363 247.008C97.6408 247.442 97.3945 247.911 97.1334 248.369C96.8724 248.828 96.6409 249.296 96.4044 249.764C96.168 250.233 95.966 250.721 95.7641 251.204L95.4538 251.929L95.1829 252.669C94.465 254.648 93.9083 256.683 93.518 258.753C93.1485 260.799 92.8136 263.003 92.3456 265.123C91.8777 267.243 91.3162 269.368 90.7054 271.463C90.0946 273.559 89.469 275.634 88.9075 277.725C88.3548 279.807 87.9401 281.924 87.6662 284.06C87.5973 284.593 87.5332 285.13 87.484 285.663C87.4259 286.197 87.3947 286.733 87.3904 287.27C87.3904 287.803 87.346 288.325 87.3904 288.863L87.4593 290.47C87.5677 292.62 87.7894 294.769 87.9815 296.919L88.5725 303.373C88.9814 307.672 89.4937 311.972 89.8877 316.276C90.2818 320.58 90.666 324.894 91.0206 329.208L91.5625 335.682C91.6758 336.752 91.7349 337.841 91.8531 338.911L92.0107 340.529L92.2127 342.136L91.9762 342.2L91.4836 340.637L91.065 339.054C90.7891 337.994 90.5724 336.929 90.3261 335.864C89.8729 333.734 89.4674 331.598 89.1094 329.455C88.7351 327.31 88.4051 325.16 88.1243 323.011C87.8435 320.861 87.5431 318.702 87.3017 316.547C86.8091 312.228 86.5136 307.889 86.2821 303.545C86.002 299.193 85.956 294.828 86.1442 290.47L86.2328 288.828C86.2673 288.286 86.3461 287.729 86.3954 287.176C86.4299 286.905 86.4496 286.629 86.489 286.358L86.622 285.549C86.7008 285.007 86.7894 284.47 86.888 283.932C87.2525 281.783 87.7155 279.653 88.1834 277.523L88.8533 274.338C89.0602 273.278 89.2572 272.213 89.4296 271.148C89.7793 269.013 90.07 266.873 90.3754 264.738C90.6808 262.603 90.9467 260.498 91.4344 258.294C91.528 257.747 91.6856 257.209 91.8285 256.672C91.9713 256.135 92.0994 255.592 92.2718 255.06L92.8284 253.482C93.0057 252.954 93.2569 252.447 93.4638 251.934L93.7987 251.165L94.1829 250.42C94.444 249.927 94.6755 249.434 95.0006 248.941C95.5666 247.976 96.2107 247.059 96.9266 246.2C98.2987 244.434 100.047 242.997 102.044 241.994L102.108 242.246Z" fill="#899FCA"/>
<path d="M69.5497 283.78C72.0766 282.73 71.0274 274.545 70.4658 270.019C69.6334 263.491 68.4069 262.495 66.7962 254.119C66.1411 250.702 65.7519 247.256 64.9638 240.358C63.8309 230.398 63.9097 228.688 63.4369 225.074C61.4666 209.853 54.1962 195.452 51.5265 196.028C50.5413 196.245 50.2458 198.617 49.6892 203.365C48.9897 209.405 51.0536 211.367 49.9946 215.903C49.4084 218.437 48.8912 217.688 46.9406 222.313C44.7093 227.623 43.0296 231.626 44.1921 235.768C44.9014 238.282 45.9407 238.297 46.9406 241.881C47.6696 244.485 47.4628 245.698 47.8568 248.291C48.1671 250.322 48.6794 252.137 50.6054 256.85C53.6889 264.384 55.2257 268.151 57.329 271.528C59.91 275.724 66.5401 285.018 69.5497 283.78Z" fill="#DDE6F4"/>
<path d="M51.62 195.969C52.4007 197.394 53.0709 198.878 53.6247 200.406C54.1907 201.934 54.6693 203.493 55.0581 205.075C55.4624 206.658 55.783 208.261 56.0186 209.877C56.1467 210.686 56.2255 211.5 56.329 212.308C56.4324 213.117 56.4521 213.94 56.5161 214.773C56.5802 215.607 56.5605 216.41 56.5851 217.239C56.6097 218.067 56.5851 218.875 56.5457 219.704L56.3339 224.521C56.2797 226.118 56.2304 227.711 56.2058 229.298C56.1812 230.886 56.2058 232.474 56.2846 234.051C56.4312 237.237 56.7436 240.414 57.2205 243.567C57.6737 246.742 58.2451 249.912 58.8657 253.073C59.2006 254.641 59.4765 256.238 59.9149 257.767C60.1267 258.541 60.3089 259.315 60.5454 260.079C60.7818 260.843 61.0773 261.588 61.3483 262.337C61.4911 262.712 61.6093 263.091 61.7669 263.461L62.2595 264.566L63.2447 266.76C63.9589 268.199 64.6386 269.644 65.3726 271.079L67.5645 275.388C67.9241 276.113 68.3034 276.828 68.6482 277.557L69.6727 279.761C70.3919 281.24 70.9632 282.719 71.5937 284.243L72.0568 285.372C72.2045 285.747 72.3326 286.136 72.4705 286.516L73.2832 288.818C73.8596 290.342 74.293 291.91 74.761 293.473L75.4506 295.815C75.6525 296.604 75.8299 297.397 76.022 298.186L76.5786 300.563C76.7559 301.356 76.9578 302.145 77.0711 302.949L77.874 307.727L78.0661 308.93C78.1302 309.329 78.1597 309.738 78.209 310.138L78.4799 312.558C78.6523 314.171 78.8592 315.783 78.9725 317.395C79.135 320.634 79.3911 323.864 79.4256 327.098V331.95C79.4256 333.567 79.465 335.179 79.3567 336.796C79.2483 338.413 79.1941 340.021 79.1054 341.633C79.0168 343.245 78.9281 344.853 78.8099 346.465H78.5636C78.4602 344.858 78.3863 343.245 78.3075 341.638C78.2287 340.031 78.1499 338.423 78.0957 336.816C77.943 333.606 77.6573 330.406 77.48 327.202C77.4159 325.599 77.1893 324.012 77.0465 322.414L76.5933 317.637C76.5244 316.838 76.3717 316.049 76.2781 315.26L75.9628 312.884L75.6476 310.507C75.5934 310.113 75.554 309.713 75.485 309.319L75.2683 308.146L74.4753 303.422C74.3571 302.628 74.16 301.859 73.9827 301.08L73.4901 298.748C73.3227 297.969 73.165 297.185 72.9976 296.411L72.3769 294.109C71.9632 292.57 71.5839 291.022 71.0618 289.519C69.1752 283.434 66.6828 277.552 64.1658 271.621C63.5156 270.142 62.9146 268.663 62.2891 267.149L61.432 264.876L60.9936 263.742C60.8508 263.368 60.7375 262.973 60.6094 262.589C60.3631 261.814 60.1168 261.045 59.8558 260.276C59.5947 259.507 59.4469 258.708 59.2401 257.924C58.8164 256.352 58.4864 254.779 58.1318 253.206L55.93 243.784C55.1662 240.617 54.6182 237.401 54.2897 234.16C54.0157 230.909 53.9877 227.642 54.206 224.388L54.5064 219.561C54.5409 218.772 54.6148 217.983 54.6345 217.194C54.6542 216.405 54.6641 215.612 54.6345 214.818L54.5606 212.446C54.5064 211.657 54.4769 210.864 54.403 210.075C54.3291 209.286 54.2602 208.492 54.1419 207.708C54.0237 206.924 53.94 206.13 53.8021 205.346C53.541 203.774 53.2208 202.211 52.8169 200.662C52.4373 199.108 51.9686 197.577 51.4131 196.077L51.62 195.969Z" fill="#A4B5DD"/>
<path d="M81.7207 265.739C79.9918 265.32 80.0362 258.304 80.8046 253.507C81.5211 249.215 82.9672 245.077 85.0801 241.274C87.0504 237.769 88.0355 237.493 89.661 233.938C91.5032 229.959 90.9466 228.943 92.4145 225.374C94.0153 221.479 95.0743 221.74 99.4385 215.286C102.704 210.454 104.443 207.891 105.546 203.946C106.96 198.957 106.3 195.486 107.073 195.387C107.935 195.274 109.866 199.391 109.827 203.946C109.827 206.451 109.201 207.353 106.768 214.65C105.059 219.778 104.202 222.381 104.019 224.126C103.571 228.455 104.65 229.451 104.325 234.219C104.207 235.979 103.97 239.495 102.492 242.778C99.6897 249.055 95.163 248.389 89.0502 255.341C83.9816 261.134 83.1985 266.094 81.7207 265.739Z" fill="#DDE6F4"/>
<path d="M107.808 201.186C108.017 202.712 107.945 204.265 107.596 205.766C107.293 207.258 106.9 208.73 106.419 210.174C105.961 211.623 105.434 213.033 104.838 214.439L103.946 216.514C103.641 217.204 103.301 217.88 102.961 218.565C102.325 219.941 101.616 221.267 100.926 222.613C100.237 223.959 99.4488 225.251 98.7247 226.557C98.0006 227.864 97.1829 229.146 96.3998 230.433L94.0847 234.234C91.0014 239.334 88.4748 244.751 86.5483 250.391C85.6065 253.229 84.814 256.114 84.1741 259.034L83.6816 261.223L83.2974 263.432C83.0264 264.911 82.8491 266.39 82.6176 267.869C82.2433 270.828 81.9625 273.786 81.7408 276.774C81.6423 278.253 81.5339 279.732 81.4748 281.211C81.4404 281.97 81.4108 282.656 81.4453 283.356C81.4764 284.06 81.5537 284.762 81.6768 285.456C82.6619 291.397 83.4845 297.353 84.1052 303.334C84.7258 309.315 85.1346 315.33 85.2479 321.36C85.3612 327.389 85.2036 333.449 84.1938 339.395H83.9525C84.0313 336.392 84.0411 333.41 83.8786 330.422C83.854 329.677 83.8244 328.943 83.7653 328.188L83.6372 325.95C83.5436 324.471 83.4057 322.992 83.3072 321.483C82.8146 315.527 82.1891 309.581 81.4945 303.645C80.8 297.708 80.1449 291.757 79.3765 285.826C79.2642 285.037 79.2017 284.242 79.1893 283.445C79.1824 282.661 79.2186 281.877 79.2977 281.098C79.4208 279.589 79.5735 278.085 79.7903 276.586C80.1695 273.584 80.7163 270.616 81.3024 267.657C81.8886 264.699 82.5979 261.771 83.3565 258.857C84.115 255.943 84.9179 253.049 85.7799 250.164C87.5335 244.415 89.4693 238.657 92.2917 233.258C93.0306 231.942 93.7694 230.566 94.528 229.314L96.8431 225.488C98.3553 222.919 99.8527 220.345 101.276 217.722C102.7 215.099 104.005 212.442 105.187 209.72C105.772 208.356 106.294 206.971 106.754 205.564L107.069 204.499C107.162 204.144 107.241 203.784 107.33 203.424C107.496 202.713 107.574 201.984 107.561 201.255L107.808 201.186Z" fill="#A4B5DD"/>
<path d="M114.398 238.015C123.521 231.798 124.25 231.606 126.314 229.451C131.121 224.437 130.136 222.484 134.569 217.835C140.327 211.78 148.686 208.078 150.454 209.882C151.376 210.824 149.883 212.628 146.79 221.809C144.435 228.795 144.819 229.205 143.43 231.29C141.46 234.248 138.643 236.033 133.042 239.544C127.9 242.768 126.432 242.911 123.88 245.657C122.358 247.289 122.284 247.876 119.6 251.165C117.901 253.319 116.065 255.361 114.103 257.278C110.719 260.478 107.768 265.167 101.734 264.674C100.518 264.551 103.759 245.263 114.398 238.015Z" fill="#DDE6F4"/>
<path d="M145.662 215.144C143.99 218.172 141.993 221.009 139.707 223.604C138.554 224.896 137.377 226.173 136.101 227.351C135.48 227.963 134.815 228.52 134.17 229.102C133.525 229.683 132.82 230.201 132.146 230.753L130.047 232.292L129.062 233.041C128.727 233.283 128.397 233.534 128.077 233.81L127.121 234.604C126.806 234.87 126.52 235.171 126.215 235.447C125.604 236.004 125.062 236.63 124.496 237.227C123.425 238.486 122.411 239.801 121.452 241.171C120.501 242.567 119.521 243.987 118.496 245.387C117.449 246.802 116.279 248.122 114.999 249.331C113.716 250.534 112.334 251.626 110.866 252.595C109.507 253.542 108.294 254.683 107.266 255.982C106.216 257.307 105.266 258.707 104.424 260.173C103.578 261.65 102.809 263.169 102.118 264.724C101.448 266.292 100.784 267.86 100.242 269.477C99.1231 272.697 98.1987 275.982 97.4734 279.313C96.7346 282.636 96.178 285.999 95.7002 289.361C95.2224 292.724 94.8628 296.106 94.6362 299.493C94.4096 302.88 94.3062 306.268 94.3604 309.655C94.3998 311.351 94.4392 313.042 94.5279 314.733C94.6165 316.424 94.7545 318.101 94.8727 319.821C95.3308 326.66 95.7593 333.498 96.0795 340.347C96.3996 347.195 96.641 354.073 96.7592 360.926H96.5129C95.5967 354.122 94.8185 347.313 94.119 340.495C93.4196 333.676 92.8039 326.877 92.2079 320.053C91.9369 316.646 91.7153 313.15 91.7448 309.699C91.7744 306.248 91.9419 302.797 92.2719 299.345C92.6019 295.894 93.06 292.472 93.7053 289.08C94.3505 285.688 95.183 282.33 96.1238 279.017C97.0646 275.704 98.1926 272.445 99.4142 269.225C100.628 266.001 102.053 262.86 103.68 259.823C104.498 258.287 105.415 256.804 106.423 255.386C107.439 253.929 108.655 252.623 110.034 251.505C112.681 249.458 114.979 246.993 116.836 244.208C117.797 242.833 118.679 241.373 119.664 239.949C120.643 238.487 121.721 237.093 122.89 235.777C123.511 235.141 124.102 234.481 124.772 233.899C125.102 233.603 125.412 233.288 125.757 233.011L126.791 232.173C127.132 231.894 127.487 231.632 127.855 231.389L128.944 230.64L131.032 229.215C136.538 225.258 141.401 220.476 145.45 215.035L145.662 215.144Z" fill="#A4B5DD"/>
<path d="M108.522 326.738L108.029 331.013L103.798 366.808C103.721 367.462 103.406 368.065 102.914 368.502C102.422 368.939 101.787 369.18 101.129 369.179H75.6183C74.9608 369.178 74.3265 368.936 73.8348 368.499C73.343 368.062 73.0278 367.461 72.9485 366.808L71.5742 355.167L68.21 326.733C68.1654 326.356 68.2013 325.974 68.3151 325.611C68.429 325.249 68.6183 324.915 68.8706 324.631C69.1229 324.347 69.4324 324.12 69.7787 323.965C70.125 323.81 70.5003 323.73 70.8797 323.73H105.852C106.232 323.73 106.608 323.81 106.955 323.965C107.301 324.121 107.611 324.348 107.863 324.633C108.116 324.917 108.305 325.252 108.419 325.615C108.532 325.978 108.567 326.36 108.522 326.738Z" fill="#B2C2E3"/>
<path opacity="0.47" d="M105.867 347.396C105.867 347.396 103.848 347.396 100.099 347.199C93.8602 346.865 87.94 344.335 83.3833 340.056C78.8266 335.777 75.9265 330.025 75.1946 323.814V323.735H70.8797C70.5003 323.735 70.125 323.815 69.7787 323.97C69.4324 324.125 69.1229 324.352 68.8706 324.636C68.6183 324.92 68.429 325.254 68.3151 325.616C68.2013 325.978 68.1654 326.361 68.21 326.738L71.5742 355.172L72.9485 366.812C73.0278 367.466 73.343 368.067 73.8348 368.504C74.3265 368.941 74.9608 369.183 75.6183 369.184H101.114C101.772 369.185 102.407 368.944 102.899 368.507C103.392 368.069 103.706 367.467 103.783 366.812L106.079 347.387C106.009 347.395 105.938 347.398 105.867 347.396Z" fill="url(#paint0_linear_64_1857)"/>
<path opacity="0.49" d="M93.1193 323.735L76.7314 369.184H75.6182C74.9608 369.183 74.3265 368.941 73.8348 368.504C73.343 368.067 73.0278 367.466 72.9485 366.812L71.5742 355.172L82.9034 323.735H93.1193ZM108.522 326.738L108.029 331.013L94.2719 369.179H80.076L96.4639 323.73H105.852C106.232 323.73 106.608 323.81 106.955 323.965C107.301 324.121 107.611 324.348 107.863 324.633C108.116 324.917 108.305 325.252 108.419 325.615C108.532 325.978 108.567 326.36 108.522 326.738Z" fill="white"/>
<path d="M374.634 47.7412H232.281C225.48 47.7412 219.966 53.2598 219.966 60.0673V356.864C219.966 363.671 225.48 369.19 232.281 369.19H374.634C381.435 369.19 386.948 363.671 386.948 356.864V60.0673C386.948 53.2598 381.435 47.7412 374.634 47.7412Z" fill="#A4CAFF"/>
<path d="M359.699 47.7412H217.346C210.545 47.7412 205.032 53.2598 205.032 60.0673V356.864C205.032 363.671 210.545 369.19 217.346 369.19H359.699C366.5 369.19 372.013 363.671 372.013 356.864V60.0673C372.013 53.2598 366.5 47.7412 359.699 47.7412Z" fill="#4C6D99"/>
<path d="M360.315 77.6348H216.681V329.481H360.315V77.6348Z" fill="#A4CAFF"/>
<path opacity="0.47" d="M360.31 161.979C342.277 183.826 318.663 205.081 284.06 213.951C256.176 221.1 235.295 216.584 216.676 212.26V329.481H360.31V161.979Z" fill="url(#paint1_linear_64_1857)"/>
<path d="M264.022 47.7412H312.964V53.8845C312.964 55.9166 312.157 57.8654 310.722 59.3023C309.286 60.7392 307.339 61.5464 305.309 61.5464H271.681C269.651 61.5464 267.704 60.7392 266.269 59.3023C264.833 57.8654 264.027 55.9166 264.027 53.8845V47.7412H264.022Z" fill="#324E87"/>
<path d="M330.795 65.5839C333.026 65.5839 334.834 63.7738 334.834 61.541C334.834 59.3081 333.026 57.498 330.795 57.498C328.564 57.498 326.756 59.3081 326.756 61.541C326.756 63.7738 328.564 65.5839 330.795 65.5839Z" fill="#324E87"/>
<path d="M288.493 358.096C294.421 358.096 299.226 353.286 299.226 347.353C299.226 341.419 294.421 336.609 288.493 336.609C282.565 336.609 277.76 341.419 277.76 347.353C277.76 353.286 282.565 358.096 288.493 358.096Z" stroke="#A4CAFF" stroke-width="5" stroke-miterlimit="10"/>
<path d="M320.55 133.683C320.55 154.435 305.506 166.426 286.951 166.426C268.396 166.426 253.358 154.435 253.358 133.683C253.358 112.931 268.396 96.1133 286.951 96.1133C305.506 96.1133 320.55 112.921 320.55 133.683Z" fill="#3E5FAB"/>
<path d="M292.542 131.455C293.586 130.502 294.418 129.341 294.984 128.045C295.55 126.75 295.837 125.35 295.828 123.936C295.828 118.513 291.67 114.075 286.538 114.075C281.405 114.075 277.243 118.488 277.243 123.936C277.233 125.405 277.545 126.859 278.157 128.195C278.769 129.53 279.666 130.715 280.784 131.667C277.731 132.895 275.114 135.01 273.271 137.739C271.427 140.468 270.442 143.687 270.44 146.981V150.432H303.443V146.981C303.441 143.585 302.394 140.272 300.443 137.494C298.493 134.716 295.734 132.607 292.542 131.455Z" fill="#A8B9DF"/>
<path d="M281.222 248.459H232.527V280.28H281.222V248.459Z" fill="#C4CFE6"/>
<path d="M348.951 248.459H300.256V280.28H348.951V248.459Z" fill="#C4CFE6"/>
<path opacity="0.47" d="M232.192 293.681H348.956" stroke="url(#paint2_linear_64_1857)" stroke-width="7" stroke-miterlimit="10"/>
<path opacity="0.47" d="M232.192 307.081H348.956" stroke="url(#paint3_linear_64_1857)" stroke-width="7" stroke-miterlimit="10"/>
<path opacity="0.47" d="M232.192 223.343H348.956" stroke="url(#paint4_linear_64_1857)" stroke-width="7" stroke-miterlimit="10"/>
<path opacity="0.47" d="M232.192 236.744H348.956" stroke="url(#paint5_linear_64_1857)" stroke-width="7" stroke-miterlimit="10"/>
<path opacity="0.47" d="M232.192 196.541H348.956" stroke="url(#paint6_linear_64_1857)" stroke-width="7" stroke-miterlimit="10"/>
<path opacity="0.47" d="M232.192 183.141H348.956" stroke="url(#paint7_linear_64_1857)" stroke-width="7" stroke-miterlimit="10"/>
<path opacity="0.47" d="M232.192 209.942H348.956" stroke="url(#paint8_linear_64_1857)" stroke-width="7" stroke-miterlimit="10"/>
<path opacity="0.25" d="M317.437 77.6299L238.325 329.481H216.681V277.82L279.568 77.6299H317.437Z" fill="white"/>
<path opacity="0.25" d="M251.003 329.481L330.115 77.6348H360.315V142.82L301.679 329.481H251.003Z" fill="white"/>
<path d="M379.796 96.0986V130.331" stroke="#324E87" stroke-width="5" stroke-miterlimit="10"/>
<path opacity="0.47" d="M159.331 44.2998H81.5981V86.2231H159.331V44.2998Z" fill="url(#paint9_linear_64_1857)"/>
<path d="M105.256 66.5069C105.256 77.2354 113.029 83.433 122.619 83.433C132.21 83.433 139.988 77.2354 139.988 66.5069C139.988 55.7783 132.21 47.0859 122.619 47.0859C113.029 47.0859 105.256 55.7832 105.256 66.5069Z" fill="#3E5FAB"/>
<path d="M119.733 65.3621C119.194 64.8699 118.764 64.2697 118.471 63.6004C118.178 62.931 118.029 62.2076 118.034 61.4769C118.034 58.6616 120.181 56.3838 122.836 56.3838C125.491 56.3838 127.639 58.6616 127.639 61.4769C127.645 62.2359 127.484 62.9869 127.169 63.6769C126.853 64.367 126.39 64.9792 125.812 65.4705C127.389 66.1074 128.74 67.2015 129.691 68.6124C130.642 70.0233 131.151 71.6866 131.151 73.3888V75.1835H114.088V73.3888C114.089 71.6318 114.631 69.9179 115.642 68.4812C116.652 67.0445 118.081 65.9552 119.733 65.3621Z" fill="white"/>
<path d="M147.524 75.8154H132.446" stroke="#E7EBF6" stroke-width="8" stroke-miterlimit="10"/>
<path d="M139.988 83.3586V68.2715" stroke="#E7EBF6" stroke-width="8" stroke-miterlimit="10"/>
<path opacity="0.42" d="M141.382 44.2998L129.225 86.2182H107.66L119.817 44.2998H141.382Z" fill="white"/>
<path opacity="0.42" d="M154.587 44.2998L142.431 86.2182H132.628L144.785 44.2998H154.587Z" fill="white"/>
<path d="M207.928 358.519C210.368 358.519 212.346 356.539 212.346 354.096C212.346 351.654 210.368 349.674 207.928 349.674C205.487 349.674 203.509 351.654 203.509 354.096C203.509 356.539 205.487 358.519 207.928 358.519Z" fill="#30302F"/>
<path d="M208.701 363.603H211.484V362.124H208.701C208.209 362.124 207.928 361.877 207.923 361.793L206.637 342.841C206.645 342.807 206.662 342.776 206.687 342.752C206.889 342.58 207.15 342.491 207.416 342.506H212.075V341.026H207.416C207.082 341.017 206.749 341.075 206.438 341.198C206.127 341.321 205.845 341.506 205.608 341.741C205.456 341.9 205.337 342.088 205.26 342.294C205.183 342.5 205.149 342.72 205.16 342.939L206.445 361.892C206.514 362.868 207.47 363.603 208.701 363.603Z" fill="#30302F"/>
<path d="M209.666 353.589L224.645 353.215L213.627 292.763L212.08 225.788L187.589 210.316L208.248 292.151L209.666 353.589Z" fill="#EE465E"/>
<path d="M213.814 230.95H212.1C209.121 230.95 206.265 229.766 204.158 227.658C202.052 225.55 200.869 222.69 200.869 219.709V217.993C200.869 217.601 201.025 217.225 201.302 216.947C201.579 216.67 201.955 216.514 202.347 216.514H213.814C214.206 216.514 214.582 216.67 214.859 216.947C215.136 217.225 215.292 217.601 215.292 217.993V229.471C215.292 229.863 215.136 230.24 214.859 230.517C214.582 230.794 214.206 230.95 213.814 230.95Z" fill="#4E4F50"/>
<path d="M213.1 222.628H213.681C213.893 222.628 214.102 222.587 214.298 222.506C214.494 222.426 214.672 222.307 214.821 222.157C214.971 222.007 215.09 221.829 215.17 221.633C215.251 221.437 215.292 221.227 215.292 221.015V224.896C215.292 225.108 215.251 225.318 215.17 225.513C215.09 225.709 214.971 225.887 214.821 226.037C214.672 226.187 214.494 226.306 214.298 226.387C214.102 226.467 213.893 226.509 213.681 226.508H213.1C211.494 226.508 209.903 226.191 208.419 225.576C206.935 224.961 205.587 224.059 204.451 222.922C203.316 221.785 202.415 220.436 201.8 218.951C201.185 217.465 200.869 215.873 200.869 214.266V213.684C200.871 213.385 200.956 213.093 201.115 212.841C201.681 215.604 203.182 218.088 205.366 219.871C207.549 221.655 210.281 222.628 213.1 222.628Z" fill="#79797A"/>
<path d="M209.671 353.214V369.184H244.905V363.76C244.904 362.778 244.519 361.835 243.832 361.133C243.146 360.43 242.212 360.025 241.23 360.003C236.093 359.865 227.113 358.8 224.65 353.194H209.676L209.671 353.214Z" fill="#C23E56"/>
<path d="M204.707 243.024C205.022 251.031 205.628 259.009 206.332 266.971C206.662 270.955 207.091 274.929 207.475 278.908L208.78 290.825C209.69 298.766 210.719 306.693 211.869 314.604C213.006 322.493 214.248 330.421 215.809 338.27C215.499 330.258 214.893 322.281 214.184 314.318C213.474 306.356 212.666 298.403 211.721 290.465L210.243 278.568C209.701 274.623 209.209 270.64 208.613 266.685C207.47 258.792 206.238 250.888 204.707 243.024Z" fill="#4E4F50"/>
<path d="M209.76 369.184C209.835 368.049 210.35 366.988 211.194 366.226C211.999 365.493 213.061 365.108 214.149 365.156C215.202 365.195 216.195 365.651 216.912 366.423C217.612 367.171 217.991 368.164 217.967 369.189H219.114C219.147 368.187 219.565 367.237 220.282 366.536C220.989 365.857 221.935 365.482 222.916 365.492C223.896 365.502 224.834 365.897 225.527 366.591C226.211 367.282 226.592 368.217 226.587 369.189H228.064C228.071 368.461 228.29 367.751 228.695 367.147C229.1 366.543 229.673 366.071 230.343 365.789C231.014 365.507 231.752 365.428 232.466 365.562C233.181 365.696 233.841 366.036 234.364 366.541C235.082 367.239 235.501 368.188 235.532 369.189H236.684C236.663 368.165 237.042 367.173 237.738 366.423C238.457 365.653 239.45 365.197 240.502 365.156C241.589 365.113 242.649 365.497 243.457 366.226C244.296 366.992 244.809 368.051 244.89 369.184C244.927 368.593 244.844 368 244.648 367.441C244.452 366.882 244.146 366.369 243.748 365.93C243.329 365.482 242.827 365.121 242.269 364.867C241.711 364.613 241.109 364.472 240.497 364.451C239.864 364.431 239.234 364.536 238.643 364.76C238.051 364.984 237.509 365.323 237.049 365.757C236.58 366.203 236.204 366.738 235.942 367.33C235.681 367.923 235.54 368.561 235.527 369.209H236.679C236.695 368.551 236.579 367.897 236.337 367.284C236.096 366.672 235.735 366.114 235.275 365.644C234.811 365.163 234.255 364.78 233.64 364.516C233.025 364.253 232.365 364.115 231.696 364.11C231.027 364.104 230.365 364.233 229.746 364.487C229.128 364.741 228.566 365.116 228.094 365.59C227.132 366.549 226.589 367.85 226.582 369.209H228.059C228.052 367.849 227.506 366.548 226.542 365.59C226.069 365.118 225.508 364.745 224.89 364.492C224.272 364.239 223.61 364.111 222.942 364.116C222.275 364.121 221.615 364.259 221.001 364.521C220.387 364.783 219.831 365.165 219.365 365.644C218.906 366.114 218.545 366.672 218.303 367.284C218.062 367.897 217.946 368.551 217.962 369.209H219.109C219.097 368.562 218.957 367.923 218.696 367.331C218.436 366.738 218.061 366.204 217.592 365.757C216.661 364.882 215.421 364.412 214.144 364.451C213.532 364.472 212.929 364.613 212.372 364.867C211.814 365.121 211.311 365.482 210.893 365.93C210.495 366.368 210.19 366.882 209.995 367.442C209.801 368.001 209.721 368.593 209.76 369.184Z" fill="#30302F"/>
<path d="M129.634 344.931C132.074 344.931 134.052 342.951 134.052 340.509C134.052 338.066 132.074 336.086 129.634 336.086C127.194 336.086 125.215 338.066 125.215 340.509C125.215 342.951 127.194 344.931 129.634 344.931Z" fill="#30302F"/>
<path d="M129.077 350.646L129.668 349.29L127.121 348.156C126.668 347.959 126.511 347.623 126.54 347.539L132.944 329.667C132.964 329.638 132.993 329.617 133.027 329.608C133.152 329.567 133.284 329.551 133.416 329.562C133.547 329.573 133.674 329.61 133.791 329.672L138.061 331.545L138.653 330.189L134.387 328.316C134.084 328.173 133.756 328.093 133.421 328.081C133.087 328.069 132.753 328.125 132.441 328.247C132.238 328.33 132.055 328.455 131.902 328.612C131.75 328.77 131.631 328.958 131.555 329.164L125.151 347.041C124.821 347.959 125.412 349.014 126.525 349.507L129.077 350.646Z" fill="#30302F"/>
<path d="M131.427 340.745L145.302 346.42L159.454 286.629L184.9 224.663L168.67 200.652L154.77 283.902L131.427 340.745Z" fill="#EE465E"/>
<path d="M184.424 230.084L182.854 229.395C180.127 228.198 177.985 225.966 176.902 223.188C175.818 220.411 175.882 217.317 177.077 214.586L177.766 213.015C177.923 212.656 178.216 212.374 178.581 212.231C178.947 212.088 179.353 212.097 179.712 212.254L190.215 216.862C190.574 217.02 190.855 217.313 190.998 217.679C191.14 218.044 191.132 218.451 190.975 218.811L186.371 229.323C186.214 229.682 185.92 229.964 185.555 230.107C185.19 230.25 184.783 230.241 184.424 230.084Z" fill="#4E4F50"/>
<path d="M187.102 222.179L187.634 222.411C187.827 222.496 188.035 222.543 188.247 222.548C188.458 222.553 188.668 222.515 188.865 222.438C189.062 222.361 189.242 222.246 189.394 222.099C189.546 221.952 189.668 221.777 189.752 221.582L188.2 225.127C188.028 225.518 187.709 225.824 187.312 225.979C186.915 226.135 186.473 226.126 186.082 225.956L185.55 225.719C182.584 224.415 180.256 221.987 179.076 218.968C177.896 215.948 177.96 212.583 179.255 209.611L179.491 209.079C179.613 208.806 179.807 208.572 180.053 208.403C179.464 211.161 179.844 214.037 181.128 216.547C182.412 219.057 184.522 221.046 187.102 222.179Z" fill="#79797A"/>
<path d="M131.584 340.4L125.181 355.029L157.444 369.184L159.611 364.254C160.009 363.352 160.037 362.331 159.689 361.409C159.342 360.487 158.647 359.738 157.754 359.323C153.105 357.129 145.307 352.544 145.302 346.425L131.584 340.4Z" fill="#C23E56"/>
<path d="M171.231 237.482C168.305 244.947 165.665 252.496 163.119 260.074C161.818 263.855 160.621 267.666 159.375 271.463L155.789 282.901C153.441 290.544 151.205 298.217 149.08 305.922C146.952 313.628 144.918 321.364 143.169 329.188C146.095 321.724 148.74 314.18 151.287 306.602C153.834 299.024 156.282 291.411 158.612 283.769L162.06 272.281C163.153 268.436 164.296 264.61 165.335 260.744C167.443 253.043 169.478 245.307 171.231 237.482Z" fill="#4E4F50"/>
<path d="M125.26 355.058C125.789 354.05 126.685 353.283 127.762 352.918C128.797 352.573 129.926 352.649 130.905 353.13C131.852 353.591 132.578 354.408 132.924 355.403C133.266 356.37 133.215 357.432 132.781 358.361L133.831 358.82C134.261 357.91 135.028 357.203 135.968 356.848C136.651 356.587 137.396 356.534 138.108 356.696C138.821 356.858 139.47 357.228 139.973 357.758C140.476 358.288 140.812 358.956 140.937 359.676C141.062 360.397 140.972 361.138 140.677 361.808L142.027 362.399C142.217 361.954 142.492 361.551 142.838 361.212C143.184 360.874 143.593 360.607 144.042 360.427C144.955 360.071 145.971 360.088 146.873 360.473C147.774 360.858 148.489 361.582 148.864 362.488C149.236 363.417 149.236 364.453 148.864 365.382L149.923 365.846C150.31 364.898 151.053 364.141 151.992 363.735C152.958 363.318 154.051 363.3 155.031 363.686C156.049 364.079 156.87 364.859 157.316 365.855C157.78 366.895 157.825 368.073 157.439 369.144C157.713 368.616 157.877 368.038 157.921 367.445C157.965 366.851 157.889 366.255 157.696 365.693C157.498 365.11 157.186 364.573 156.78 364.112C156.373 363.651 155.879 363.275 155.326 363.006C154.172 362.457 152.846 362.389 151.642 362.818C151.029 363.044 150.466 363.389 149.988 363.835C149.509 364.28 149.124 364.816 148.854 365.412L149.913 365.875C150.191 365.279 150.347 364.632 150.372 363.974C150.396 363.316 150.289 362.66 150.056 362.044C149.823 361.416 149.469 360.841 149.012 360.351C148.555 359.861 148.006 359.467 147.396 359.192C146.786 358.917 146.127 358.766 145.459 358.748C144.79 358.729 144.124 358.844 143.5 359.086C142.233 359.577 141.213 360.55 140.662 361.793L142.012 362.384C142.28 361.767 142.423 361.104 142.434 360.431C142.445 359.758 142.323 359.09 142.076 358.465C141.833 357.842 141.469 357.274 141.004 356.793C140.54 356.313 139.985 355.93 139.371 355.666C138.757 355.402 138.097 355.263 137.429 355.257C136.762 355.251 136.099 355.377 135.481 355.63C134.871 355.876 134.317 356.242 133.851 356.706C133.385 357.17 133.016 357.723 132.767 358.332L133.816 358.79C134.066 358.193 134.194 357.552 134.194 356.904C134.194 356.257 134.066 355.616 133.816 355.018C133.567 354.436 133.207 353.909 132.755 353.466C132.303 353.024 131.768 352.675 131.18 352.44C130.61 352.214 129.999 352.103 129.386 352.115C128.772 352.127 128.166 352.261 127.604 352.509C127.063 352.755 126.576 353.107 126.173 353.545C125.77 353.983 125.46 354.497 125.26 355.058Z" fill="#30302F"/>
<path d="M157.489 293.231C161.509 293.231 164.769 289.968 164.769 285.943C164.769 281.919 161.509 278.656 157.489 278.656C153.468 278.656 150.208 281.919 150.208 285.943C150.208 289.968 153.468 293.231 157.489 293.231Z" fill="#4E4F50"/>
<path d="M157.488 290.11C159.787 290.11 161.651 288.244 161.651 285.944C161.651 283.643 159.787 281.777 157.488 281.777C155.19 281.777 153.326 283.643 153.326 285.944C153.326 288.244 155.19 290.11 157.488 290.11Z" fill="#EE465E"/>
<path d="M210.243 300.217C214.264 300.217 217.523 296.954 217.523 292.93C217.523 288.905 214.264 285.643 210.243 285.643C206.222 285.643 202.963 288.905 202.963 292.93C202.963 296.954 206.222 300.217 210.243 300.217Z" fill="#4E4F50"/>
<path d="M210.243 297.096C212.542 297.096 214.405 295.231 214.405 292.93C214.405 290.629 212.542 288.764 210.243 288.764C207.944 288.764 206.081 290.629 206.081 292.93C206.081 295.231 207.944 297.096 210.243 297.096Z" fill="#EE465E"/>
<path d="M166.641 218.979C180.552 222.303 195.035 222.429 209.002 219.349C208.832 216.374 209.121 213.39 209.859 210.504C210.957 206.295 212.976 202.382 215.77 199.05C215.9 198.894 215.983 198.703 216.009 198.5C216.035 198.298 216.002 198.093 215.915 197.908C215.829 197.724 215.691 197.568 215.518 197.459C215.346 197.351 215.146 197.294 214.942 197.295H160.611C160.415 197.294 160.223 197.348 160.055 197.449C159.887 197.551 159.751 197.697 159.66 197.871C159.57 198.045 159.529 198.241 159.542 198.436C159.555 198.632 159.622 198.821 159.735 198.981C162.232 202.61 164.11 206.628 165.291 210.873C166.025 213.52 166.478 216.237 166.641 218.979Z" fill="#30302F"/>
<path d="M166.641 218.979C180.552 222.303 195.035 222.429 209.002 219.349C208.832 216.374 209.121 213.39 209.859 210.504C210.957 206.295 212.976 202.382 215.77 199.05C215.9 198.894 215.983 198.703 216.009 198.5C216.035 198.298 216.002 198.093 215.915 197.908C215.829 197.724 215.691 197.568 215.518 197.459C215.346 197.351 215.146 197.294 214.942 197.295H160.611C160.415 197.294 160.223 197.348 160.055 197.449C159.887 197.551 159.751 197.697 159.66 197.871C159.57 198.045 159.529 198.241 159.542 198.436C159.555 198.632 159.622 198.821 159.735 198.981C162.232 202.61 164.11 206.628 165.291 210.873C166.025 213.52 166.478 216.237 166.641 218.979Z" fill="#EE465E"/>
<path d="M165.291 210.864C165.207 210.548 165.109 210.252 165.015 209.946C168.783 211.943 173.029 212.067 181.861 211.652C189.92 211.268 196.451 203.719 199.855 197.285H214.794C214.765 198.33 214.725 199.371 214.676 200.416C210.606 205.853 208.59 212.557 208.987 219.339C195.02 222.42 180.537 222.293 166.626 218.969C166.468 216.228 166.02 213.511 165.291 210.864Z" fill="#C23E56"/>
<path d="M179.501 209.99C181.916 208.114 184.865 207.056 187.92 206.967C190.976 206.878 193.981 207.765 196.5 209.497L197.663 210.296C199.389 211.495 201.392 212.233 203.483 212.441C205.574 212.649 207.684 212.32 209.612 211.484C209.519 211.903 209.44 212.323 209.366 212.727C207.341 213.482 205.164 213.736 203.02 213.468C200.875 213.199 198.828 212.415 197.052 211.184L195.889 210.385C193.559 208.777 190.777 207.953 187.948 208.032C185.118 208.112 182.388 209.092 180.152 210.829C178.102 212.414 175.64 213.375 173.06 213.596C170.479 213.817 167.89 213.29 165.601 212.076C165.503 211.672 165.399 211.262 165.281 210.848C165.281 210.764 165.232 210.691 165.212 210.612C167.368 211.992 169.898 212.672 172.455 212.558C175.012 212.444 177.471 211.542 179.496 209.976L179.501 209.99Z" fill="#545554"/>
<path d="M191.816 207.412C193.489 207.828 195.076 208.539 196.5 209.512L197.663 210.311C199.389 211.51 201.392 212.249 203.483 212.456C205.574 212.664 207.684 212.335 209.612 211.499C209.519 211.919 209.44 212.338 209.366 212.742C207.341 213.497 205.164 213.752 203.02 213.483C200.875 213.214 198.828 212.431 197.052 211.199L195.889 210.4C194.335 209.335 192.575 208.609 190.722 208.27C191.087 207.994 191.456 207.708 191.816 207.412ZM171.901 212.569C173.339 212.565 174.765 212.313 176.117 211.825C176.94 211.825 177.817 211.795 178.753 211.766C176.771 212.942 174.521 213.588 172.217 213.643C169.914 213.697 167.636 213.158 165.601 212.076C165.503 211.672 165.399 211.263 165.281 210.849C165.281 210.765 165.232 210.691 165.212 210.612C167.21 211.888 169.531 212.567 171.901 212.569Z" fill="#484748"/>
<path d="M198.603 198.36C194.614 197.557 190.573 197.033 186.511 196.792C182.491 196.521 178.477 196.447 174.462 196.501C173.477 196.501 172.458 196.531 171.453 196.57C170.448 196.609 169.448 196.634 168.443 196.693C167.438 196.752 166.438 196.797 165.438 196.876L163.931 196.984L163.182 197.048H162.931C162.752 197.063 162.574 197.091 162.399 197.132C162.027 197.218 161.674 197.37 161.355 197.581C160.733 197.994 160.28 198.617 160.079 199.336C159.878 200.043 159.935 200.798 160.242 201.466C160.314 201.625 160.401 201.777 160.503 201.92L160.567 202.013L160.596 202.053L160.656 202.122L160.897 202.403L161.389 202.955C162.015 203.69 162.601 204.395 163.143 205.169C164.241 206.702 165.187 208.521 166.34 210.282C166.42 208.173 166.17 206.066 165.601 204.035C165.287 202.991 164.88 201.978 164.384 201.007L164.025 200.302L163.838 199.962L163.793 199.873L163.769 199.834C163.799 199.872 163.827 199.911 163.852 199.952C163.982 200.154 164.032 200.398 163.99 200.634C163.949 200.871 163.821 201.083 163.631 201.229C163.525 201.309 163.407 201.369 163.281 201.407C163.229 201.421 163.176 201.432 163.123 201.441C163.079 201.441 163.123 201.441 163.158 201.441H163.251L164.005 201.471L165.512 201.505C166.497 201.53 167.522 201.535 168.527 201.535C169.532 201.535 170.541 201.535 171.546 201.51C172.551 201.486 173.556 201.461 174.561 201.426C178.575 201.279 182.595 201.002 186.604 200.534C190.649 200.089 194.659 199.362 198.603 198.36Z" fill="#EA5F7A"/>
<path d="M187.619 222.538C180.476 222.458 173.364 221.584 166.414 219.93L165.705 219.758L165.66 219.028C165.239 212.033 162.908 205.289 158.922 199.528C158.71 199.219 158.585 198.858 158.563 198.484C158.54 198.109 158.62 197.736 158.794 197.404C158.968 197.071 159.229 196.793 159.549 196.598C159.87 196.404 160.237 196.3 160.612 196.299H214.927C215.318 196.298 215.701 196.409 216.031 196.619C216.361 196.828 216.624 197.127 216.79 197.481C216.956 197.835 217.018 198.229 216.968 198.617C216.918 199.005 216.759 199.371 216.509 199.671C211.899 205.129 209.559 212.15 209.972 219.284L210.016 220.123L209.199 220.3C202.438 221.79 195.537 222.542 188.614 222.543L187.619 222.538ZM208.893 210.247C210.022 205.897 212.107 201.854 214.996 198.414C215.006 198.402 215.012 198.387 215.012 198.372C215.012 198.357 215.006 198.342 214.996 198.33C214.992 198.313 214.981 198.299 214.967 198.289C214.952 198.279 214.935 198.274 214.918 198.276H160.612C160.596 198.275 160.581 198.278 160.567 198.286C160.554 198.294 160.544 198.306 160.538 198.32C160.528 198.335 160.524 198.352 160.524 198.37C160.524 198.387 160.528 198.404 160.538 198.419C164.584 204.267 167.011 211.084 167.572 218.175C180.848 221.239 194.632 221.366 207.962 218.55C207.883 215.752 208.196 212.957 208.893 210.247Z" fill="#EE465E"/>
<path d="M193.15 126.756H183.23V139.516H193.15V126.756Z" fill="#474748"/>
<path d="M200.864 132.963H175.512C175.34 132.964 175.171 132.927 175.015 132.856C174.859 132.785 174.72 132.681 174.608 132.551C174.496 132.422 174.413 132.27 174.365 132.105C174.317 131.94 174.305 131.767 174.329 131.598L179.945 93.5841C179.985 93.3005 180.126 93.0411 180.343 92.8535C180.559 92.666 180.836 92.563 181.122 92.5635H195.254C195.54 92.5639 195.817 92.667 196.034 92.8543C196.251 93.0416 196.394 93.3005 196.436 93.5841L202.051 131.598C202.076 131.768 202.064 131.941 202.016 132.106C201.967 132.271 201.884 132.424 201.771 132.553C201.658 132.683 201.519 132.787 201.362 132.858C201.206 132.928 201.036 132.964 200.864 132.963Z" fill="#EE465E"/>
<path d="M200.864 132.963C201.036 132.964 201.205 132.927 201.361 132.856C201.517 132.785 201.656 132.681 201.768 132.551C201.88 132.422 201.963 132.27 202.011 132.105C202.059 131.94 202.071 131.767 202.046 131.598L200.874 123.665C194.106 121.244 188.821 114.139 186.225 108.528C184.905 105.669 182.994 98.3912 181.506 92.5635H181.122C180.836 92.563 180.559 92.666 180.343 92.8535C180.126 93.0411 179.985 93.3005 179.945 93.5841L174.329 131.598C174.305 131.767 174.317 131.94 174.365 132.105C174.413 132.27 174.496 132.422 174.608 132.551C174.72 132.681 174.859 132.785 175.015 132.856C175.171 132.927 175.34 132.964 175.512 132.963H200.864Z" fill="#D13F5B"/>
<path d="M201.219 126.006C199.451 125.609 197.791 124.831 196.352 123.728C193.938 121.852 190.991 120.793 187.936 120.704C184.881 120.616 181.877 121.502 179.359 123.235L178.196 124.029C177.283 124.663 176.289 125.17 175.241 125.538L175.068 126.726C176.405 126.321 177.672 125.71 178.822 124.917L179.984 124.118C182.315 122.512 185.095 121.69 187.923 121.77C190.751 121.849 193.481 122.827 195.717 124.562C197.389 125.845 199.337 126.721 201.406 127.12L201.219 126.006Z" fill="#4E4F50"/>
<path opacity="0.51" d="M118.807 267.337L158.68 256.786C159.32 256.616 160.001 256.707 160.573 257.039C161.146 257.37 161.563 257.916 161.734 258.556L168.665 284.554C168.835 285.194 168.744 285.876 168.412 286.449C168.081 287.022 167.536 287.44 166.896 287.611L122.146 297.689C122.036 297.717 121.924 297.739 121.811 297.753C121.445 297.782 121.077 297.728 120.735 297.594C120.394 297.46 120.087 297.25 119.838 296.98C119.589 296.709 119.405 296.386 119.3 296.034C119.195 295.682 119.171 295.31 119.23 294.947L117.029 270.374C116.865 269.736 116.96 269.058 117.293 268.489C117.626 267.92 118.17 267.506 118.807 267.337Z" fill="url(#paint10_linear_64_1857)"/>
<path d="M122.585 266.026L163.749 255.026C164.388 254.856 165.069 254.947 165.642 255.279C166.214 255.611 166.632 256.156 166.803 256.796L174.467 285.541C174.552 285.858 174.574 286.188 174.531 286.513C174.488 286.839 174.381 287.152 174.217 287.436C174.052 287.72 173.834 287.969 173.573 288.168C173.313 288.367 173.016 288.513 172.699 288.597L159.01 292.256C158.624 292.359 158.218 292.368 157.827 292.282C157.437 292.196 157.072 292.018 156.764 291.763L150.967 286.896C150.661 286.638 150.296 286.457 149.905 286.371C149.513 286.286 149.107 286.297 148.721 286.403L129.397 291.566C128.758 291.736 128.077 291.645 127.504 291.313C126.932 290.981 126.514 290.435 126.343 289.796L120.821 269.088C120.736 268.771 120.713 268.44 120.756 268.115C120.798 267.789 120.904 267.475 121.068 267.19C121.232 266.906 121.45 266.657 121.71 266.457C121.971 266.257 122.268 266.111 122.585 266.026Z" fill="#C4CEE5"/>
<path opacity="0.47" d="M161.966 261.352L168.162 283.06" stroke="url(#paint11_linear_64_1857)" stroke-width="5" stroke-miterlimit="10"/>
<path opacity="0.47" d="M156.483 263.048L162.675 284.756" stroke="url(#paint12_linear_64_1857)" stroke-width="5" stroke-miterlimit="10"/>
<path opacity="0.47" d="M150.79 264.744L156.981 286.453" stroke="url(#paint13_linear_64_1857)" stroke-width="5" stroke-miterlimit="10"/>
<path d="M131.825 200.614C134.521 200.614 136.707 198.426 136.707 195.728C136.707 193.029 134.521 190.842 131.825 190.842C129.129 190.842 126.944 193.029 126.944 195.728C126.944 198.426 129.129 200.614 131.825 200.614Z" fill="#30302F"/>
<path d="M129.422 215.834C133.443 215.834 136.702 212.572 136.702 208.547C136.702 204.522 133.443 201.26 129.422 201.26C125.401 201.26 122.142 204.522 122.142 208.547C122.142 212.572 125.401 215.834 129.422 215.834Z" fill="#30302F"/>
<path d="M131.811 226.247C134.506 226.247 136.692 224.059 136.692 221.361C136.692 218.662 134.506 216.475 131.811 216.475C129.115 216.475 126.929 218.662 126.929 221.361C126.929 224.059 129.115 226.247 131.811 226.247Z" fill="#30302F"/>
<path d="M198.244 188.11H177.162V196.324H198.244V188.11Z" fill="#4E4F50"/>
<path d="M212.208 190.659L208.484 191.117C194.681 192.808 180.724 192.808 166.921 191.117L163.197 190.659C162.729 190.601 162.293 190.39 161.957 190.058C161.621 189.726 161.404 189.293 161.34 188.825L160.917 185.704C159.218 173.181 158.911 160.508 160.001 147.917L160.34 143.997C160.385 143.492 160.607 143.018 160.968 142.661C161.329 142.304 161.805 142.088 162.311 142.05L174.344 141.108C183.243 140.408 192.182 140.408 201.081 141.108L213.105 142.065C213.611 142.101 214.087 142.318 214.448 142.675C214.81 143.032 215.032 143.506 215.075 144.012L215.415 147.932C216.504 160.523 216.197 173.195 214.499 185.719L214.075 188.839C214.008 189.306 213.788 189.738 213.45 190.067C213.113 190.396 212.676 190.604 212.208 190.659Z" fill="#F6BE1D"/>
<path d="M214.065 188.825L214.489 185.704C214.978 182.088 215.349 178.481 215.602 174.882C208.706 181.73 206.007 182.376 192.363 181.735C183.619 181.321 176.664 172.466 173.561 165.756C171.325 160.914 167.394 143.396 166.695 141.705L162.301 142.05C161.795 142.088 161.319 142.305 160.958 142.662C160.597 143.018 160.375 143.492 160.331 143.998L159.991 147.917C158.901 160.508 159.208 173.181 160.907 185.704L161.331 188.825C161.394 189.293 161.611 189.727 161.947 190.059C162.283 190.39 162.719 190.602 163.188 190.659L166.911 191.118C180.714 192.809 194.672 192.809 208.475 191.118L212.198 190.659C212.669 190.604 213.107 190.393 213.445 190.061C213.783 189.729 214.001 189.295 214.065 188.825Z" fill="#EE9E23"/>
<path d="M234.221 172.895C236.917 172.895 239.103 170.708 239.103 168.009C239.103 165.311 236.917 163.123 234.221 163.123C231.525 163.123 229.34 165.311 229.34 168.009C229.34 170.708 231.525 172.895 234.221 172.895Z" fill="#30302F"/>
<path d="M246.388 179.773C250.408 179.773 253.668 176.51 253.668 172.485C253.668 168.461 250.408 165.198 246.388 165.198C242.367 165.198 239.107 168.461 239.107 172.485C239.107 176.51 242.367 179.773 246.388 179.773Z" fill="#30302F"/>
<path d="M251.368 166.485C254.064 166.485 256.249 164.297 256.249 161.599C256.249 158.9 254.064 156.713 251.368 156.713C248.672 156.713 246.486 158.9 246.486 161.599C246.486 164.297 248.672 166.485 251.368 166.485Z" fill="#30302F"/>
<path d="M194.52 146.453L249.412 177.805L257.806 125.351" stroke="#F6BE1D" stroke-width="16" stroke-linejoin="round"/>
<path d="M247.747 182.588C251.768 182.588 255.027 179.325 255.027 175.301C255.027 171.276 251.768 168.014 247.747 168.014C243.726 168.014 240.467 171.276 240.467 175.301C240.467 179.325 243.726 182.588 247.747 182.588Z" fill="#4E4F50"/>
<path d="M247.747 179.467C250.046 179.467 251.909 177.602 251.909 175.301C251.909 173 250.046 171.135 247.747 171.135C245.448 171.135 243.585 173 243.585 175.301C243.585 177.602 245.448 179.467 247.747 179.467Z" fill="#30302F"/>
<path d="M233.778 176.016C236.474 176.016 238.659 173.829 238.659 171.13C238.659 168.432 236.474 166.244 233.778 166.244C231.082 166.244 228.896 168.432 228.896 171.13C228.896 173.829 231.082 176.016 233.778 176.016Z" fill="#4E4F50"/>
<path d="M233.778 173.6C235.141 173.6 236.246 172.495 236.246 171.13C236.246 169.766 235.141 168.66 233.778 168.66C232.415 168.66 231.31 169.766 231.31 171.13C231.31 172.495 232.415 173.6 233.778 173.6Z" fill="#30302F"/>
<path d="M253.392 167.2C256.088 167.2 258.274 165.012 258.274 162.314C258.274 159.615 256.088 157.428 253.392 157.428C250.696 157.428 248.511 159.615 248.511 162.314C248.511 165.012 250.696 167.2 253.392 167.2Z" fill="#4E4F50"/>
<path d="M253.392 164.784C254.755 164.784 255.86 163.678 255.86 162.314C255.86 160.95 254.755 159.844 253.392 159.844C252.029 159.844 250.924 160.95 250.924 162.314C250.924 163.678 252.029 164.784 253.392 164.784Z" fill="#30302F"/>
<path d="M273.73 126.623L270.578 123.739C269.896 124.487 269.073 125.094 268.156 125.524C267.239 125.954 266.247 126.199 265.236 126.245C264.224 126.292 263.214 126.138 262.262 125.793C261.31 125.449 260.435 124.92 259.687 124.237C258.939 123.554 258.333 122.73 257.904 121.812C257.474 120.895 257.229 119.901 257.183 118.889C257.137 117.877 257.29 116.865 257.635 115.913C257.979 114.96 258.507 114.084 259.19 113.335L256.037 110.451C253.958 112.807 252.887 115.886 253.055 119.025C253.222 122.164 254.615 125.111 256.933 127.232C259.251 129.353 262.308 130.478 265.446 130.364C268.585 130.25 271.553 128.906 273.711 126.623H273.73Z" fill="#EE9E23"/>
<path d="M257.805 131.46C260.501 131.46 262.687 129.272 262.687 126.574C262.687 123.875 260.501 121.688 257.805 121.688C255.109 121.688 252.924 123.875 252.924 126.574C252.924 129.272 255.109 131.46 257.805 131.46Z" fill="#4E4F50"/>
<path d="M257.805 129.044C259.168 129.044 260.273 127.938 260.273 126.574C260.273 125.209 259.168 124.104 257.805 124.104C256.442 124.104 255.337 125.209 255.337 126.574C255.337 127.938 256.442 129.044 257.805 129.044Z" fill="#EE9E23"/>
<path d="M169.763 161.604C170.1 161.604 170.433 161.538 170.744 161.409C171.055 161.28 171.338 161.09 171.576 160.852C171.814 160.613 172.002 160.33 172.131 160.018C172.259 159.707 172.325 159.373 172.324 159.036V141.286L162.301 142.065C161.795 142.103 161.319 142.32 160.958 142.676C160.597 143.033 160.374 143.507 160.33 144.013L159.99 147.932C159.596 152.488 159.386 157.05 159.36 161.619L169.763 161.604ZM213.168 182.657C213.505 182.657 213.839 182.591 214.15 182.462C214.461 182.332 214.743 182.143 214.981 181.905C215.219 181.666 215.408 181.383 215.536 181.071C215.665 180.76 215.73 180.426 215.73 180.089V162.314L205.701 163.103C205.195 163.142 204.72 163.359 204.359 163.716C203.999 164.072 203.776 164.545 203.731 165.051L203.391 168.97C202.997 173.526 202.788 178.088 202.765 182.657H213.168Z" stroke="#F8E782" stroke-miterlimit="10"/>
<path d="M201.411 141.133V154.351C201.412 154.918 201.638 155.461 202.039 155.861C202.44 156.261 202.983 156.486 203.549 156.486H209.849C210.415 156.486 210.958 156.261 211.359 155.861C211.759 155.461 211.985 154.918 211.987 154.351V141.961L201.411 141.133ZM200.475 180.522C200.195 180.521 199.917 180.576 199.657 180.683C199.398 180.79 199.162 180.947 198.964 181.145C198.765 181.344 198.608 181.579 198.5 181.839C198.393 182.098 198.337 182.376 198.337 182.657V192.054C201.726 191.844 205.109 191.532 208.484 191.117L212.208 190.659C212.677 190.601 213.113 190.39 213.449 190.058C213.785 189.726 214.001 189.293 214.065 188.825L214.489 185.704C214.72 183.978 214.922 182.253 215.105 180.522H200.475Z" fill="#EE9E23"/>
<path d="M208.184 180.522C205.672 181.602 202.8 181.947 198.475 181.922C198.387 182.157 198.34 182.406 198.337 182.657V192.054C201.7 191.844 205.054 191.535 208.4 191.128H208.484L212.208 190.669C212.5 190.635 212.782 190.542 213.036 190.394C213.29 190.247 213.512 190.048 213.686 189.811C213.899 189.521 214.035 189.182 214.08 188.825L214.503 185.704C214.735 183.978 214.937 182.253 215.119 180.522H208.184ZM167.266 172.057H159.626C159.876 176.619 160.306 181.168 160.917 185.704L161.34 188.825C161.404 189.293 161.621 189.727 161.957 190.058C162.293 190.39 162.729 190.601 163.197 190.659L166.921 191.118C168.103 191.261 169.285 191.379 170.467 191.497V175.261C170.467 174.411 170.13 173.596 169.53 172.995C168.929 172.394 168.115 172.057 167.266 172.057Z" fill="#E77B26"/>
<path d="M199.066 140.97C198.719 139.4 197.846 137.995 196.592 136.988C195.338 135.982 193.778 135.435 192.17 135.438H184.117C182.524 135.439 180.978 135.98 179.732 136.973C178.486 137.966 177.613 139.353 177.255 140.906C184.52 140.459 191.805 140.481 199.066 140.97Z" fill="#4E4F50"/>
<path d="M159.365 168.976L154.878 163.01C148.474 150.684 152.233 148.44 158.794 144.846L160.34 143.998L159.365 168.976ZM215.892 168.976L220.375 163.01C226.778 150.684 223.025 148.44 216.434 144.846L214.893 143.998L215.892 168.976Z" fill="#EE9E23"/>
<path d="M187.703 193.455C180.713 193.456 173.731 193.03 166.793 192.178L163.069 191.724C162.367 191.638 161.713 191.321 161.209 190.824C160.706 190.326 160.381 189.675 160.286 188.973L159.858 185.847C158.153 173.245 157.844 160.494 158.937 147.824L159.277 143.904C159.34 143.145 159.673 142.433 160.215 141.898C160.757 141.363 161.473 141.039 162.232 140.985L174.265 140.039C183.22 139.339 192.215 139.339 201.17 140.039L213.203 140.985C213.963 141.038 214.679 141.362 215.221 141.897C215.763 142.432 216.096 143.144 216.159 143.904L216.499 147.824C217.591 160.494 217.282 173.245 215.577 185.847L215.154 188.973C215.056 189.675 214.73 190.325 214.226 190.822C213.722 191.32 213.068 191.637 212.366 191.724L208.642 192.178C201.695 193.031 194.702 193.457 187.703 193.455ZM187.703 141.651C183.27 141.651 178.837 141.824 174.403 142.174L162.37 143.115C162.115 143.135 161.876 143.245 161.695 143.426C161.514 143.607 161.404 143.846 161.385 144.101L161.045 148.021C159.964 160.531 160.269 173.123 161.956 185.566L162.38 188.692C162.412 188.926 162.521 189.144 162.689 189.31C162.857 189.475 163.076 189.581 163.311 189.609L167.035 190.068C180.749 191.749 194.617 191.749 208.332 190.068L212.06 189.609C212.295 189.581 212.513 189.475 212.68 189.309C212.848 189.143 212.956 188.926 212.987 188.692L213.41 185.566C215.113 173.122 215.433 160.526 214.366 148.011L214.026 144.092C214.007 143.836 213.897 143.597 213.716 143.416C213.535 143.235 213.296 143.125 213.041 143.105L201.007 142.164C196.579 141.824 192.141 141.651 187.703 141.651Z" fill="#E77B26"/>
<path d="M153.883 161.003C153.005 159.227 152.324 157.361 151.853 155.437C151.395 155.821 139.761 166.032 132.727 183.274C126.254 199.14 121.964 224.995 138.288 258.083L143.076 255.716C130.722 230.68 128.87 207.068 137.574 185.532C143.174 171.648 151.592 163.153 153.883 161.003Z" fill="#F6BE1D"/>
<path d="M126.447 215.834C130.467 215.834 133.727 212.572 133.727 208.547C133.727 204.522 130.467 201.26 126.447 201.26C122.426 201.26 119.167 204.522 119.167 208.547C119.167 212.572 122.426 215.834 126.447 215.834Z" fill="#4E4F50"/>
<path d="M126.446 212.713C128.745 212.713 130.609 210.848 130.609 208.547C130.609 206.246 128.745 204.381 126.446 204.381C124.148 204.381 122.284 206.246 122.284 208.547C122.284 210.848 124.148 212.713 126.446 212.713Z" fill="#30302F"/>
<path d="M129.421 200.614C132.117 200.614 134.303 198.426 134.303 195.728C134.303 193.029 132.117 190.842 129.421 190.842C126.725 190.842 124.54 193.029 124.54 195.728C124.54 198.426 126.725 200.614 129.421 200.614Z" fill="#4E4F50"/>
<path d="M129.421 198.198C130.784 198.198 131.889 197.092 131.889 195.728C131.889 194.364 130.784 193.258 129.421 193.258C128.058 193.258 126.954 194.364 126.954 195.728C126.954 197.092 128.058 198.198 129.421 198.198Z" fill="#30302F"/>
<path d="M129.407 226.247C132.103 226.247 134.288 224.059 134.288 221.361C134.288 218.662 132.103 216.475 129.407 216.475C126.711 216.475 124.525 218.662 124.525 221.361C124.525 224.059 126.711 226.247 129.407 226.247Z" fill="#4E4F50"/>
<path d="M129.407 223.831C130.77 223.831 131.875 222.725 131.875 221.361C131.875 219.997 130.77 218.891 129.407 218.891C128.044 218.891 126.939 219.997 126.939 221.361C126.939 222.725 128.044 223.831 129.407 223.831Z" fill="#30302F"/>
<path d="M134.229 272.455C133.517 271.033 133.095 269.483 132.987 267.896C132.879 266.309 133.087 264.717 133.601 263.211C134.114 261.706 134.921 260.318 135.976 259.128C137.031 257.938 138.311 256.97 139.743 256.281C141.176 255.592 142.73 255.194 144.317 255.113C145.904 255.031 147.492 255.266 148.987 255.804C150.482 256.343 151.856 257.174 153.027 258.249C154.198 259.324 155.144 260.622 155.809 262.067L151.962 263.915C151.049 262.118 149.47 260.749 147.562 260.103C145.653 259.457 143.568 259.585 141.753 260.459C139.938 261.333 138.537 262.885 137.85 264.78C137.164 266.676 137.247 268.766 138.081 270.601L134.229 272.455Z" fill="#EE9E23"/>
<path d="M140.869 262.298C143.565 262.298 145.751 260.111 145.751 257.412C145.751 254.714 143.565 252.526 140.869 252.526C138.173 252.526 135.988 254.714 135.988 257.412C135.988 260.111 138.173 262.298 140.869 262.298Z" fill="#4E4F50"/>
<path d="M140.869 259.883C142.232 259.883 143.337 258.777 143.337 257.413C143.337 256.048 142.232 254.942 140.869 254.942C139.506 254.942 138.401 256.048 138.401 257.413C138.401 258.777 139.506 259.883 140.869 259.883Z" fill="#EE9E23"/>
<path d="M168.212 175.35C168.72 175.35 169.133 174.937 169.133 174.428C169.133 173.919 168.72 173.506 168.212 173.506C167.703 173.506 167.291 173.919 167.291 174.428C167.291 174.937 167.703 175.35 168.212 175.35Z" fill="#020202"/>
<path d="M203.697 154.761C204.205 154.761 204.618 154.348 204.618 153.839C204.618 153.33 204.205 152.917 203.697 152.917C203.188 152.917 202.775 153.33 202.775 153.839C202.775 154.348 203.188 154.761 203.697 154.761Z" fill="#020202"/>
<path d="M210.174 154.761C210.682 154.761 211.095 154.348 211.095 153.839C211.095 153.33 210.682 152.917 210.174 152.917C209.665 152.917 209.252 153.33 209.252 153.839C209.252 154.348 209.665 154.761 210.174 154.761Z" fill="#020202"/>
<path d="M210.174 145.842C210.682 145.842 211.095 145.429 211.095 144.92C211.095 144.411 210.682 143.998 210.174 143.998C209.665 143.998 209.252 144.411 209.252 144.92C209.252 145.429 209.665 145.842 210.174 145.842Z" fill="#020202"/>
<path d="M203.697 144.92C204.205 144.92 204.618 144.507 204.618 143.998C204.618 143.489 204.205 143.076 203.697 143.076C203.188 143.076 202.775 143.489 202.775 143.998C202.775 144.507 203.188 144.92 203.697 144.92Z" fill="#020202"/>
<path d="M200.49 183.623C200.999 183.623 201.411 183.21 201.411 182.701C201.411 182.192 200.999 181.779 200.49 181.779C199.981 181.779 199.569 182.192 199.569 182.701C199.569 183.21 199.981 183.623 200.49 183.623Z" fill="#020202"/>
<path d="M211.987 183.579C212.495 183.579 212.908 183.167 212.908 182.657C212.908 182.148 212.495 181.735 211.987 181.735C211.478 181.735 211.065 182.148 211.065 182.657C211.065 183.167 211.478 183.579 211.987 183.579Z" fill="#020202"/>
<path d="M162.493 175.35C163.002 175.35 163.414 174.937 163.414 174.428C163.414 173.919 163.002 173.506 162.493 173.506C161.984 173.506 161.572 173.919 161.572 174.428C161.572 174.937 161.984 175.35 162.493 175.35Z" fill="#020202"/>
<path d="M168.645 189.466C169.154 189.466 169.566 189.053 169.566 188.544C169.566 188.035 169.154 187.622 168.645 187.622C168.137 187.622 167.724 188.035 167.724 188.544C167.724 189.053 168.137 189.466 168.645 189.466Z" fill="#020202"/>
<path d="M200.49 189.954C200.999 189.954 201.411 189.542 201.411 189.032C201.411 188.523 200.999 188.11 200.49 188.11C199.981 188.11 199.569 188.523 199.569 189.032C199.569 189.542 199.981 189.954 200.49 189.954Z" fill="#020202"/>
<path d="M132.195 263.456L145.593 259.877L140.573 268.628L138.894 271.084L135.993 272.74L132.742 272.454L132.195 263.456Z" fill="#C4CEE5"/>
</g>
<defs>
<linearGradient id="paint0_linear_64_1857" x1="88.5729" y1="376.254" x2="87.1861" y2="338.354" gradientUnits="userSpaceOnUse">
<stop stop-color="white" stop-opacity="0"/>
<stop offset="0.01" stop-color="#FCFDFE" stop-opacity="0.02"/>
<stop offset="0.14" stop-color="#D1DDEF" stop-opacity="0.27"/>
<stop offset="0.28" stop-color="#ACC2E1" stop-opacity="0.5"/>
<stop offset="0.43" stop-color="#8EACD6" stop-opacity="0.68"/>
<stop offset="0.57" stop-color="#769ACE" stop-opacity="0.82"/>
<stop offset="0.71" stop-color="#658EC8" stop-opacity="0.92"/>
<stop offset="0.85" stop-color="#5B86C4" stop-opacity="0.98"/>
<stop offset="1" stop-color="#5884C3"/>
</linearGradient>
<linearGradient id="paint1_linear_64_1857" x1="288.493" y1="349.414" x2="288.493" y2="181.918" gradientUnits="userSpaceOnUse">
<stop stop-color="white" stop-opacity="0"/>
<stop offset="0.01" stop-color="#FCFDFE" stop-opacity="0.02"/>
<stop offset="0.14" stop-color="#D1DDEF" stop-opacity="0.27"/>
<stop offset="0.28" stop-color="#ACC2E1" stop-opacity="0.5"/>
<stop offset="0.43" stop-color="#8EACD6" stop-opacity="0.68"/>
<stop offset="0.57" stop-color="#769ACE" stop-opacity="0.82"/>
<stop offset="0.71" stop-color="#658EC8" stop-opacity="0.92"/>
<stop offset="0.85" stop-color="#5B86C4" stop-opacity="0.98"/>
<stop offset="1" stop-color="#5884C3"/>
</linearGradient>
<linearGradient id="paint2_linear_64_1857" x1="-nan" y1="-nan" x2="-nan" y2="-nan" gradientUnits="userSpaceOnUse">
<stop stop-color="#4058A6"/>
<stop offset="0.25" stop-color="#415AA8" stop-opacity="0.97"/>
<stop offset="0.49" stop-color="#4562AD" stop-opacity="0.89"/>
<stop offset="0.72" stop-color="#4C6FB5" stop-opacity="0.74"/>
<stop offset="0.96" stop-color="#5680C0" stop-opacity="0.54"/>
<stop offset="1" stop-color="#5884C3" stop-opacity="0.5"/>
</linearGradient>
<linearGradient id="paint3_linear_64_1857" x1="-nan" y1="-nan" x2="-nan" y2="-nan" gradientUnits="userSpaceOnUse">
<stop stop-color="#4058A6"/>
<stop offset="0.25" stop-color="#415AA8" stop-opacity="0.97"/>
<stop offset="0.49" stop-color="#4562AD" stop-opacity="0.89"/>
<stop offset="0.72" stop-color="#4C6FB5" stop-opacity="0.74"/>
<stop offset="0.96" stop-color="#5680C0" stop-opacity="0.54"/>
<stop offset="1" stop-color="#5884C3" stop-opacity="0.5"/>
</linearGradient>
<linearGradient id="paint4_linear_64_1857" x1="-nan" y1="-nan" x2="-nan" y2="-nan" gradientUnits="userSpaceOnUse">
<stop stop-color="#4058A6"/>
<stop offset="0.25" stop-color="#415AA8" stop-opacity="0.97"/>
<stop offset="0.49" stop-color="#4562AD" stop-opacity="0.89"/>
<stop offset="0.72" stop-color="#4C6FB5" stop-opacity="0.74"/>
<stop offset="0.96" stop-color="#5680C0" stop-opacity="0.54"/>
<stop offset="1" stop-color="#5884C3" stop-opacity="0.5"/>
</linearGradient>
<linearGradient id="paint5_linear_64_1857" x1="-nan" y1="-nan" x2="-nan" y2="-nan" gradientUnits="userSpaceOnUse">
<stop stop-color="#4058A6"/>
<stop offset="0.25" stop-color="#415AA8" stop-opacity="0.97"/>
<stop offset="0.49" stop-color="#4562AD" stop-opacity="0.89"/>
<stop offset="0.72" stop-color="#4C6FB5" stop-opacity="0.74"/>
<stop offset="0.96" stop-color="#5680C0" stop-opacity="0.54"/>
<stop offset="1" stop-color="#5884C3" stop-opacity="0.5"/>
</linearGradient>
<linearGradient id="paint6_linear_64_1857" x1="-nan" y1="-nan" x2="-nan" y2="-nan" gradientUnits="userSpaceOnUse">
<stop stop-color="#4058A6"/>
<stop offset="0.25" stop-color="#415AA8" stop-opacity="0.97"/>
<stop offset="0.49" stop-color="#4562AD" stop-opacity="0.89"/>
<stop offset="0.72" stop-color="#4C6FB5" stop-opacity="0.74"/>
<stop offset="0.96" stop-color="#5680C0" stop-opacity="0.54"/>
<stop offset="1" stop-color="#5884C3" stop-opacity="0.5"/>
</linearGradient>
<linearGradient id="paint7_linear_64_1857" x1="-nan" y1="-nan" x2="-nan" y2="-nan" gradientUnits="userSpaceOnUse">
<stop stop-color="#4058A6"/>
<stop offset="0.25" stop-color="#415AA8" stop-opacity="0.97"/>
<stop offset="0.49" stop-color="#4562AD" stop-opacity="0.89"/>
<stop offset="0.72" stop-color="#4C6FB5" stop-opacity="0.74"/>
<stop offset="0.96" stop-color="#5680C0" stop-opacity="0.54"/>
<stop offset="1" stop-color="#5884C3" stop-opacity="0.5"/>
</linearGradient>
<linearGradient id="paint8_linear_64_1857" x1="-nan" y1="-nan" x2="-nan" y2="-nan" gradientUnits="userSpaceOnUse">
<stop stop-color="#4058A6"/>
<stop offset="0.25" stop-color="#415AA8" stop-opacity="0.97"/>
<stop offset="0.49" stop-color="#4562AD" stop-opacity="0.89"/>
<stop offset="0.72" stop-color="#4C6FB5" stop-opacity="0.74"/>
<stop offset="0.96" stop-color="#5680C0" stop-opacity="0.54"/>
<stop offset="1" stop-color="#5884C3" stop-opacity="0.5"/>
</linearGradient>
<linearGradient id="paint9_linear_64_1857" x1="81.5981" y1="65.259" x2="159.331" y2="65.259" gradientUnits="userSpaceOnUse">
<stop stop-color="white" stop-opacity="0"/>
<stop offset="0.1" stop-color="#FDE6E6" stop-opacity="0.15"/>
<stop offset="0.28" stop-color="#FABBBA" stop-opacity="0.4"/>
<stop offset="0.46" stop-color="#F79796" stop-opacity="0.62"/>
<stop offset="0.63" stop-color="#F57B79" stop-opacity="0.78"/>
<stop offset="0.78" stop-color="#F36765" stop-opacity="0.9"/>
<stop offset="0.91" stop-color="#F25A58" stop-opacity="0.97"/>
<stop offset="1" stop-color="#F25654"/>
</linearGradient>
<linearGradient id="paint10_linear_64_1857" x1="116.945" y1="277.247" x2="168.749" y2="277.247" gradientUnits="userSpaceOnUse">
<stop stop-color="#4059A6"/>
<stop offset="1" stop-color="#5883C2" stop-opacity="0.1"/>
</linearGradient>
<linearGradient id="paint11_linear_64_1857" x1="160.784" y1="272.208" x2="169.345" y2="272.208" gradientUnits="userSpaceOnUse">
<stop stop-color="#4059A6"/>
<stop offset="0.25" stop-color="#415BA8" stop-opacity="0.97"/>
<stop offset="0.48" stop-color="#4562AC" stop-opacity="0.89"/>
<stop offset="0.72" stop-color="#4C6EB4" stop-opacity="0.75"/>
<stop offset="0.95" stop-color="#567FBF" stop-opacity="0.55"/>
<stop offset="1" stop-color="#5883C2" stop-opacity="0.5"/>
</linearGradient>
<linearGradient id="paint12_linear_64_1857" x1="155.301" y1="273.9" x2="163.857" y2="273.9" gradientUnits="userSpaceOnUse">
<stop stop-color="#4059A6"/>
<stop offset="0.25" stop-color="#415BA8" stop-opacity="0.97"/>
<stop offset="0.48" stop-color="#4562AC" stop-opacity="0.89"/>
<stop offset="0.72" stop-color="#4C6EB4" stop-opacity="0.75"/>
<stop offset="0.95" stop-color="#567FBF" stop-opacity="0.55"/>
<stop offset="1" stop-color="#5883C2" stop-opacity="0.5"/>
</linearGradient>
<linearGradient id="paint13_linear_64_1857" x1="149.602" y1="275.601" x2="158.163" y2="275.601" gradientUnits="userSpaceOnUse">
<stop stop-color="#4059A6"/>
<stop offset="0.25" stop-color="#415BA8" stop-opacity="0.97"/>
<stop offset="0.48" stop-color="#4562AC" stop-opacity="0.89"/>
<stop offset="0.72" stop-color="#4C6EB4" stop-opacity="0.75"/>
<stop offset="0.95" stop-color="#567FBF" stop-opacity="0.55"/>
<stop offset="1" stop-color="#5883C2" stop-opacity="0.5"/>
</linearGradient>
<clipPath id="clip0_64_1857">
<rect width="387" height="379" fill="white"/>
</clipPath>
</defs>
</svg>
