<svg width="508" height="375" viewBox="0 0 508 375" fill="none" xmlns="http://www.w3.org/2000/svg">
<g clip-path="url(#clip0_25_3402)">
<path fill-rule="evenodd" clip-rule="evenodd" d="M338.227 323.058C338.227 320.417 335.993 318.276 333.238 318.276H323.198C320.443 318.276 318.209 320.417 318.209 323.058V352.207C318.209 354.848 320.443 356.988 323.198 356.988H333.238C335.993 356.988 338.227 354.848 338.227 352.207V323.058Z" fill="#EEEEEE"/>
<path fill-rule="evenodd" clip-rule="evenodd" d="M364.652 309.605C364.652 308.338 364.123 307.121 363.189 306.225C362.256 305.328 360.991 304.824 359.663 304.824H349.622C348.303 304.824 347.029 305.328 346.096 306.225C345.163 307.121 344.633 308.338 344.633 309.605V352.207C344.633 353.476 345.163 354.692 346.096 355.588C347.029 356.485 348.303 356.988 349.622 356.988H359.663C360.991 356.988 362.256 356.485 363.189 355.588C364.123 354.692 364.652 353.476 364.652 352.207V309.605Z" fill="#EEEEEE"/>
<path fill-rule="evenodd" clip-rule="evenodd" d="M391.078 267.72C391.078 266.452 390.548 265.237 389.615 264.34C388.682 263.443 387.417 262.938 386.089 262.938H376.048C374.729 262.938 373.455 263.443 372.522 264.34C371.589 265.237 371.059 266.452 371.059 267.72V352.205C371.059 353.474 371.589 354.689 372.522 355.586C373.455 356.483 374.729 356.986 376.048 356.986H386.089C387.417 356.986 388.682 356.483 389.615 355.586C390.548 354.689 391.078 353.474 391.078 352.205V267.72Z" fill="#EEEEEE"/>
<path fill-rule="evenodd" clip-rule="evenodd" d="M417.504 302.187C417.504 300.92 416.974 299.703 416.041 298.807C415.089 297.902 413.826 297.4 412.515 297.406H402.474C401.155 297.406 399.881 297.91 398.948 298.807C398.014 299.703 397.485 300.92 397.485 302.187V352.206C397.485 353.475 398.014 354.69 398.948 355.587C399.9 356.49 401.163 356.991 402.474 356.987H412.515C413.843 356.987 415.108 356.484 416.041 355.587C416.974 354.69 417.504 353.475 417.504 352.206V302.187Z" fill="#EEEEEE"/>
<path fill-rule="evenodd" clip-rule="evenodd" d="M443.929 292.026C443.929 290.757 443.4 289.542 442.467 288.645C441.534 287.748 440.268 287.244 438.94 287.244H428.9C427.581 287.244 426.307 287.748 425.373 288.645C424.44 289.542 423.911 290.757 423.911 292.026V352.207C423.911 353.475 424.44 354.692 425.373 355.589C426.307 356.485 427.581 356.988 428.9 356.988H438.94C440.268 356.988 441.534 356.485 442.467 355.589C443.4 354.692 443.929 353.475 443.929 352.207V292.026Z" fill="#EEEEEE"/>
<path fill-rule="evenodd" clip-rule="evenodd" d="M110.325 356.993C107.733 349.411 83.0105 338.917 76.69 335.221C47.8642 318.343 17.5196 292.083 22.958 254.873C31.1118 199.12 102.908 193.929 137.671 162.11C156.072 145.268 155.543 123.342 159.992 100.624C164.61 77.0598 175.072 55.513 197.071 43.9156C206.744 38.8152 217.759 35.846 228.689 35.4964C268.875 34.2112 298.974 66.1977 311.385 101.611C318.496 121.895 322.569 148.671 339.782 163.491C359.349 180.34 398.415 159.972 409.614 188.009C414.37 199.926 408.747 214.385 400.893 223.604C384.938 242.321 360.937 249.496 341.454 263.489C313.011 283.924 304.674 324.443 310.963 356.993H110.325Z" fill="#EEEEEE"/>
<path d="M424.001 155.983C458.422 155.983 486.325 128.037 486.325 93.5634C486.325 59.0899 458.422 31.1436 424.001 31.1436C389.581 31.1436 361.678 59.0899 361.678 93.5634C361.678 128.037 389.581 155.983 424.001 155.983Z" fill="#EEEEEE"/>
<path fill-rule="evenodd" clip-rule="evenodd" d="M86.2124 147.631L94.6387 126.268C94.6387 126.268 210.564 160.399 241.988 210.015C275.775 263.361 260.836 322.029 208.649 340.944C156.433 359.871 86.6831 331.943 52.8738 278.561L61.3439 257.183L91.0929 264.709C111.238 296.515 152.795 313.155 183.906 301.879C215.003 290.607 223.9 255.652 203.769 223.868C197.629 214.174 189.498 205.889 180.286 199.373C159.267 184.51 132.584 178.857 110.955 186.697L86.2124 147.631Z" fill="#4B7686"/>
<path fill-rule="evenodd" clip-rule="evenodd" d="M229.943 146.993L223.462 237.468L209.097 260.586L97.8389 189.089L78.617 127.883L125.455 92.2529L229.943 146.993Z" fill="#85B1C2"/>
<path fill-rule="evenodd" clip-rule="evenodd" d="M94.6788 126.254C146.894 107.328 216.642 135.256 250.452 188.638C284.238 241.983 269.299 300.65 217.113 319.565C164.898 338.491 95.1496 310.564 61.3408 257.183L99.5592 243.33C119.704 275.136 161.26 291.776 192.371 280.5C223.467 269.229 232.364 234.274 212.234 202.49C192.089 170.685 150.532 154.043 119.421 165.319L94.6788 126.254Z" fill="#6993A4"/>
<path fill-rule="evenodd" clip-rule="evenodd" d="M295.883 244.591L217.696 237.667L105.883 179.066L78.5983 127.884L167.661 46.53L295.883 244.591Z" fill="#A6D2E4"/>
<path fill-rule="evenodd" clip-rule="evenodd" d="M20.4252 245.821C7.25435 206.496 18.9078 168.97 50.3919 149.295L123.67 202.452L118.373 218.194C113.269 221.386 108.179 233.046 110.322 239.424L20.4252 245.821Z" fill="#001320"/>
<path fill-rule="evenodd" clip-rule="evenodd" d="M28.8883 224.442C15.7174 185.118 27.3709 147.592 58.855 127.916L123.635 202.389C118.532 205.58 116.643 211.668 118.785 218.046L28.8883 224.442Z" fill="#023341"/>
<path fill-rule="evenodd" clip-rule="evenodd" d="M165.967 153.634C170.295 170.249 204.572 251.905 228.391 253.047C245.954 253.887 272.034 205.291 272.034 205.291C271.875 202.962 283.205 188.763 283.925 184.922C285.188 178.184 279.129 171.85 274.357 171.199C270.985 170.747 267.427 180.134 267.123 178.544C265.518 170.132 264.771 169.055 262.478 168.304C259.932 167.465 258.428 191.236 256.148 192.527L230.91 197.58C230.91 197.58 224.051 164.63 202.429 153.36C191.009 147.404 162.901 141.859 165.967 153.634Z" fill="#FAD8BA"/>
<path fill-rule="evenodd" clip-rule="evenodd" d="M175.933 201.624C185.94 201.578 195.313 200.293 205.071 197.874C214.715 195.48 227.075 191.947 232.422 182.642C236.479 175.581 233.498 167.317 229.816 160.762C221.516 145.981 206.122 134.457 189.214 131.967C185.066 131.353 180.781 131.363 176.662 132.21C173.224 132.922 169.932 134.219 166.929 136.044C164.559 137.481 162.403 139.247 160.526 141.288C148.639 154.279 166.03 189.295 175.933 201.624Z" fill="#F25C05"/>
<path fill-rule="evenodd" clip-rule="evenodd" d="M185.698 149.795C179.891 144.492 125.023 136.318 115.091 154.103C105.151 171.887 126.077 256.502 126.077 256.502L207.878 216.927C207.878 216.927 197.055 160.169 185.698 149.795Z" fill="#F25C05"/>
<path fill-rule="evenodd" clip-rule="evenodd" d="M115.055 215.696C119.32 216.429 146.523 186.247 146.523 186.247C146.523 186.247 151.599 196.044 150.132 209.948C149.807 213.021 151.061 216.782 154.465 217.686C159.122 218.927 169.026 209.141 175.5 207.179C185.95 204.017 194.438 204.024 194.13 210.845C193.772 218.613 180.047 227.183 174.443 231.568C162.961 240.543 148.971 247.27 135.946 253.703C131.536 255.881 125.104 259.657 119.986 257.811C112.206 255.002 111.822 241.639 112.018 235.054C112.206 228.508 113.443 222.024 115.055 215.696Z" fill="#D23F00"/>
<path fill-rule="evenodd" clip-rule="evenodd" d="M283.816 282.805C299.642 289.418 309.641 325.009 314.969 334.504C318.923 341.568 308.186 344.657 308.186 344.657C290.376 335.896 268.341 314.901 264.279 304.592C261.761 298.202 276.725 279.838 283.816 282.805Z" fill="#F29F05"/>
<path fill-rule="evenodd" clip-rule="evenodd" d="M312.972 325.913C306.354 331.109 286.57 331.86 275.79 298.239C274.079 292.894 275.46 287.002 277.072 280.336C278.179 275.795 267.416 288.137 265.779 291.247C261.372 299.639 262.188 307.787 264.076 314.433C268.114 328.668 278.95 340.187 291.627 345.924C297.218 348.449 304.233 350.574 311.846 348.264C322.559 345.008 328.016 333.511 328.478 324.202C329.265 308.319 322.465 334.382 312.972 325.913Z" fill="#B16800"/>
<path fill-rule="evenodd" clip-rule="evenodd" d="M242.754 287.98C260.59 291.372 280.159 324.798 288.085 333.179C293.971 339.415 283.871 344.658 283.871 344.658C263.212 338.01 235.502 323.064 228.648 313.617C224.4 307.762 234.761 286.456 242.754 287.98Z" fill="#F29F05"/>
<path fill-rule="evenodd" clip-rule="evenodd" d="M283.784 325.029C278.429 331.539 258.514 336.277 238.669 304.969C235.518 299.992 235.364 293.845 235.242 286.881C235.167 282.136 227.487 296.598 226.644 300.025C224.381 309.271 227.364 317.221 231.04 323.459C238.907 336.82 252.967 346.106 267.372 349.263C273.723 350.649 281.417 351.351 288.546 347.515C298.577 342.111 301.087 329.561 299.096 320.198C295.699 304.221 295.673 331.548 283.784 325.029Z" fill="#B16800"/>
<path fill-rule="evenodd" clip-rule="evenodd" d="M200.733 282.625C144.91 284.378 154.885 246.142 167.147 232.916C179.408 219.691 249.788 193.178 274.304 203.271C298.821 213.363 314.246 293.471 314.246 293.471C300.845 301.965 288.946 312.236 258.794 293.471L240.761 271.191C240.761 271.191 217.412 282.101 200.733 282.625Z" fill="#03222F"/>
<path fill-rule="evenodd" clip-rule="evenodd" d="M173.119 283.842C117.296 285.596 124.015 246.345 135.628 232.917C147.242 219.489 217.073 192.399 242.786 203.272C268.5 214.143 289.917 298.148 289.917 298.148C276.522 306.641 255.469 321.259 225.309 302.492L215.006 279.237C215.006 279.237 189.792 283.319 173.119 283.842Z" fill="#023341"/>
<path fill-rule="evenodd" clip-rule="evenodd" d="M182.103 203.037C170.092 210.9 159.293 222.713 153.364 235.838C149.961 243.367 149.039 251.865 158.516 254.938C160.564 255.6 162.756 255.931 164.888 256.044C170.578 256.346 176.396 254.979 181.94 253.872C188.15 252.63 194.693 251.608 200.758 249.728C203.821 248.776 206.158 246.87 208.563 244.825C209.05 244.411 210.551 242.655 211.319 243.004C212.462 243.525 212.555 247.559 212.914 248.614C214.099 252.196 216.65 255.342 219.533 257.703C227.961 264.589 239.264 266.007 247.837 272.426C258.158 280.16 264.471 290.284 275.969 297.385C301.509 313.165 313.741 305.848 317.401 305.869C325.914 305.929 328.797 300.86 325.445 306.441C322.084 312.029 315.157 315.267 309.169 317.061C294.804 321.341 278.375 319.009 264.47 314.207C254.575 310.79 244.783 307.167 234.572 304.737C220.907 301.482 206.891 299.858 192.91 298.72C170.732 296.915 145.738 298.018 125.061 288.619C120.625 286.602 116.454 283.91 112.871 280.6C110.517 278.428 108.401 275.948 106.755 273.197C95.2562 254.024 156.299 207.67 182.103 203.037Z" fill="#03222F"/>
<path fill-rule="evenodd" clip-rule="evenodd" d="M281.708 170.488C282.89 165.943 279.997 162.908 275.256 163.708L210.585 174.622C205.844 175.422 201.034 179.757 199.852 184.302L190.125 221.699C188.943 226.244 191.836 229.278 196.577 228.478L261.248 217.564C265.989 216.764 270.798 212.43 271.98 207.886L281.708 170.488Z" fill="#6993A4"/>
<path fill-rule="evenodd" clip-rule="evenodd" d="M283.677 172.528C284.86 167.983 281.967 164.948 277.226 165.748L212.555 176.662C207.813 177.462 203.004 181.797 201.822 186.342L192.095 223.739C190.913 228.284 193.805 231.318 198.547 230.518L263.218 219.604C267.959 218.804 272.768 214.47 273.95 209.926L283.677 172.528Z" fill="#A6D2E4"/>
<path fill-rule="evenodd" clip-rule="evenodd" d="M114.513 154.922C108.336 170.938 88.5375 257.266 107.202 272.14C120.966 283.104 181.297 236.741 181.297 236.741C182.525 234.757 200.001 229.869 202.825 227.174C207.78 222.446 206.556 213.759 203.063 210.437C200.59 208.095 192.228 213.629 192.908 212.161C196.511 204.396 196.533 203.084 195.114 201.126C193.533 198.96 178.45 217.368 175.847 217.082L141.593 228.606C141.593 228.606 155.241 197.853 144.266 176.049C138.47 164.53 118.891 143.573 114.513 154.922Z" fill="#FAD8BA"/>
<path fill-rule="evenodd" clip-rule="evenodd" d="M131.194 214.36C130.933 217.155 114.572 212.465 108.248 235.653C105.652 245.178 107.597 256.197 112.25 260.264C118.529 265.759 128.962 261.368 135.545 258.863C148.129 254.084 161.099 247.846 171.646 239.372C174.353 237.196 176.724 234.665 178.842 231.92C179.813 230.658 180.812 228.267 182.194 227.435C183.488 226.66 184.918 228.557 185.985 229.102C187.915 230.076 189.45 230.085 191.545 229.582C196.665 228.372 201.479 226.147 204.697 221.852C206.048 220.054 206.863 217.952 208.16 216.129C208.654 215.429 209.713 214.654 210.097 215.891C210.866 218.39 209.611 221.862 208.817 224.187C205.933 232.623 199.256 239.639 192.751 245.45C176.401 260.05 155.471 270.887 134.631 277.369C124.297 280.59 112.316 282.82 101.677 279.649C81.6885 273.704 80.4373 247.733 82.7346 230.629C83.2684 226.646 84.0823 222.712 85.1788 218.853C86.3748 214.639 87.9258 210.524 89.9192 206.624C94.5768 197.513 103.145 188.37 114.313 189.595C116.963 189.893 128.803 213.212 131.194 214.36Z" fill="#D7B699"/>
<path fill-rule="evenodd" clip-rule="evenodd" d="M94.6512 199.698C102.796 205.52 111.147 209.965 120.472 213.716C129.689 217.422 141.775 221.793 151.533 217.376C158.938 214.024 161.335 205.574 162.168 198.102C164.047 181.25 158.275 162.889 146.01 150.968C143.004 148.042 139.522 145.54 135.688 143.816C132.483 142.38 129.057 141.504 125.558 141.227C122.798 141.005 120.021 141.174 117.309 141.731C100.097 145.309 93.8017 183.898 94.6512 199.698Z" fill="#F25C05"/>
<path fill-rule="evenodd" clip-rule="evenodd" d="M158.44 127.399L144.508 128.27C145.53 133.729 144.944 138.77 142.908 143.432C154.637 162.736 162.118 163.472 162.637 143.395C156.547 139.646 157.242 132.357 158.44 127.399Z" fill="#FAD8BA"/>
<path fill-rule="evenodd" clip-rule="evenodd" d="M160.088 134.566C158.749 136.92 156.953 139.102 154.856 140.821C153.283 142.109 151.539 143.33 149.71 144.205C148.016 145.015 146.067 145.641 144.176 145.343C140.3 144.736 138.403 140.407 138.604 136.848C139.03 129.358 146.506 123.157 153.899 125.259C156.185 125.909 158.472 132.841 160.088 134.566Z" fill="#D7B699"/>
<path fill-rule="evenodd" clip-rule="evenodd" d="M150.253 105.357C157.094 105.357 162.643 111.814 162.643 119.767C162.643 127.72 161.748 136.905 154.907 136.905C148.067 136.905 137.863 127.72 137.863 119.767C137.863 111.814 143.412 105.357 150.253 105.357Z" fill="#FAD8BA"/>
<path fill-rule="evenodd" clip-rule="evenodd" d="M145.773 115.786C146.27 115.134 148.497 116.635 149.679 116.805C154.017 117.429 158.834 116.522 162.189 113.55C163.704 112.205 163.947 109.956 163.749 107.856C163.28 102.845 157.868 99.147 153.052 99.5336C147.568 99.9735 144.168 104.639 140.407 108.029C138.396 109.841 136.015 111.495 134.905 114.06C133.101 118.235 136.393 121.578 138.531 124.776C139.262 125.868 140.227 127.928 141.742 128.038C142.815 128.116 142.743 126.958 142.662 126.199C142.518 124.947 141.706 121.442 143.654 121.041C145.07 120.748 145.683 122.96 146.035 123.903C146.188 124.309 146.441 125.166 147.027 125.062C147.505 124.977 147.686 124.335 147.722 123.927C147.812 122.791 147.289 121.666 146.73 120.713C146.27 119.949 145.286 116.438 145.773 115.786Z" fill="#001320"/>
<path fill-rule="evenodd" clip-rule="evenodd" d="M466.34 71.6773C466.34 68.2541 464.982 64.9712 462.558 62.5511C460.15 60.1304 456.867 58.7705 453.453 58.7705H328.731C325.309 58.7705 322.034 60.1304 319.618 62.5511C317.202 64.9712 315.844 68.2541 315.844 71.6773V233.05C315.844 236.473 317.202 239.756 319.618 242.176C322.034 244.597 325.309 245.957 328.731 245.957H453.453C456.867 245.957 460.15 244.597 462.558 242.176C464.982 239.756 466.34 236.473 466.34 233.05V71.6773Z" fill="#6993A4"/>
<path fill-rule="evenodd" clip-rule="evenodd" d="M416.663 78.2686C398.307 78.2686 383.419 93.174 383.419 111.561C383.419 129.935 398.315 144.853 416.663 144.853C435.019 144.853 449.899 129.947 449.899 111.561H433.285C433.285 120.754 425.845 128.207 416.663 128.207C407.489 128.207 400.041 120.748 400.041 111.561C400.041 102.368 407.481 94.9148 416.663 94.9148V78.2686Z" fill="white"/>
<path fill-rule="evenodd" clip-rule="evenodd" d="M448.894 103.423C447.427 97.5935 444.411 92.2706 440.166 88.0194C435.921 83.7682 430.607 80.7472 424.786 79.2773L420.728 95.4189C423.638 96.1539 426.295 97.6644 428.417 99.79C430.538 101.916 432.046 104.577 432.779 107.492L448.894 103.423Z" fill="#A6D2E4"/>
<path fill-rule="evenodd" clip-rule="evenodd" d="M352.787 98.2224C352.787 95.5504 350.625 93.3848 347.954 93.3848H333.746C331.083 93.3848 328.92 95.5504 328.92 98.2224V98.5865C328.92 101.258 331.083 103.423 333.746 103.423H347.954C350.625 103.423 352.787 101.258 352.787 98.5865V98.2224Z" fill="white"/>
<path fill-rule="evenodd" clip-rule="evenodd" d="M374.061 115.027C374.061 113.453 372.787 112.177 371.217 112.177H331.765C330.194 112.177 328.921 113.453 328.921 115.027V115.028C328.921 116.602 330.194 117.878 331.765 117.878H371.217C372.787 117.878 374.061 116.602 374.061 115.028V115.027Z" fill="white"/>
<path fill-rule="evenodd" clip-rule="evenodd" d="M374.061 123.485C374.061 121.911 372.787 120.635 371.217 120.635H331.765C330.194 120.635 328.921 121.911 328.921 123.485V123.486C328.921 125.06 330.194 126.336 331.765 126.336H371.217C372.787 126.336 374.061 125.06 374.061 123.486V123.485Z" fill="white"/>
<path fill-rule="evenodd" clip-rule="evenodd" d="M374.061 163.202C374.061 161.919 373.551 160.688 372.646 159.782C371.74 158.874 370.509 158.364 369.235 158.364H333.746C331.086 158.364 328.921 160.53 328.921 163.202V163.566C328.921 164.848 329.43 166.079 330.336 166.986C331.242 167.893 332.473 168.403 333.746 168.403H369.235C371.896 168.403 374.061 166.237 374.061 163.566V163.202Z" fill="white"/>
<path fill-rule="evenodd" clip-rule="evenodd" d="M446.585 187.603C446.585 186.822 446.29 186.073 445.737 185.52C445.184 184.968 444.409 184.657 443.635 184.657H331.872C331.097 184.657 330.323 184.968 329.77 185.52C329.253 186.073 328.921 186.822 328.921 187.603V187.606C328.921 188.387 329.253 189.136 329.77 189.689C330.323 190.241 331.097 190.551 331.872 190.551H443.635C444.409 190.551 445.184 190.241 445.737 189.689C446.29 189.136 446.585 188.387 446.585 187.606V187.603Z" fill="white"/>
<path fill-rule="evenodd" clip-rule="evenodd" d="M446.585 199.507C446.585 198.726 446.29 197.977 445.737 197.424C445.184 196.872 444.409 196.562 443.635 196.562H331.872C331.097 196.562 330.323 196.872 329.77 197.424C329.253 197.977 328.921 198.726 328.921 199.507V199.51C328.921 200.291 329.253 201.041 329.77 201.593C330.323 202.145 331.097 202.456 331.872 202.456H443.635C444.409 202.456 445.184 202.145 445.737 201.593C446.29 201.041 446.585 200.291 446.585 199.51V199.507Z" fill="white"/>
<path fill-rule="evenodd" clip-rule="evenodd" d="M446.585 211.41C446.585 210.63 446.29 209.88 445.737 209.328C445.184 208.775 444.409 208.465 443.635 208.465H331.872C331.097 208.465 330.323 208.775 329.77 209.328C329.253 209.88 328.921 210.63 328.921 211.41V211.414C328.921 212.195 329.253 212.944 329.77 213.496C330.323 214.049 331.097 214.359 331.872 214.359H443.635C444.409 214.359 445.184 214.049 445.737 213.496C446.29 212.944 446.585 212.195 446.585 211.414V211.41Z" fill="white"/>
<path fill-rule="evenodd" clip-rule="evenodd" d="M266.31 26.0954L266.158 79.0095L280.403 79.0506L251.789 121.936L223.423 78.8862L237.668 78.9273L237.82 26.0132L266.31 26.0954Z" fill="#F29F05"/>
<path d="M266.264 89.7784C266.258 91.9536 265.666 93.7177 264.494 95.0699C263.319 96.422 261.781 97.0955 259.887 97.0901C257.963 97.0845 256.417 96.4103 255.25 95.0678C254.083 93.7248 253.505 91.9087 253.511 89.6198L253.516 87.8663C253.522 85.6747 254.111 83.9146 255.286 82.5866C256.461 81.259 257.995 80.5977 259.893 80.6032C261.802 80.6087 263.344 81.2829 264.519 82.6254C265.694 83.9684 266.276 85.7764 266.269 88.0489L266.264 89.7784ZM262.395 87.8919C262.398 86.9176 262.167 86.1335 261.705 85.5397C261.244 84.9458 260.635 84.6477 259.882 84.6456C259.128 84.6434 258.529 84.942 258.083 85.5415C257.637 86.1409 257.412 86.9441 257.409 87.9507L257.404 89.7528C257.401 90.7266 257.621 91.5148 258.064 92.1168C258.507 92.7188 259.119 93.0209 259.899 93.0231C260.637 93.0253 261.236 92.7307 261.698 92.1395C262.155 91.5483 262.387 90.7251 262.39 89.6695L262.395 87.8919ZM252.277 69.7926C252.27 71.9847 251.674 73.7483 250.484 75.0845C249.298 76.4202 247.763 77.0856 245.877 77.0802C243.968 77.0747 242.426 76.4086 241.251 75.082C240.08 73.7554 239.498 71.9315 239.505 69.6099L239.51 67.8564C239.516 65.6807 240.097 63.9251 241.257 62.5889C242.42 61.2531 243.962 60.5877 245.887 60.5933C247.822 60.5988 249.375 61.2772 250.542 62.6279C251.706 63.9786 252.288 65.7666 252.282 67.9904L252.277 69.7926ZM248.407 67.882C248.41 66.9891 248.171 66.2255 247.687 65.5906C247.203 64.9562 246.602 64.6378 245.875 64.6357C244.233 64.6309 243.409 65.7246 243.403 67.9162L243.398 69.767C243.395 70.7413 243.622 71.5253 244.076 72.1192C244.53 72.7131 245.135 73.0111 245.889 73.0132C246.645 73.0154 247.249 72.7209 247.71 72.1297C248.167 71.5384 248.399 70.7311 248.402 69.7083L248.407 67.882ZM258.793 63.7718L261.631 65.6308L247.205 93.3033L244.363 91.4443L258.793 63.7718Z" fill="white"/>
<path fill-rule="evenodd" clip-rule="evenodd" d="M100.986 356.121H452.184V358.431H100.986V356.121Z" fill="#03222F"/>
<path fill-rule="evenodd" clip-rule="evenodd" d="M51.6329 356.411H89.2616V358.866H51.6329V356.411Z" fill="#03222F"/>
<path fill-rule="evenodd" clip-rule="evenodd" d="M423.419 356.461C423.184 356.911 422.649 357.107 422.18 356.918C421.953 356.826 421.768 356.652 421.662 356.431C421.556 356.21 421.536 355.958 421.606 355.723C422.03 354.149 422.545 352.601 423.053 351.086C426.829 339.82 432.267 329.704 441.905 322.439C446.587 318.911 452.938 315.607 459.008 316.441C461.884 316.835 465.092 318.497 464.949 321.826C464.701 327.778 457.574 332.427 453.218 335.32C444.709 340.976 430.37 347.004 423.419 356.461Z" fill="#6993A4"/>
<path fill-rule="evenodd" clip-rule="evenodd" d="M462.337 313.379C463.151 315.413 462.807 317.822 462.384 319.901C462.008 321.776 461.483 323.683 460.519 325.346C457.025 331.357 449.676 333.883 443.174 334.872C440.236 335.319 435.528 335.617 433.224 333.201C431.642 331.537 432.786 329.936 432.88 328.069C432.903 327.575 432.511 327.457 432.096 327.583C429.848 328.242 427.92 331.451 426.714 333.232C423.095 338.607 420.783 345.111 419.828 351.506C419.491 353.758 418.989 356.905 420.439 358.898C422.256 361.401 426.393 359.486 428.5 358.498C429.111 358.207 429.722 357.901 430.326 357.587C431.023 357.226 431.72 356.85 432.402 356.473C433.475 355.885 434.525 355.257 435.567 354.629C441.936 350.816 472.372 334.974 476.383 327.481C480.567 319.658 469.568 316.033 462.337 313.379Z" fill="#477282"/>
<path fill-rule="evenodd" clip-rule="evenodd" d="M414.462 355.799C414.606 356.062 414.842 356.261 415.124 356.36C415.406 356.459 415.715 356.449 415.99 356.333C416.266 356.217 416.489 356.003 416.616 355.733C416.744 355.462 416.767 355.153 416.681 354.867C416.266 353.322 415.757 351.807 415.262 350.321C411.05 337.753 404.984 326.468 394.233 318.364C389.01 314.429 381.925 310.743 375.153 311.673C371.945 312.112 368.366 313.967 368.526 317.68C368.803 324.319 376.753 329.506 381.612 332.734C390.945 338.941 406.577 345.549 414.462 355.799Z" fill="#6993A4"/>
<path fill-rule="evenodd" clip-rule="evenodd" d="M371.44 308.258C370.531 310.527 370.916 313.214 371.388 315.533C371.807 317.625 372.393 319.752 373.468 321.608C377.365 328.313 385.563 331.131 392.817 332.234C396.094 332.733 401.347 333.066 403.916 330.37C405.682 328.514 404.406 326.729 404.301 324.645C404.274 324.094 404.711 323.963 405.175 324.103C407.683 324.838 409.833 328.418 411.179 330.405C415.216 336.401 417.795 343.657 418.861 350.791C419.237 353.303 419.796 356.813 418.179 359.036C416.151 361.828 411.537 359.693 409.186 358.59C408.504 358.266 407.823 357.925 407.15 357.574C406.372 357.172 405.594 356.752 404.834 356.331C403.636 355.675 402.465 354.975 401.303 354.274C394.198 350.02 360.245 332.348 355.77 323.989C351.103 315.262 363.373 311.218 371.44 308.258Z" fill="#477282"/>
<path fill-rule="evenodd" clip-rule="evenodd" d="M417.961 355.468C417.89 355.889 418.158 356.287 418.567 356.395C418.976 356.503 419.402 356.274 419.537 355.872C420.679 352.473 421.543 348.964 422.377 345.555C426.344 329.358 427.478 313.273 421.493 297.407C418.584 289.701 413.528 281.004 405.703 277.423C401.997 275.726 396.945 275.282 394.62 279.337C390.452 286.579 395.419 297.455 398.417 304.163C404.726 318.299 418.748 338.045 417.961 355.468Z" fill="#6993A4"/>
<path fill-rule="evenodd" clip-rule="evenodd" d="M404.051 271.291C401.56 273.089 400.163 276.204 399.106 278.987C398.146 281.493 397.34 284.148 397.236 286.845C396.875 296.6 403.697 305.126 410.668 311.192C413.818 313.933 419.179 317.83 423.722 316.699C426.846 315.918 426.69 313.159 427.978 310.875C428.321 310.271 428.873 310.427 429.272 310.888C431.445 313.361 431.325 318.616 431.421 321.636C431.685 330.731 429.55 340.182 425.89 348.482C424.601 351.405 422.837 355.512 419.624 356.784C415.592 358.383 412.121 353 410.362 350.242C409.855 349.438 409.36 348.615 408.88 347.789C408.323 346.837 407.778 345.865 407.252 344.906C406.42 343.4 405.646 341.866 404.88 340.338C400.184 331.024 375.959 289.337 376.819 277.436C377.721 265.013 393.485 268.995 404.051 271.291Z" fill="#477282"/>
</g>
<defs>
<clipPath id="clip0_25_3402">
<rect width="508" height="375" fill="white"/>
</clipPath>
</defs>
</svg>
