<svg width="437" height="409" viewBox="0 0 437 409" fill="none" xmlns="http://www.w3.org/2000/svg">
<g clip-path="url(#clip0_25_593)">
<path d="M225.685 271.384C214.393 245.763 216.063 203.798 221.296 200.304C227.054 196.47 236.17 216.142 245.296 210.387C254.423 204.632 260.656 192.151 252.976 172.479C245.296 152.807 235.219 165.763 228.015 170.538C220.811 175.313 215.053 171.023 216.5 153.748C217.558 141.005 222.529 117.586 225.073 106.193C226.219 106.688 227.364 107.163 228.49 107.716C205.937 97.157 180.975 93.799 170.422 97.157C159.868 100.515 161.781 101.476 167.053 113.947C178.073 139.967 136.354 148.886 124.334 128.844C117.14 116.849 127.723 110.113 124.839 101.476C121.956 92.8382 68.6833 102.912 61.9648 106.755C61.9648 106.755 74.9163 145.576 73.0037 159.532C71.091 173.488 64.3628 179.69 54.2851 169.606C44.2073 159.523 31.246 168.636 30.7606 185.445C30.2752 202.254 33.1587 215.667 44.683 211.833C56.2074 208 65.324 194.083 69.159 211.833C72.994 229.584 66.2463 252.595 62.4405 268.929C62.4405 268.929 92.6835 281.885 106.596 280.925C120.509 279.964 129.16 279.488 124.839 270.851C120.519 262.213 113.315 256.458 118.596 246.859C123.878 237.261 144.995 238.222 156.034 240.619C167.072 243.016 171.878 251.178 168.519 260.291C165.16 269.405 159.393 278.527 169.956 280.439C179.908 282.254 205.218 278.091 230.151 269.977C228.675 270.453 227.141 270.919 225.685 271.384Z" stroke="#393939" stroke-miterlimit="10"/>
<path d="M234.733 268.443C233.257 268.948 231.772 269.414 230.296 269.928C231.772 269.443 233.257 268.948 234.733 268.443Z" stroke="#393939" stroke-miterlimit="10"/>
<path d="M409.929 165.277C400.812 165.277 400.327 172.479 390.724 171.042C381.122 169.606 380.171 147.527 390.249 108.667C390.249 108.667 379.21 116.819 354.248 117.305C329.287 117.79 319.209 114.898 325.452 105.785C331.695 96.6714 336.491 89.4702 331.209 82.2786C325.928 75.0871 300.491 76.0382 292.374 82.2786C284.258 88.5191 289.976 95.7106 295.733 103.863C301.491 112.015 294.762 116.819 285.17 117.305C275.578 117.79 251.092 118.275 228.529 107.706C227.403 107.172 226.257 106.677 225.111 106.182C222.568 117.605 217.597 141.024 216.539 153.738C215.092 171.013 220.849 175.332 228.053 170.528C235.257 165.724 245.335 152.777 253.015 172.469C260.694 192.161 254.451 204.612 245.335 210.377C236.218 216.142 227.053 196.47 221.315 200.303C216.082 203.797 214.412 245.762 225.704 271.384C228.723 270.414 231.743 269.443 234.752 268.472C261.151 259.35 287.549 255.031 292.355 261.271C297.161 267.512 295.267 266.551 288.995 276.149C282.724 285.748 283.228 293.9 293.792 298.694C304.355 303.489 330.268 302.576 332.627 291.503C334.986 280.429 321.588 274.228 327.831 263.668C334.074 253.109 389.278 268.443 389.278 268.443C389.278 268.443 376.802 226.216 381.598 212.299C386.394 198.382 390.249 201.778 397.928 207.019C405.608 212.26 415.686 211.823 419.531 196.47C423.375 181.116 419.045 165.277 409.929 165.277Z" stroke="#393939" stroke-miterlimit="10"/>
<path d="M381.389 63.5147C393.609 57.7486 398.838 43.1724 393.07 30.9577C387.302 18.743 372.72 13.5153 360.501 19.2814C348.282 25.0474 343.052 39.6236 348.82 51.8383C354.588 64.053 369.17 69.2807 381.389 63.5147Z" fill="#00EA48" stroke="#393939" stroke-miterlimit="10"/>
<path d="M373.004 61.4403C384.056 60.3064 392.096 50.4311 390.962 39.3832C389.827 28.3353 379.948 20.2984 368.896 21.4322C357.844 22.5661 349.804 32.4415 350.939 43.4894C352.073 54.5373 361.952 62.5742 373.004 61.4403Z" fill="white" stroke="#393939" stroke-miterlimit="10"/>
<path d="M377.242 54.6591C384.548 51.1846 387.654 42.447 384.178 35.143C380.702 27.839 371.962 24.7345 364.655 28.209C357.348 31.6834 354.242 40.4211 357.718 47.7251C361.194 55.0291 369.935 58.1335 377.242 54.6591Z" fill="#00EA48" stroke="#393939" stroke-miterlimit="10"/>
<path d="M380.192 41.4199C380.192 39.5906 379.649 37.8024 378.632 36.2814C377.616 34.7605 376.17 33.575 374.48 32.8749C372.789 32.1749 370.929 31.9917 369.134 32.3486C367.339 32.7055 365.691 33.5864 364.397 34.8799C363.103 36.1734 362.221 37.8214 361.864 39.6155C361.507 41.4097 361.691 43.2693 362.391 44.9594C363.091 46.6494 364.277 48.0939 365.799 49.1102C367.32 50.1265 369.109 50.669 370.939 50.669C372.154 50.6702 373.358 50.4319 374.481 49.9675C375.604 49.5032 376.625 48.8219 377.484 47.9628C378.344 47.1037 379.025 46.0836 379.49 44.9609C379.954 43.8382 380.193 42.6349 380.192 41.4199Z" fill="white" stroke="#393939" stroke-miterlimit="10"/>
<path d="M375.23 41.4195C375.232 40.5707 374.982 39.7404 374.512 39.0337C374.041 38.3269 373.372 37.7756 372.588 37.4494C371.804 37.1233 370.941 37.0369 370.108 37.2014C369.274 37.3658 368.509 37.7736 367.908 38.3731C367.307 38.9726 366.897 39.737 366.731 40.5694C366.564 41.4017 366.649 42.2647 366.973 43.0491C367.298 43.8336 367.848 44.5041 368.554 44.9759C369.26 45.4477 370.09 45.6995 370.939 45.6995C372.075 45.6995 373.165 45.2489 373.97 44.4465C374.774 43.6441 375.227 42.5555 375.23 41.4195Z" fill="#00EA48" stroke="#393939" stroke-miterlimit="10"/>
<path d="M372.715 34.7139L370.948 41.4201L377.278 42.808L372.715 34.7139Z" fill="#393939" stroke="#393939" stroke-miterlimit="10"/>
<path d="M375.414 38.4505L403.249 23.291" stroke="#393939" stroke-width="2" stroke-miterlimit="10"/>
<path d="M394.317 28.2793L394.735 21.0101L407.813 13.5371V21.835L394.317 28.2793Z" fill="#393939" stroke="#393939" stroke-miterlimit="10"/>
<path d="M413.424 25.7852L407.696 21.5635L394.259 28.6191L400.735 32.3653L413.424 25.7852Z" fill="#393939" stroke="#393939" stroke-miterlimit="10"/>
<path d="M242.684 42.9043H232.956V66.0609H242.684V42.9043Z" fill="#00EA48" stroke="#393939" stroke-miterlimit="10"/>
<path d="M257.024 35.8877H247.296V66.0611H257.024V35.8877Z" fill="#00EA48" stroke="#393939" stroke-miterlimit="10"/>
<path d="M271.364 42.9043H261.636V66.0609H271.364V42.9043Z" fill="#00EA48" stroke="#393939" stroke-miterlimit="10"/>
<path d="M285.714 34.3643H275.985V66.0614H285.714V34.3643Z" fill="#00EA48" stroke="#393939" stroke-miterlimit="10"/>
<path d="M300.053 22.7666H290.325V66.0614H300.053V22.7666Z" fill="#00EA48" stroke="#393939" stroke-miterlimit="10"/>
<path d="M287.141 4.42358L290.937 6.04434L265.121 30.8119L252.791 24.0863L233.257 35.9557V39.5369L252.869 27.619L265.626 34.5776L293.053 8.25712L294.519 12.1101L299.947 -0.477539L287.141 4.42358Z" fill="#393939" stroke="#393939" stroke-linecap="round" stroke-linejoin="round"/>
<path d="M173.88 65.0894C187.035 62.0027 195.195 48.8404 192.108 35.6906C189.02 22.5408 175.853 14.383 162.698 17.4696C149.543 20.5563 141.382 33.7186 144.47 46.8685C147.558 60.0183 160.725 68.1761 173.88 65.0894Z" fill="white" stroke="#393939" stroke-miterlimit="10"/>
<path d="M173.125 62.4807C184.835 59.8084 192.16 48.1531 189.487 36.4478C186.814 24.7425 175.154 17.4198 163.444 20.0921C151.735 22.7644 144.409 34.4197 147.083 46.125C149.756 57.8302 161.416 65.153 173.125 62.4807Z" fill="#00EA48" stroke="#393939" stroke-miterlimit="10"/>
<path d="M171.278 60.7858C181.987 59.1267 189.323 49.1038 187.663 38.399C186.003 27.6942 175.977 20.3612 165.268 22.0203C154.559 23.6794 147.223 33.7024 148.883 44.4072C150.543 55.112 160.57 62.4449 171.278 60.7858Z" fill="white" stroke="#393939" stroke-miterlimit="10"/>
<path d="M167.985 58.2002V55.0849C167.017 55.1157 166.054 54.9344 165.164 54.5539C164.273 54.1733 163.477 53.6026 162.83 52.8818C161.684 51.4972 161.069 49.43 160.985 46.6802L165.714 45.8747C165.729 46.8194 165.846 47.7597 166.063 48.6795C166.19 49.318 166.497 49.9071 166.947 50.3779C167.143 50.5638 167.375 50.7085 167.629 50.8035C167.882 50.8985 168.152 50.9419 168.422 50.9311C168.698 50.9627 168.976 50.9167 169.227 50.7984C169.477 50.6801 169.689 50.494 169.84 50.2614C170.106 49.7915 170.241 49.2583 170.228 48.7183C170.273 47.6899 169.998 46.6729 169.442 45.8067C168.826 44.9385 168.098 44.1553 167.277 43.4775L164.432 41.0415C163.812 40.4661 163.232 39.8501 162.694 39.1975C162.171 38.5548 161.758 37.8301 161.471 37.0526C161.15 36.1363 160.995 35.17 161.014 34.1993C160.969 33.311 161.105 32.4228 161.414 31.5886C161.723 30.7544 162.198 29.9916 162.811 29.3467C164.126 28.1423 165.833 27.4531 167.616 27.4057V24.3389H169.228V27.3281C170.268 27.344 171.288 27.6246 172.189 28.1433C172.914 28.6036 173.509 29.2417 173.917 29.997C174.326 30.7415 174.62 31.543 174.791 32.3748C174.964 33.1999 175.075 34.0369 175.121 34.8787L170.335 35.5775C170.324 34.8422 170.256 34.1088 170.131 33.3841C170.063 32.8423 169.855 32.3274 169.529 31.8895C169.362 31.7052 169.153 31.564 168.92 31.4778C168.687 31.3916 168.436 31.3631 168.189 31.3945C167.909 31.3902 167.632 31.4553 167.383 31.584C167.134 31.7127 166.921 31.901 166.762 32.1321C166.442 32.5935 166.272 33.1427 166.277 33.7044C166.233 34.5893 166.493 35.4626 167.015 36.1792C167.525 36.8282 168.086 37.4352 168.694 37.9941L171.471 40.4009C172.208 41.0728 172.893 41.7995 173.519 42.5749C174.145 43.364 174.652 44.2402 175.024 45.1759C175.421 46.2164 175.616 47.3233 175.597 48.4368C175.612 49.5563 175.362 50.6635 174.869 51.6686C174.39 52.6152 173.666 53.4161 172.772 53.9882C171.809 54.6037 170.708 54.9706 169.568 55.0558V58.2002H167.985Z" fill="#393939"/>
<path d="M88.994 22.3486H43.5664V65.0417H88.994V22.3486Z" fill="white" stroke="#393939" stroke-miterlimit="10"/>
<path d="M88.994 22.3486H43.5664V33.3252H88.994V22.3486Z" fill="#00EA48" stroke="#393939" stroke-linecap="round" stroke-linejoin="round"/>
<path d="M52.6928 39.4209H47.2559V44.8558H52.6928V39.4209Z" fill="#00EA48" stroke="#393939" stroke-linecap="round" stroke-linejoin="round"/>
<path d="M60.8481 39.4209H55.4111V44.8558H60.8481V39.4209Z" fill="#00EA48" stroke="#393939" stroke-linecap="round" stroke-linejoin="round"/>
<path d="M68.9936 39.4209H63.5566V44.8558H68.9936V39.4209Z" fill="#00EA48" stroke="#393939" stroke-linecap="round" stroke-linejoin="round"/>
<path d="M77.1489 39.4209H71.7119V44.8558H77.1489V39.4209Z" fill="#00EA48" stroke="#393939" stroke-linecap="round" stroke-linejoin="round"/>
<path d="M85.3051 39.4209H79.8682V44.8558H85.3051V39.4209Z" fill="#00EA48" stroke="#393939" stroke-linecap="round" stroke-linejoin="round"/>
<path d="M52.6928 47.9609H47.2559V53.3958H52.6928V47.9609Z" fill="#00EA48" stroke="#393939" stroke-linecap="round" stroke-linejoin="round"/>
<path d="M60.8481 47.9609H55.4111V53.3958H60.8481V47.9609Z" fill="#00EA48" stroke="#393939" stroke-linecap="round" stroke-linejoin="round"/>
<path d="M68.9936 47.9609H63.5566V53.3958H68.9936V47.9609Z" fill="#00EA48" stroke="#393939" stroke-linecap="round" stroke-linejoin="round"/>
<path d="M77.1489 47.9609H71.7119V53.3958H77.1489V47.9609Z" fill="#00EA48" stroke="#393939" stroke-linecap="round" stroke-linejoin="round"/>
<path d="M85.3051 47.9609H79.8682V53.3958H85.3051V47.9609Z" fill="#00EA48" stroke="#393939" stroke-linecap="round" stroke-linejoin="round"/>
<path d="M52.6928 56.502H47.2559V61.9369H52.6928V56.502Z" fill="#00EA48" stroke="#393939" stroke-linecap="round" stroke-linejoin="round"/>
<path d="M60.8481 56.502H55.4111V61.9369H60.8481V56.502Z" fill="#00EA48" stroke="#393939" stroke-linecap="round" stroke-linejoin="round"/>
<path d="M68.9936 56.502H63.5566V61.9369H68.9936V56.502Z" fill="#00EA48" stroke="#393939" stroke-linecap="round" stroke-linejoin="round"/>
<path d="M77.1489 56.502H71.7119V61.9369H77.1489V56.502Z" fill="#00EA48" stroke="#393939" stroke-linecap="round" stroke-linejoin="round"/>
<path d="M85.3051 56.502H79.8682V61.9369H85.3051V56.502Z" fill="#00EA48" stroke="#393939" stroke-linecap="round" stroke-linejoin="round"/>
<path d="M53.6638 15.3613H49.7803V25.8429H53.6638V15.3613Z" fill="#393939"/>
<path d="M63.3728 15.3613H59.4893V25.8429H63.3728V15.3613Z" fill="#393939"/>
<path d="M73.071 15.3613H69.1875V25.8429H73.071V15.3613Z" fill="#393939"/>
<path d="M82.78 15.3613H78.8965V25.8429H82.78V15.3613Z" fill="#393939"/>
<path d="M4.06106 341.261C6.16788 342.183 11.3233 342.067 11.3233 342.067C11.3233 342.067 10.2165 338.699 10.1194 338.495C8.98344 336.127 5.41059 332.226 2.49795 332.614C2.01632 332.693 1.55674 332.872 1.14912 333.141C0.741499 333.409 0.39498 333.76 0.132121 334.171C-0.130738 334.582 -0.304042 335.044 -0.37651 335.527C-0.448979 336.009 -0.418987 336.501 -0.288486 336.971C0.196955 338.98 2.26493 340.485 4.06106 341.261Z" fill="#00EA48"/>
<path d="M5.8378 356.198C8.02228 356.508 12.634 355.179 12.9932 355.072C13.7476 357.704 14.6785 360.281 15.7796 362.788C16.4107 364.253 17.1 365.699 17.7991 367.165C17.3816 366.544 17.0029 366 16.935 365.932C15.2262 363.943 10.7408 361.08 8.0417 362.273C7.59752 362.475 7.20091 362.768 6.87779 363.133C6.55468 363.499 6.31234 363.928 6.16663 364.393C6.02093 364.859 5.97512 365.35 6.03222 365.834C6.08932 366.318 6.24804 366.785 6.498 367.204C7.46888 369.018 9.88637 369.921 11.8281 370.202C13.7699 370.484 17.7408 369.436 18.7797 369.135C19.0515 369.688 19.3233 370.251 19.6049 370.804C20.935 373.454 22.2748 376.094 23.4884 378.724C23.9253 379.646 24.3234 380.577 24.7214 381.509C24.3428 380.956 24.0321 380.538 23.9739 380.441C22.2554 378.5 17.7699 375.637 15.0709 376.783C14.6291 376.988 14.2353 377.284 13.9151 377.651C13.5948 378.018 13.3551 378.449 13.2114 378.914C13.0678 379.38 13.0234 379.87 13.0811 380.354C13.1389 380.838 13.2974 381.304 13.5466 381.723C14.5175 383.537 16.9447 384.43 18.8767 384.712C20.8088 384.993 24.4108 384.042 25.6729 383.741C26.0516 384.712 26.4302 385.682 26.7603 386.653C26.9642 387.303 27.2166 387.924 27.3817 388.594C27.5467 389.263 27.7506 389.894 27.9254 390.535C28.2263 391.787 28.5467 393.078 28.8089 394.31C29.003 395.164 29.1681 395.989 29.3331 396.804C28.906 395.882 28.0419 394.087 27.9545 393.941C26.5564 391.719 22.5564 388.254 19.7117 388.972C19.2502 389.107 18.8216 389.336 18.4527 389.644C18.0839 389.952 17.7829 390.334 17.5686 390.764C17.3543 391.194 17.2314 391.664 17.2076 392.144C17.1837 392.624 17.2595 393.104 17.4301 393.553C18.1389 395.494 20.3428 396.756 22.2845 397.328C24.3428 397.95 28.906 397.377 29.4788 397.328C29.7506 398.697 30.003 400.026 30.2264 401.278C30.7118 404.064 31.0807 406.548 31.3623 408.654H33.304C32.9642 406.471 32.5273 403.879 31.9448 400.968C31.673 399.58 31.3526 398.105 30.9739 396.591C32.3502 396.041 33.6924 395.409 34.9934 394.698C36.4983 396.329 40.3429 398.231 40.8187 398.474C40.2944 399.764 39.7701 401.016 39.2556 402.181C38.1876 404.636 37.1779 406.81 36.2847 408.654H38.3721C39.139 406.946 39.9837 405.005 40.8575 402.831C41.4012 401.521 41.9449 400.114 42.4983 398.668C43.0517 398.784 47.5663 399.697 49.6731 399.221C51.6149 398.794 53.8965 397.717 54.7605 395.824C54.9751 395.385 55.0949 394.906 55.1121 394.418C55.1293 393.929 55.0435 393.443 54.8604 392.99C54.6773 392.537 54.4009 392.127 54.0492 391.788C53.6974 391.448 53.2782 391.187 52.8188 391.02C50.0323 390.05 45.7896 393.252 44.2265 395.358C44.1391 395.484 43.2556 396.94 42.7701 397.872C42.9935 397.28 43.2168 396.707 43.4303 396.096C43.877 394.883 44.2847 393.66 44.7313 392.35L45.3139 390.409C45.5177 389.758 45.6537 389.06 45.8381 388.371C46.2168 386.789 46.5178 385.158 46.809 383.518C47.877 383.906 51.6634 385.226 53.6052 385.081C55.547 384.935 58.013 384.226 59.1392 382.489C59.4209 382.091 59.6151 381.637 59.7092 381.158C59.8033 380.679 59.795 380.185 59.685 379.71C59.575 379.234 59.3658 378.787 59.0709 378.398C58.7761 378.009 58.4023 377.687 57.9742 377.452C55.3625 376.113 50.6828 378.588 48.8284 380.441C48.7119 380.558 47.5275 382.033 46.8867 382.858C47.042 381.887 47.2071 380.917 47.3333 379.869C47.6925 376.957 47.9644 373.997 48.3042 371.047C48.3916 370.144 48.4886 369.242 48.5857 368.339C48.9644 368.485 53.4401 370.144 55.6343 369.999C57.5761 369.853 60.0324 369.145 61.1684 367.407C61.4485 367.008 61.6415 366.555 61.7347 366.076C61.828 365.597 61.8194 365.104 61.7095 364.629C61.5996 364.154 61.3909 363.707 61.0969 363.318C60.8029 362.929 60.4303 362.606 60.0033 362.37C57.3916 361.021 52.712 363.496 50.8479 365.35C50.712 365.486 49.0129 367.621 48.6052 368.184C48.809 366.194 49.042 364.224 49.343 362.283C49.7424 359.662 50.3066 357.069 51.0324 354.519C51.2071 354.587 55.8868 356.343 58.1198 356.188C60.0616 356.052 62.5276 355.334 63.6538 353.597C63.934 353.198 64.127 352.744 64.2202 352.265C64.3134 351.787 64.3048 351.294 64.1949 350.819C64.085 350.344 63.8763 349.897 63.5824 349.508C63.2884 349.119 62.9158 348.796 62.4888 348.56C59.8771 347.211 55.1974 349.695 53.3431 351.539C53.1974 351.685 51.4013 353.975 51.0615 354.451C51.0615 354.305 51.1392 354.15 51.178 354.005C51.9821 351.472 53.0122 349.016 54.2557 346.667C54.9159 345.357 55.6343 344.144 56.3528 342.989C57.1877 343.406 61.013 345.26 63.0616 345.348C65.1101 345.435 67.5276 344.979 68.8869 343.406C69.2102 343.041 69.4526 342.611 69.5981 342.145C69.7437 341.679 69.789 341.187 69.7313 340.703C69.6735 340.218 69.514 339.751 69.263 339.332C69.0121 338.913 68.6755 338.552 68.2752 338.272C65.8286 336.642 60.9062 338.602 58.8577 340.213C58.7412 340.301 57.712 341.33 56.9742 342.087C57.3043 341.572 57.6344 341.029 57.945 340.534C59.1684 338.69 60.4111 337.069 61.5179 335.681C62.1587 334.876 62.7509 334.167 63.314 333.497C64.3431 333.497 68.4985 333.352 70.3141 332.527C72.1296 331.702 74.1199 330.149 74.5471 328.121C74.6647 327.647 74.681 327.153 74.5949 326.672C74.5088 326.192 74.3222 325.734 74.0474 325.33C73.7725 324.926 73.4156 324.585 72.9998 324.328C72.584 324.072 72.1188 323.906 71.6345 323.841C68.7218 323.53 65.2461 327.529 64.1781 329.926C64.0907 330.13 63.0227 333.536 63.0713 333.536H63.0616C62.5082 334.167 61.9159 334.847 61.2946 335.604C60.1489 337.001 58.8771 338.602 57.6052 340.456C56.1886 342.411 54.8917 344.449 53.7217 346.561C52.4138 348.91 51.3188 351.372 50.4498 353.917V354.014C50.4498 353.15 50.4498 350.744 50.4498 350.559C50.11 347.958 47.9255 343.135 45.042 342.601C44.5596 342.525 44.0668 342.552 43.5955 342.68C43.1242 342.808 42.6851 343.033 42.3068 343.342C41.9285 343.65 41.6195 344.035 41.3999 344.471C41.1803 344.907 41.055 345.384 41.0323 345.872C40.8672 347.939 42.3624 350.006 43.8187 351.307C45.4692 352.782 50.0421 354.218 50.411 354.315C49.5863 356.928 48.9376 359.593 48.4692 362.293C48.1877 363.865 47.9547 365.457 47.7411 367.048C47.7411 366.311 47.7411 365.641 47.7411 365.554C47.4013 362.953 45.2168 358.129 42.3333 357.595C41.8517 357.52 41.3596 357.547 40.8889 357.674C40.4183 357.801 39.9797 358.025 39.6015 358.333C39.2234 358.64 38.9142 359.024 38.694 359.459C38.4738 359.893 38.3476 360.37 38.3235 360.856C38.1585 362.924 39.6536 364.991 41.1099 366.301C42.5663 367.611 46.4692 368.912 47.4983 369.213L47.2653 371.057C46.9158 373.968 46.576 376.938 46.1585 379.791C46.0129 380.762 45.8284 381.79 45.644 382.79C45.644 382.13 45.644 381.567 45.644 381.49C45.3041 378.889 43.1294 374.055 40.2361 373.522C39.754 373.448 39.2617 373.476 38.791 373.604C38.3204 373.732 37.8819 373.958 37.504 374.266C37.1261 374.574 36.817 374.958 36.597 375.394C36.3769 375.829 36.2507 376.305 36.2264 376.792C36.0614 378.859 37.5565 380.927 39.0225 382.227C40.4886 383.528 43.9935 384.721 45.2168 385.139C45.0032 386.109 44.7896 387.157 44.5372 388.138C44.3527 388.788 44.2168 389.438 43.9935 390.079C43.7702 390.719 43.576 391.379 43.3721 392.02C42.9255 393.233 42.4789 394.485 42.0226 395.659L41.0517 398.027C41.207 397.057 41.4789 395.048 41.4789 394.873C41.4433 392.568 40.8219 390.311 39.673 388.312C39.6923 388.057 39.6923 387.801 39.673 387.546C39.6063 387.065 39.4399 386.604 39.1846 386.192C38.9293 385.779 38.5906 385.425 38.1903 385.151C37.7901 384.877 37.3369 384.689 36.86 384.6C36.3831 384.511 35.8928 384.523 35.4206 384.634C32.5856 385.391 30.7798 390.37 30.6438 392.99C30.6438 393.146 30.7409 394.834 30.8186 395.902C30.6827 395.281 30.5467 394.689 30.3914 394.048C30.0904 392.796 29.7603 391.554 29.4205 390.215C29.2263 389.574 29.0225 388.924 28.8283 388.274C28.6341 387.623 28.372 386.954 28.139 386.284C27.5856 384.751 26.9351 383.227 26.2554 381.703C27.3525 381.441 31.2458 380.451 32.7992 379.248C34.3526 378.044 36.0031 376.103 35.9934 374.036C36.0058 373.548 35.9155 373.063 35.7284 372.612C35.5413 372.162 35.2616 371.755 34.9074 371.42C34.5532 371.084 34.1324 370.826 33.6722 370.663C33.212 370.5 32.7227 370.436 32.2361 370.474C29.3234 370.794 26.7797 375.443 26.2554 378.015C26.2554 378.17 26.0516 380.053 25.9739 381.092C25.5564 380.179 25.1389 379.267 24.6923 378.355C23.3816 375.734 21.9836 373.114 20.5952 370.494L19.3331 368.087C19.7311 367.99 24.3719 366.912 26.1292 365.573C27.6923 364.379 29.3331 362.429 29.3234 360.361C29.3358 359.874 29.2455 359.389 29.0585 358.938C28.8714 358.487 28.5917 358.081 28.2375 357.745C27.8832 357.409 27.4624 357.152 27.0022 356.989C26.5421 356.826 26.0528 356.761 25.5661 356.8C22.6535 357.12 20.1098 361.769 19.5855 364.341C19.5855 364.535 19.2942 367.252 19.2748 367.941C18.3039 366.165 17.4495 364.399 16.634 362.613C15.5001 360.212 14.527 357.738 13.7214 355.208C13.9058 355.208 18.7602 354.063 20.5175 352.694C22.0709 351.501 23.7214 349.55 23.702 347.483C23.7158 346.995 23.6268 346.511 23.4408 346.06C23.2549 345.609 22.9761 345.202 22.6226 344.867C22.2691 344.531 21.8489 344.273 21.3892 344.11C20.9295 343.947 20.4406 343.883 19.9544 343.921C17.0418 344.241 14.4981 348.89 13.9641 351.452C13.9641 351.656 13.6631 354.577 13.6534 355.111L13.4981 354.664C12.7763 352.108 12.2793 349.494 12.0126 346.852C11.8476 345.396 11.7796 343.989 11.731 342.63C12.7019 342.514 16.8864 341.951 18.634 340.893C20.3816 339.835 22.1583 338.117 22.3719 336.04C22.4389 335.557 22.4034 335.065 22.2676 334.596C22.1318 334.128 21.8987 333.693 21.5837 333.32C21.2686 332.948 20.8786 332.646 20.4389 332.434C19.9993 332.222 19.52 332.105 19.0321 332.09C16.1194 332.09 13.0709 336.428 12.2359 338.884C12.2359 339.02 11.8961 340.446 11.7019 341.495C11.7019 340.873 11.7019 340.243 11.7019 339.651C11.7019 337.428 11.8476 335.39 11.9835 333.595C12.0709 332.624 12.1679 331.654 12.2747 330.79C13.1194 330.207 16.5175 327.81 17.566 326.092C18.6146 324.375 19.4204 322.007 18.6534 320.085C18.4885 319.628 18.2292 319.21 17.8923 318.859C17.5554 318.509 17.1485 318.233 16.6979 318.05C16.2474 317.867 15.7634 317.781 15.2773 317.797C14.7913 317.813 14.314 317.931 13.8767 318.144C11.265 319.493 10.5757 324.743 10.9641 327.325C10.9641 327.548 11.9932 330.984 12.032 330.955H12.0903C11.9738 331.78 11.8573 332.673 11.7602 333.643C11.5757 335.448 11.3912 337.477 11.3427 339.709C11.2605 342.11 11.3156 344.515 11.5077 346.91C11.7207 349.59 12.169 352.247 12.8476 354.849V354.946C12.3815 354.218 11.0223 352.238 10.9058 352.093C9.18734 350.152 4.70186 347.289 2.00281 348.434C1.58874 348.643 1.2207 348.933 0.920402 349.286C0.6201 349.639 0.393607 350.049 0.254267 350.492C0.114927 350.934 0.0655616 351.4 0.109079 351.861C0.152597 352.323 0.288117 352.771 0.507654 353.18C1.50766 355.014 3.89603 355.907 5.8378 356.198Z" fill="#00EA48"/>
<path d="M56.2075 342.397C56.2075 342.397 57.1784 338.972 57.1784 338.748C57.5473 336.157 56.7123 330.926 54.0715 329.645C53.6266 329.444 53.1441 329.339 52.6558 329.337C52.1674 329.335 51.6842 329.437 51.2378 329.634C50.7913 329.832 50.3918 330.122 50.0653 330.485C49.7389 330.848 49.4928 331.276 49.3433 331.741C48.6346 333.682 49.5278 336.079 50.5958 337.72C51.8385 339.651 56.1978 342.397 56.2075 342.397Z" fill="#00EA48"/>
<path d="M362.423 341.261C364.53 342.183 369.686 342.067 369.686 342.067C369.686 342.067 368.579 338.699 368.482 338.495C367.346 336.127 363.773 332.226 360.86 332.614C360.379 332.693 359.919 332.872 359.511 333.141C359.104 333.409 358.757 333.76 358.494 334.171C358.232 334.582 358.058 335.044 357.986 335.527C357.913 336.009 357.943 336.501 358.074 336.971C358.559 338.98 360.627 340.485 362.423 341.261Z" fill="#00EA48"/>
<path d="M364.2 356.198C366.385 356.509 370.996 355.179 371.356 355.073C372.114 357.703 373.045 360.28 374.142 362.788C374.773 364.254 375.463 365.7 376.162 367.165C375.744 366.544 375.365 366.001 375.297 365.933C373.589 363.943 369.103 361.08 366.404 362.274C365.96 362.475 365.563 362.768 365.24 363.134C364.917 363.499 364.675 363.928 364.529 364.394C364.383 364.859 364.338 365.35 364.395 365.834C364.452 366.318 364.611 366.785 364.86 367.204C365.831 369.019 368.249 369.921 370.191 370.203C372.132 370.484 376.103 369.436 377.142 369.135C377.414 369.689 377.686 370.251 377.967 370.805C379.298 373.454 380.637 376.094 381.851 378.724C382.288 379.646 382.686 380.578 383.084 381.509C382.705 380.956 382.395 380.539 382.336 380.442C380.618 378.501 376.142 375.638 373.433 376.783C372.99 376.987 372.594 377.281 372.272 377.648C371.95 378.014 371.708 378.444 371.562 378.91C371.417 379.375 371.371 379.866 371.427 380.351C371.484 380.836 371.641 381.303 371.89 381.723C372.861 383.538 375.288 384.431 377.22 384.712C379.152 384.994 382.754 384.042 384.016 383.742C384.395 384.712 384.783 385.683 385.103 386.653C385.307 387.303 385.56 387.925 385.725 388.594C385.89 389.264 386.094 389.895 386.268 390.535C386.569 391.787 386.89 393.078 387.152 394.311C387.346 395.165 387.511 395.99 387.676 396.805C387.249 395.883 386.385 394.087 386.298 393.942C384.899 391.719 380.899 388.255 378.055 388.973C377.586 389.107 377.15 389.339 376.777 389.652C376.403 389.966 376.099 390.354 375.885 390.792C375.671 391.23 375.551 391.709 375.533 392.196C375.516 392.683 375.601 393.169 375.783 393.621C376.492 395.563 378.696 396.824 380.637 397.397C382.696 398.018 387.259 397.445 387.832 397.397C388.103 398.765 388.356 400.095 388.579 401.347C389.065 404.132 389.434 406.617 389.715 408.723H391.657C391.317 406.539 390.88 403.948 390.298 401.036C390.026 399.648 389.705 398.173 389.327 396.659C390.703 396.109 392.045 395.477 393.346 394.767C394.851 396.397 398.696 398.299 399.171 398.542C398.647 399.833 398.123 401.085 397.608 402.249C396.54 404.705 395.531 406.879 394.637 408.723H396.725C397.492 407.015 398.337 405.074 399.21 402.9C399.754 401.589 400.298 400.182 400.851 398.736C401.404 398.853 405.919 399.765 408.026 399.289C409.968 398.862 412.249 397.785 413.113 395.893C413.328 395.453 413.448 394.974 413.465 394.486C413.482 393.998 413.396 393.511 413.213 393.058C413.03 392.605 412.754 392.195 412.402 391.856C412.05 391.517 411.631 391.255 411.172 391.088C408.385 390.118 404.142 393.321 402.579 395.427C402.492 395.553 401.608 397.009 401.123 397.94C401.346 397.348 401.57 396.776 401.793 396.164C402.23 394.951 402.638 393.728 403.084 392.418L403.667 390.477C403.871 389.827 404.006 389.128 404.191 388.439C404.57 386.857 404.871 385.226 405.162 383.586C406.23 383.975 410.016 385.294 411.958 385.149C413.9 385.003 416.366 384.295 417.492 382.558C417.774 382.159 417.968 381.705 418.062 381.226C418.156 380.747 418.148 380.254 418.038 379.778C417.928 379.303 417.719 378.856 417.424 378.467C417.129 378.078 416.755 377.755 416.327 377.521C413.715 376.181 409.036 378.656 407.181 380.51C407.065 380.626 405.88 382.101 405.239 382.926C405.395 381.956 405.56 380.985 405.686 379.937C406.045 377.026 406.317 374.066 406.608 371.115C406.696 370.213 406.793 369.31 406.89 368.407C407.269 368.553 411.744 370.213 413.939 370.067C415.88 369.921 418.337 369.213 419.473 367.476C419.753 367.077 419.946 366.623 420.039 366.144C420.132 365.666 420.124 365.173 420.014 364.698C419.904 364.222 419.695 363.776 419.401 363.387C419.107 362.997 418.735 362.674 418.308 362.439C415.696 361.09 411.016 363.565 409.152 365.418C409.016 365.554 407.317 367.689 406.909 368.252C407.113 366.263 407.346 364.292 407.647 362.351C408.047 359.73 408.611 357.137 409.337 354.587C409.511 354.655 414.191 356.412 416.424 356.257C418.366 356.121 420.832 355.403 421.958 353.665C422.238 353.266 422.431 352.812 422.524 352.334C422.618 351.855 422.609 351.362 422.499 350.887C422.389 350.412 422.181 349.965 421.887 349.576C421.593 349.187 421.22 348.864 420.793 348.628C418.181 347.279 413.502 349.764 411.647 351.608C411.502 351.753 409.706 354.044 409.366 354.519C409.366 354.374 409.443 354.218 409.482 354.073C410.286 351.54 411.316 349.084 412.56 346.736C413.22 345.426 413.939 344.212 414.657 343.058C415.492 343.475 419.317 345.329 421.366 345.416C423.414 345.503 425.832 345.047 427.191 343.475C427.514 343.109 427.757 342.679 427.902 342.213C428.048 341.747 428.093 341.256 428.036 340.771C427.978 340.286 427.818 339.819 427.567 339.4C427.316 338.982 426.98 338.62 426.579 338.341C424.133 336.71 419.21 338.671 417.162 340.282C417.055 340.369 416.016 341.398 415.278 342.155C415.608 341.641 415.939 341.097 416.249 340.602C417.482 338.758 418.715 337.137 419.822 335.75C420.463 334.944 421.055 334.236 421.618 333.566C422.647 333.566 426.803 333.42 428.618 332.595C430.434 331.77 432.424 330.218 432.851 328.189C432.969 327.715 432.985 327.222 432.899 326.741C432.813 326.26 432.626 325.803 432.352 325.399C432.077 324.995 431.72 324.653 431.304 324.397C430.888 324.14 430.423 323.974 429.939 323.909C427.026 323.599 423.541 327.597 422.473 329.994C422.385 330.198 421.317 333.605 421.366 333.605H421.434C420.88 334.235 420.288 334.915 419.667 335.672C418.521 337.069 417.249 338.671 415.977 340.524C414.577 342.48 413.297 344.519 412.142 346.629C410.835 348.979 409.74 351.441 408.871 353.986C408.875 354.018 408.875 354.05 408.871 354.083C408.871 353.219 408.871 350.812 408.871 350.628C408.531 348.027 406.346 343.203 403.463 342.669C402.98 342.594 402.487 342.621 402.016 342.748C401.545 342.876 401.106 343.101 400.728 343.41C400.349 343.719 400.04 344.103 399.821 344.539C399.601 344.975 399.476 345.452 399.453 345.94C399.288 348.007 400.783 350.074 402.239 351.375C403.89 352.85 408.463 354.286 408.832 354.383C408.007 356.996 407.358 359.662 406.89 362.361C406.608 363.933 406.375 365.525 406.162 367.117C406.162 366.379 406.162 365.709 406.162 365.622C405.822 363.021 403.638 358.198 400.754 357.664C400.272 357.588 399.78 357.615 399.31 357.742C398.839 357.869 398.4 358.094 398.022 358.401C397.644 358.709 397.335 359.092 397.115 359.527C396.895 359.962 396.768 360.438 396.744 360.925C396.579 362.992 398.074 365.059 399.531 366.369C400.987 367.68 404.89 368.98 405.919 369.281C405.851 369.892 405.764 370.504 405.686 371.125C405.337 374.036 404.997 377.006 404.579 379.86C404.434 380.83 404.249 381.859 404.065 382.858C404.065 382.198 404.065 381.636 404.065 381.558C403.725 378.957 401.55 374.124 398.657 373.59C398.175 373.516 397.682 373.544 397.212 373.672C396.741 373.801 396.303 374.026 395.925 374.334C395.547 374.643 395.238 375.027 395.018 375.462C394.798 375.897 394.671 376.374 394.647 376.861C394.482 378.928 395.977 380.995 397.443 382.296C398.909 383.596 402.424 384.79 403.638 385.207C403.424 386.178 403.21 387.226 402.958 388.206C402.773 388.856 402.638 389.506 402.414 390.147C402.191 390.788 401.997 391.448 401.793 392.088C401.346 393.301 400.9 394.553 400.443 395.728L399.472 398.096C399.628 397.125 399.9 395.116 399.9 394.941C399.869 392.636 399.247 390.377 398.094 388.381C398.097 388.124 398.081 387.868 398.045 387.614C397.978 387.134 397.812 386.672 397.557 386.26C397.301 385.848 396.963 385.493 396.563 385.219C396.162 384.945 395.709 384.757 395.232 384.668C394.755 384.58 394.265 384.591 393.793 384.702C390.958 385.459 389.152 390.438 389.016 393.059C389.016 393.214 389.113 394.903 389.191 395.97C389.055 395.349 388.919 394.757 388.764 394.116C388.463 392.864 388.133 391.622 387.793 390.283C387.599 389.642 387.395 388.992 387.2 388.342C387.006 387.692 386.744 387.022 386.511 386.352C385.958 384.819 385.307 383.295 384.628 381.771C385.725 381.509 389.618 380.519 391.171 379.316C392.725 378.113 394.375 376.172 394.366 374.104C394.378 373.617 394.288 373.132 394.101 372.681C393.914 372.23 393.634 371.824 393.28 371.488C392.925 371.152 392.505 370.894 392.044 370.732C391.584 370.569 391.095 370.504 390.608 370.543C387.696 370.863 385.152 375.512 384.628 378.083C384.628 378.239 384.424 380.122 384.346 381.16C383.929 380.248 383.511 379.335 383.065 378.423C381.754 375.803 380.356 373.182 378.967 370.562L377.705 368.155C378.103 368.058 382.744 366.981 384.501 365.641C386.065 364.448 387.705 362.497 387.696 360.43C387.708 359.942 387.618 359.457 387.431 359.006C387.244 358.556 386.964 358.149 386.61 357.813C386.255 357.478 385.835 357.22 385.374 357.057C384.914 356.894 384.425 356.83 383.938 356.868C381.026 357.188 378.482 361.837 377.958 364.409C377.958 364.603 377.666 367.32 377.647 368.01C376.725 366.233 375.822 364.467 375.006 362.681C373.889 360.279 372.932 357.805 372.142 355.276C372.327 355.276 377.181 354.131 378.938 352.763C380.492 351.569 382.142 349.618 382.123 347.551C382.137 347.064 382.048 346.579 381.862 346.128C381.676 345.677 381.397 345.271 381.043 344.935C380.69 344.599 380.27 344.341 379.81 344.178C379.35 344.015 378.861 343.951 378.375 343.989C375.463 344.309 372.919 348.958 372.385 351.52C372.385 351.724 372.084 354.645 372.074 355.179L371.919 354.733C371.197 352.177 370.7 349.563 370.433 346.92C370.278 345.464 370.2 344.057 370.152 342.698C371.123 342.582 375.307 342.019 377.055 340.961C378.802 339.903 380.579 338.186 380.793 336.109C380.86 335.625 380.824 335.133 380.688 334.665C380.553 334.196 380.319 333.761 380.004 333.389C379.689 333.016 379.299 332.714 378.86 332.502C378.42 332.29 377.941 332.173 377.453 332.159C374.54 332.159 371.492 336.497 370.657 338.952C370.657 339.088 370.317 340.515 370.123 341.563C370.123 340.942 370.123 340.311 370.123 339.719C370.123 337.496 370.268 335.458 370.404 333.663C370.492 332.692 370.589 331.722 370.695 330.858C371.54 330.276 374.938 327.879 375.987 326.161C377.035 324.443 377.841 322.075 377.074 320.153C376.909 319.696 376.65 319.278 376.313 318.928C375.976 318.577 375.569 318.301 375.119 318.118C374.668 317.935 374.184 317.849 373.698 317.865C373.212 317.881 372.735 318 372.297 318.212C369.686 319.561 368.996 324.812 369.433 327.393C369.433 327.617 370.404 331.052 370.501 331.023H370.55C370.433 331.848 370.317 332.741 370.22 333.711C370.035 335.517 369.851 337.545 369.802 339.777C369.72 342.179 369.775 344.583 369.967 346.978C370.18 349.659 370.629 352.315 371.307 354.917V355.014C370.841 354.286 369.482 352.307 369.365 352.161C367.647 350.22 363.161 347.357 360.462 348.502C360.018 348.705 359.621 348.999 359.298 349.365C358.975 349.731 358.732 350.161 358.587 350.627C358.441 351.094 358.395 351.585 358.453 352.07C358.51 352.555 358.669 353.023 358.919 353.442C359.87 355.014 362.259 355.907 364.2 356.198Z" fill="#00EA48"/>
<path d="M414.57 342.397C414.57 342.397 415.541 338.972 415.541 338.748C415.91 336.157 415.075 330.926 412.434 329.645C411.989 329.444 411.506 329.339 411.018 329.337C410.53 329.335 410.046 329.437 409.6 329.634C409.154 329.832 408.754 330.122 408.428 330.485C408.101 330.848 407.855 331.276 407.706 331.741C406.997 333.682 407.89 336.079 408.958 337.72C410.201 339.651 414.521 342.397 414.57 342.397Z" fill="#00EA48"/>
<path d="M321.636 139.248C321.636 139.248 321.937 128.291 328.258 125.185C334.578 122.08 334.938 132.338 334.938 132.338C334.938 132.338 349.394 123.157 352.53 130.115C355.666 137.074 351.287 140.442 351.287 140.442C351.287 140.442 364.122 139.995 365.016 147.032C365.909 154.068 359.278 157.513 359.278 157.513C359.278 157.513 367.21 163.987 364.423 166.976C361.637 169.965 355.54 170.178 355.54 170.178C355.54 170.178 358.996 177.118 352.967 179.583C346.938 182.048 340.044 177.457 340.044 177.457C340.044 177.457 341.112 180.641 336.588 179.835C332.064 179.03 327.491 176.924 324.685 170.285C321.879 163.647 318.258 144.848 321.636 139.248Z" fill="#393939" stroke="#393939" stroke-linecap="round" stroke-linejoin="round"/>
<path d="M254.899 350.87C254.899 350.87 251.297 364.613 251.355 366.136C251.413 367.66 250.161 371.115 251.219 372.095C253.2 373.71 255.3 375.173 257.501 376.472C258.398 376.46 259.273 376.194 260.025 375.706C260.268 375.487 260.464 375.221 260.599 374.924C260.734 374.627 260.807 374.305 260.812 373.978C260.812 373.464 259.365 371.309 259.171 370.805C258.977 370.3 261.821 363.729 262.899 360.459C263.706 357.539 264.284 354.56 264.627 351.549L254.899 350.87Z" fill="#BDBDBD" stroke="#393939" stroke-miterlimit="10"/>
<path d="M258.811 360.439C258.811 360.439 256.762 365.292 256.626 366.127C256.49 366.961 253.714 369.291 254.083 371.154C254.451 373.017 258.549 372.522 260.568 367.01" fill="#BDBDBD"/>
<path d="M258.811 360.439C258.811 360.439 256.762 365.292 256.626 366.127C256.49 366.961 253.714 369.291 254.083 371.154C254.451 373.017 258.549 372.522 260.568 367.01" stroke="#393939" stroke-miterlimit="10"/>
<path d="M267.986 276.218C267.986 276.218 266.267 304.246 265.617 306.721C264.966 309.196 257.16 331.799 255.442 338.748C254.388 343.051 253.638 347.423 253.199 351.831L263.675 354.034L269.559 328.199C269.559 328.199 277.248 304.654 275.685 293.619C274.883 287.189 272.206 281.137 267.986 276.218Z" fill="#00EA48" stroke="#393939" stroke-miterlimit="10"/>
<path d="M322.559 408.626C322.685 402.531 322.938 394.31 323.53 389.603C324.501 381.47 327.977 376.443 331.55 366.311C335.122 356.179 335.433 342.863 335.433 342.863L271.452 345.095C271.452 345.095 264.035 372.59 259.539 392.816C258.319 398.004 257.607 403.299 257.413 408.626" fill="#00EA48"/>
<path d="M322.559 408.626C322.685 402.531 322.938 394.31 323.53 389.603C324.501 381.47 327.977 376.443 331.55 366.311C335.123 356.179 335.433 342.863 335.433 342.863L271.452 345.095C271.452 345.095 264.035 372.59 259.539 392.816C258.319 398.004 257.607 403.299 257.413 408.626" stroke="#393939" stroke-miterlimit="10"/>
<path d="M279.831 355.402L333.065 356.896L334.191 352.781L279.831 355.402Z" fill="#393939" stroke="#393939" stroke-linecap="round" stroke-linejoin="round"/>
<path d="M277.141 407.655C277.141 407.655 276.093 374.376 276.063 356.314L277.141 407.655Z" fill="white"/>
<path d="M277.141 407.655C277.141 407.655 276.093 374.376 276.063 356.314" stroke="#393939" stroke-miterlimit="10"/>
<path d="M317.947 205.816L325.714 211.037C325.714 211.037 334.909 219.248 337.171 226.041C339.433 232.835 337.792 273.179 335.511 286.213C333.229 299.248 338.928 315.484 340.957 324.646C342.986 333.808 343.87 350.85 343.87 350.85C343.87 350.85 345.307 352.849 320.375 353.713C295.442 354.577 278.054 355.877 276.015 356.285C274.783 356.537 273.533 356.696 272.277 356.76L271.306 347.909L268.889 355.198L263.714 354.014C263.714 354.014 266.927 338.175 267.733 332.002C268.539 325.83 273.627 304.828 273.695 296.928C273.762 289.028 267.161 276.314 265.869 268.492C264.578 260.669 267.18 247.257 273.636 237.125C280.093 226.992 284.423 223.072 297.044 212.726C309.666 202.38 317.947 205.816 317.947 205.816Z" fill="#00EA48" stroke="#393939" stroke-miterlimit="10"/>
<path d="M297.715 324.074L323.764 327.024L322.298 320.211L306.045 318.813" stroke="#393939" stroke-miterlimit="10"/>
<path d="M288.607 318.435L287.287 322.899L293.821 323.637" stroke="#393939" stroke-miterlimit="10"/>
<path d="M298.385 273.821C297.16 272.687 296.036 271.45 295.025 270.123" stroke="#393939" stroke-miterlimit="10"/>
<path d="M307.443 281.468C307.443 281.468 304.695 279.391 301.686 276.81" stroke="#393939" stroke-miterlimit="10"/>
<path d="M317.947 205.817C317.947 205.817 309.666 202.371 297.044 212.727C284.423 223.082 280.102 227.013 273.617 237.126C269.742 243.377 267.167 250.345 266.044 257.613C266.199 258.37 266.364 259.137 266.549 259.923C270.16 275.18 274.18 282.555 274.18 282.555C274.18 282.555 281.17 247.792 293.335 233.7C305.501 219.608 325.705 211.038 325.705 211.038L317.947 205.817Z" fill="#00EA48" stroke="#393939" stroke-miterlimit="10"/>
<path d="M287.588 138.006C287.588 138.006 278.472 146.518 277.792 153.224C277.113 159.93 276.404 165.714 275.268 167.879C274.132 170.043 268.404 171.46 270.346 174.731C272.287 178.001 274.103 177.933 274.103 177.933C274.103 177.933 277.016 192.404 279.229 194.432C281.443 196.46 289.278 195.296 289.278 195.296L291.705 212.843C291.705 212.843 275.404 227.294 272.229 247.432C269.054 267.57 272.685 279.061 272.685 279.061C272.685 279.061 274.812 247.335 282.152 235.456C289.491 223.577 306.54 212.328 309.055 210.3C311.569 208.272 317.948 205.797 317.948 205.797C317.948 205.797 314.919 199.003 314.511 195.936C314.103 192.87 314.239 188.357 314.812 187.124C315.385 185.892 325.569 182.194 329.375 170.528C333.181 158.863 327.579 145.091 321.608 139.229C315.637 133.367 295.22 130.456 287.588 138.006Z" fill="#BDBDBD" stroke="#393939" stroke-miterlimit="10"/>
<path d="M329.414 170.548C333.298 158.902 327.618 145.111 321.647 139.249C315.676 133.387 295.229 130.456 287.598 138.006C287.598 138.006 287.113 138.463 286.355 139.249C289.256 138.524 292.278 138.425 295.22 138.958C301.326 139.928 301.191 144.781 299.53 149.429C297.87 154.078 299.123 154.903 302.239 157.194C305.356 159.484 302.161 163.88 304.356 165.627C306.55 167.374 308.336 157.863 313.094 164.715C317.851 171.567 314.657 174.673 311.686 176.594C310.022 177.705 308.216 178.586 306.317 179.215C306.317 179.215 310.812 184.485 315.249 186.659C317.375 185.077 325.958 181.03 329.414 170.548Z" fill="#393939" stroke="#393939" stroke-linecap="round" stroke-linejoin="round"/>
<path d="M279.044 180.496C279.044 180.496 285.403 179.972 288.345 177.138" stroke="#393939" stroke-miterlimit="10"/>
<path d="M283.084 165.482C283.132 166.986 282.559 168.228 281.812 168.258C281.064 168.287 280.404 167.083 280.346 165.579C280.288 164.075 280.87 162.832 281.618 162.803C282.365 162.774 283.025 163.978 283.084 165.482Z" fill="#393939"/>
<path d="M280.346 159.338C280.346 159.338 282.394 156.581 285.326 159.833" stroke="#393939" stroke-miterlimit="10"/>
<path d="M289.277 195.315L296.86 192.462L291.578 201.944L289.277 195.315Z" fill="#393939" stroke="#393939" stroke-miterlimit="10"/>
<path d="M267.442 334.613L257.5 376.472L266.422 378.549L271.335 347.938L267.442 334.613Z" fill="white" stroke="#393939" stroke-miterlimit="10"/>
<path d="M276.228 234.397C274.32 238.551 272.974 242.941 272.228 247.451C269.054 267.579 272.685 279.08 272.685 279.08C272.685 279.08 274.792 247.781 282.005 235.727C280.035 235.505 278.097 235.059 276.228 234.397Z" fill="white" stroke="#393939" stroke-miterlimit="10"/>
<path d="M306.948 247.461L306.268 282.982L244.083 293.23L245.442 309.972C245.442 309.972 279.957 310.651 296.015 309.283C312.074 307.914 326.113 306.895 328.132 305.187C330.152 303.479 336.006 270.462 338.394 247.238C340.783 224.013 336.006 216.181 326.443 217.52" fill="#00EA48"/>
<path d="M306.948 247.461L306.268 282.982L244.083 293.23L245.442 309.972C245.442 309.972 279.957 310.651 296.015 309.283C312.074 307.914 326.113 306.895 328.132 305.187C330.152 303.479 336.006 270.462 338.394 247.238C340.783 224.013 336.006 216.181 326.443 217.52" stroke="#393939" stroke-miterlimit="10"/>
<path d="M206.879 291.727L201.898 306.828L206.753 309.468C206.753 309.468 212.918 314.243 216.297 316.824C219.675 319.406 222.268 319.406 224.064 318.61C225.86 317.814 234.006 306.284 234.996 304.101C235.986 301.917 231.219 295.366 226.452 292.571C221.685 289.776 217.714 289.795 214.918 290.63C212.271 291.206 209.583 291.572 206.879 291.727Z" fill="white" stroke="#393939" stroke-miterlimit="10"/>
<path d="M244.083 293.23L236.219 292.551C233.751 291.908 231.24 291.45 228.704 291.183C226.655 291.183 223.918 293.23 222.549 294.259C221.18 295.288 206.15 311.68 206.15 311.68C206.15 311.68 207.519 314.407 209.568 313.728C211.616 313.048 215.393 311.331 215.393 311.331C215.393 311.331 211.296 315.436 213.345 317.484C215.393 319.531 218.811 319.531 218.811 319.531L221.209 318.163C222.217 318.958 223.376 319.539 224.617 319.871C226.325 320.211 229.063 319.531 231.413 318.163C233.762 316.795 239.869 309.671 239.869 309.671L245.112 307.643L244.083 293.23Z" fill="#BDBDBD" stroke="#393939" stroke-miterlimit="10"/>
<path d="M209.588 292.377C209.588 292.377 219.53 286.612 223.899 288.204C228.268 289.795 234.044 299.53 232.452 300.927C230.86 302.325 228.277 301.713 226.889 300.325C225.728 299.272 224.462 298.338 223.112 297.54C220.494 299.01 217.56 299.829 214.559 299.928" fill="white"/>
<path d="M209.588 292.377C209.588 292.377 219.53 286.612 223.899 288.204C228.268 289.795 234.044 299.53 232.452 300.927C230.86 302.325 228.277 301.713 226.889 300.325C225.728 299.272 224.462 298.338 223.112 297.54C220.494 299.01 217.56 299.829 214.559 299.928" stroke="#393939" stroke-miterlimit="10"/>
<path d="M239.238 314.941L236.082 313.252C235.828 313.118 235.603 312.934 235.42 312.712C235.237 312.491 235.1 312.235 235.016 311.96C234.932 311.685 234.903 311.396 234.931 311.11C234.959 310.824 235.044 310.546 235.18 310.292C235.315 310.039 235.499 309.815 235.721 309.633C235.944 309.451 236.2 309.315 236.475 309.232C236.75 309.149 237.039 309.121 237.324 309.15C237.61 309.178 237.888 309.263 238.141 309.399L241.296 311.078C241.807 311.352 242.19 311.817 242.359 312.372C242.528 312.927 242.471 313.526 242.199 314.038C241.925 314.55 241.46 314.932 240.905 315.101C240.35 315.27 239.75 315.212 239.238 314.941Z" fill="white" stroke="#393939" stroke-miterlimit="10"/>
<path d="M236.452 318.319L233.297 316.63C232.798 316.356 232.425 315.9 232.257 315.357C232.088 314.813 232.137 314.226 232.394 313.718C232.669 313.222 233.127 312.851 233.67 312.684C234.213 312.518 234.8 312.568 235.306 312.826L238.462 314.504C238.962 314.776 239.337 315.233 239.506 315.777C239.674 316.321 239.624 316.909 239.365 317.416C239.093 317.916 238.636 318.291 238.092 318.459C237.548 318.628 236.959 318.578 236.452 318.319Z" fill="white" stroke="#393939" stroke-miterlimit="10"/>
<path d="M233.267 321.298L230.112 319.61C229.857 319.475 229.632 319.292 229.45 319.07C229.267 318.848 229.13 318.591 229.047 318.316C228.964 318.041 228.936 317.752 228.966 317.466C228.995 317.18 229.081 316.902 229.218 316.65C229.354 316.396 229.538 316.172 229.76 315.99C229.983 315.808 230.239 315.672 230.514 315.589C230.789 315.506 231.077 315.478 231.363 315.507C231.649 315.536 231.927 315.621 232.18 315.757L235.335 317.445C235.588 317.581 235.812 317.765 235.994 317.987C236.176 318.209 236.313 318.465 236.396 318.74C236.479 319.015 236.507 319.304 236.478 319.59C236.449 319.875 236.364 320.153 236.228 320.406C236.093 320.659 235.908 320.883 235.686 321.065C235.464 321.247 235.208 321.383 234.933 321.466C234.658 321.549 234.369 321.577 234.083 321.548C233.797 321.519 233.52 321.435 233.267 321.298Z" fill="white" stroke="#393939" stroke-miterlimit="10"/>
<path d="M226.568 321.443L225.743 321.006C225.488 320.872 225.263 320.688 225.08 320.466C224.897 320.245 224.76 319.989 224.676 319.714C224.592 319.439 224.563 319.15 224.591 318.864C224.62 318.578 224.704 318.3 224.84 318.046C225.114 317.535 225.579 317.153 226.134 316.984C226.689 316.815 227.288 316.872 227.801 317.144L228.626 317.59C228.88 317.725 229.105 317.908 229.288 318.13C229.471 318.352 229.609 318.608 229.693 318.883C229.777 319.158 229.805 319.447 229.777 319.733C229.749 320.019 229.665 320.297 229.529 320.55C229.394 320.804 229.209 321.028 228.987 321.21C228.765 321.392 228.509 321.528 228.234 321.611C227.959 321.694 227.67 321.722 227.384 321.693C227.098 321.664 226.821 321.579 226.568 321.443Z" fill="white" stroke="#393939" stroke-miterlimit="10"/>
<path d="M206.879 291.726L165.15 274.092L166.694 301.722L201.151 309.613L206.879 291.726Z" fill="#393939" stroke="#393939" stroke-linecap="round" stroke-linejoin="round"/>
<path d="M201.15 309.613L206.878 291.726L201.043 289.145L200.927 289.737L195.587 308.264L201.15 309.613Z" fill="white" stroke="#393939" stroke-miterlimit="10"/>
<path d="M141.703 181.204L152.383 186.163C152.383 186.163 156.868 198.868 155.373 199.236C153.878 199.605 142.664 190.647 142.664 190.647L141.703 181.204Z" fill="white" stroke="#393939" stroke-linecap="round" stroke-linejoin="round"/>
<path d="M147.907 178.661L148.655 174.381C148.655 174.381 158.558 175.06 162.519 175.031C166.48 175.002 169.936 174.498 169.907 170.295C169.878 166.093 167.567 151.758 167.567 151.758C167.567 151.758 172.014 150.739 173.733 148.75C175.451 146.76 172.966 144.305 170.723 141.345C168.48 138.385 166.47 135.192 166.208 131.727C165.946 128.262 159.927 116.926 159.927 116.926C159.927 116.926 160.898 115.189 157.664 111.501C154.431 107.813 137.849 107.173 127.237 112.472C116.625 117.771 114.208 125.418 114.256 133.823C114.305 142.228 119.111 154.078 119.111 154.078C119.111 154.078 115.975 166.957 115.732 167.665C115.489 168.374 112.674 173.896 112.674 173.896C112.674 173.896 125.946 183.145 130.79 187.299C135.635 191.452 146.577 198.557 146.645 194.713C146.713 190.87 147.15 182.194 147.15 182.194L147.907 178.661Z" fill="white" stroke="#393939" stroke-linecap="round" stroke-linejoin="round"/>
<path d="M162.539 138.52C162.597 139.957 162.267 141.131 161.791 141.151C161.316 141.17 160.869 140.034 160.82 138.598C160.772 137.162 161.083 135.987 161.568 135.968C162.053 135.949 162.471 137.084 162.539 138.52Z" fill="#393939"/>
<path d="M155.577 133.775C155.577 133.775 157.781 130.048 163.49 132.241" stroke="#393939" stroke-width="2" stroke-linecap="round" stroke-linejoin="round"/>
<path d="M169.908 170.295C169.908 166.083 167.568 151.758 167.568 151.758C167.568 151.758 164.84 150.293 159.645 151.555C154.451 152.816 153.034 161.26 152.043 162.23C151.053 163.201 144.597 157.378 142.092 153.389C139.587 149.4 137.82 142.577 137.548 138.588C137.276 134.6 146.665 132.591 148.131 128.883C149.597 125.176 142.674 121.226 145.092 118.751C147.509 116.276 152.509 117.227 154.985 117.703C156.673 117.931 158.391 117.661 159.927 116.926C159.927 116.926 160.898 115.189 157.665 111.501C154.432 107.813 137.849 107.173 127.237 112.472C116.626 117.771 114.208 125.418 114.257 133.823C114.305 140.617 117.451 149.701 118.635 152.904C119.638 153.337 120.718 153.561 121.81 153.563C122.781 153.311 123.519 150.341 123.995 147.362C124.47 144.382 131.626 140.889 131.626 140.889C131.626 140.889 132.917 149.788 132.927 151.516C132.936 153.243 131.956 161.91 136.732 166.073C140.473 169.173 144.46 171.961 148.655 174.41C148.655 174.41 158.558 175.09 162.519 175.06C166.48 175.031 169.937 174.498 169.908 170.295Z" fill="#393939" stroke="#393939" stroke-linecap="round" stroke-linejoin="round"/>
<path d="M133.15 147.022C133.15 147.022 131.092 135.162 127.635 135.676C124.179 136.191 122.218 140.655 123.985 146.352C125.752 152.049 129.218 151.515 131.189 151.011" fill="white"/>
<path d="M133.15 147.022C133.15 147.022 131.092 135.162 127.635 135.676C124.179 136.191 122.218 140.655 123.985 146.352C125.752 152.049 129.218 151.515 131.189 151.011" stroke="#393939" stroke-linecap="round" stroke-linejoin="round"/>
<path d="M157.451 156.019C157.451 156.019 159.441 158.484 164.636 158.455" stroke="white" stroke-linecap="round" stroke-linejoin="round"/>
<path d="M101.897 408.625H154.325C154.5 405.869 156.539 395.271 156.539 388.322C156.539 380.296 162.063 328.519 162.063 328.519L93.8779 327.626L96.111 359.313L101.897 408.625Z" fill="#393939" stroke="#393939" stroke-linecap="round" stroke-linejoin="round"/>
<path d="M108.693 175.701C108.693 175.701 96.7418 191.026 93.3729 199.615C90.0039 208.204 87.3923 209.698 88.1398 220.529C88.8874 231.36 94.1302 274.694 94.1302 274.694L83.6641 331.11C96.017 335.534 109.038 337.806 122.16 337.826C143.83 337.826 153.228 335.963 154.674 335.215C156.121 334.468 169.238 331.11 169.238 331.11C169.238 331.11 169.238 267.231 165.121 245.19C161.005 223.15 155.781 206.37 153.917 202.225C152.053 198.081 146.063 184.669 146.063 184.669L108.693 175.701Z" fill="#393939" stroke="#393939" stroke-linecap="round" stroke-linejoin="round"/>
<path d="M153.946 202.225C152.072 198.12 146.091 184.669 146.091 184.669L108.693 175.701C108.693 175.701 106.169 178.943 103.11 183.281C111.256 188.007 131.421 199.692 132.615 199.984C134.111 200.362 141.586 199.615 141.586 199.615L138.247 203.72C138.247 203.72 147.218 210.824 150.208 213.804C151.781 215.376 156.344 219.53 160.324 223.121C157.616 212.387 155.111 204.807 153.946 202.225Z" fill="#393939" stroke="#393939" stroke-linecap="round" stroke-linejoin="round"/>
<path d="M136.752 192.889L149.461 202.973L159.917 221.655L153.199 194.384L139.373 186.542L136.752 192.889Z" fill="white" stroke="#393939" stroke-linecap="round" stroke-linejoin="round"/>
<path d="M111.344 168.606L150.471 186.231V200.051L105.732 177.196L111.344 168.606Z" fill="white" stroke="#393939" stroke-linecap="round" stroke-linejoin="round"/>
<path d="M163.082 309.981H95.4697V364.67H163.082V309.981Z" fill="#00EA48" stroke="#393939" stroke-miterlimit="10"/>
<path d="M133.422 336.05C133.422 336.05 138.451 342.601 140.422 343.261C142.081 343.942 143.453 345.177 144.305 346.755C145.179 348.065 146.247 357.896 146.927 358.556C147.606 359.216 147.587 360.74 145.179 359.643C142.771 358.546 141.296 354.79 141.296 354.79L142.169 363.525C142.169 363.525 144.111 363.962 142.606 365.059C141.101 366.155 139.762 367.679 138.451 367C137.285 366.305 136.189 365.499 135.179 364.593C133.617 365.117 131.955 365.266 130.325 365.029C127.927 364.593 128.383 365.466 126.179 363.933C123.975 362.399 123.985 364.156 122.897 361.312C121.203 356.224 119.816 351.038 118.742 345.784C118.305 342.94 117.868 338.99 117.868 338.99L133.422 336.05Z" fill="white" stroke="#393939" stroke-linecap="round" stroke-linejoin="round"/>
<path d="M134.305 331.896L135.829 338.671L117.033 341.291L116.159 334.517L134.305 331.896Z" fill="white" stroke="#393939" stroke-linecap="round" stroke-linejoin="round"/>
<path d="M110.218 189.162C110.218 189.162 97.1401 193.267 96.7712 199.246C96.4023 205.224 92.0624 277.732 93.9362 282.584C95.81 287.437 114.189 336.613 114.189 336.613L135.49 334.002C135.49 334.002 124.577 276.975 124.228 275.849C123.878 274.723 131.548 211.193 131.548 211.193" fill="#393939"/>
<path d="M110.218 189.162C110.218 189.162 97.1401 193.267 96.7712 199.246C96.4023 205.224 92.0624 277.732 93.9362 282.584C95.81 287.437 114.189 336.613 114.189 336.613L135.49 334.002C135.49 334.002 124.577 276.975 124.228 275.849C123.878 274.723 131.548 211.193 131.548 211.193" stroke="#393939" stroke-linecap="round" stroke-linejoin="round"/>
<path d="M129.014 229.438L124.198 275.849L128.791 304.683" stroke="#878787" stroke-linecap="round" stroke-linejoin="round"/>
<path d="M129.751 222.334L129.499 224.799" stroke="#878787" stroke-linecap="round" stroke-linejoin="round"/>
<path d="M95.266 215.152L93.8291 258.729" stroke="#878787" stroke-linecap="round" stroke-linejoin="round"/>
<path d="M144.121 297.074L158.49 296.55L159.782 301.723L135.976 303.246" stroke="#878787" stroke-linecap="round" stroke-linejoin="round"/>
<path d="M132.15 297.501L139.801 297.229" stroke="#878787" stroke-linecap="round" stroke-linejoin="round"/>
<path d="M106.285 184.514L132.645 199.984L141.616 199.615L138.247 203.72L155.616 217.55" stroke="#878787" stroke-linecap="round" stroke-linejoin="round"/>
<path d="M-6.37598 408.625H436.822" stroke="#393939" stroke-miterlimit="10"/>
<path d="M118.878 8.66504V74.2623" stroke="#393939" stroke-miterlimit="10"/>
<path d="M219.675 8.66504V74.2623" stroke="#393939" stroke-miterlimit="10"/>
<path d="M320.472 8.66504V74.2623" stroke="#393939" stroke-miterlimit="10"/>
</g>
<defs>
<clipPath id="clip0_25_593">
<rect width="437" height="409" fill="white"/>
</clipPath>
</defs>
</svg>
