<svg width="62" height="62" viewBox="0 0 62 62" fill="none" xmlns="http://www.w3.org/2000/svg">
<g clip-path="url(#clip0_25_5297)">
<path d="M4.375 20.8281C6.5151 20.8281 8.25 19.0932 8.25 16.9531C8.25 14.813 6.5151 13.0781 4.375 13.0781C2.2349 13.0781 0.5 14.813 0.5 16.9531C0.5 19.0932 2.2349 20.8281 4.375 20.8281Z" fill="#0085D0"/>
<path d="M28.5938 54.25C30.7339 54.25 32.4688 52.5151 32.4688 50.375C32.4688 48.2349 30.7339 46.5 28.5938 46.5C26.4536 46.5 24.7188 48.2349 24.7188 50.375C24.7188 52.5151 26.4536 54.25 28.5938 54.25Z" fill="#0085D0"/>
<path d="M25.6875 33.9062C27.8276 33.9062 29.5625 32.1714 29.5625 30.0312C29.5625 27.8911 27.8276 26.1562 25.6875 26.1562C23.5474 26.1562 21.8125 27.8911 21.8125 30.0312C21.8125 32.1714 23.5474 33.9062 25.6875 33.9062Z" fill="#0085D0"/>
<path d="M41.1875 43.5938C43.3276 43.5938 45.0625 41.8589 45.0625 39.7188C45.0625 37.5786 43.3276 35.8438 41.1875 35.8438C39.0474 35.8438 37.3125 37.5786 37.3125 39.7188C37.3125 41.8589 39.0474 43.5938 41.1875 43.5938Z" fill="#0085D0"/>
<path d="M54.2656 51.3438C56.4057 51.3438 58.1406 49.6089 58.1406 47.4688C58.1406 45.3286 56.4057 43.5938 54.2656 43.5938C52.1255 43.5938 50.3906 45.3286 50.3906 47.4688C50.3906 49.6089 52.1255 51.3438 54.2656 51.3438Z" fill="#0085D0"/>
<path d="M8.25 47.9531C10.3901 47.9531 12.125 46.2182 12.125 44.0781C12.125 41.938 10.3901 40.2031 8.25 40.2031C6.1099 40.2031 4.375 41.938 4.375 44.0781C4.375 46.2182 6.1099 47.9531 8.25 47.9531Z" fill="#0085D0"/>
<path d="M58.625 28.0938C60.7651 28.0938 62.5 26.3589 62.5 24.2188C62.5 22.0786 60.7651 20.3438 58.625 20.3438C56.4849 20.3438 54.75 22.0786 54.75 24.2188C54.75 26.3589 56.4849 28.0938 58.625 28.0938Z" fill="#0085D0"/>
<path d="M47 15.5C49.1401 15.5 50.875 13.7651 50.875 11.625C50.875 9.4849 49.1401 7.75 47 7.75C44.8599 7.75 43.125 9.4849 43.125 11.625C43.125 13.7651 44.8599 15.5 47 15.5Z" fill="#0085D0"/>
<path d="M45.6476 43.4398L48.8445 45.3884C49.0775 44.7811 49.4109 44.2172 49.8306 43.7202L46.6212 41.7643C46.3927 42.3734 46.0636 42.9397 45.6476 43.4398ZM53.6698 27.2408L51.4688 29.1536L49.0653 17.051C48.4578 17.2832 47.8153 17.4109 47.1651 17.4288L49.7841 30.6174L44.6614 35.0688C45.1838 35.4575 45.6378 35.9306 46.0046 36.4686L50.2186 32.8068L52.0631 42.0922C52.6654 41.8465 53.3049 41.7044 53.9546 41.6718L51.9033 31.3425L54.9364 28.707C54.4357 28.292 54.0076 27.7965 53.6698 27.2408ZM33.5246 47.3133L37.3028 44.0297C36.8182 43.5952 36.4095 43.0828 36.0938 42.5136L32.2449 45.8583C32.7494 46.2686 33.1819 46.7602 33.5246 47.3128V47.3133ZM42.0143 14.5977L29.2626 25.4573C29.775 25.8586 30.2168 26.3425 30.57 26.8892L43.2678 16.075C42.7708 15.6556 42.3471 15.1564 42.0143 14.5977ZM36.8814 35.8278L31.049 32.2725C30.7953 32.8715 30.443 33.4238 30.0066 33.9063L35.8327 37.4573C36.0888 36.8593 36.4432 36.3086 36.8814 35.8278ZM8.64327 20.8848L20.2605 27.9659C20.4915 27.358 20.8229 26.7931 21.2409 26.2948L9.70599 19.2632C9.44498 19.8591 9.08593 20.4071 8.64375 20.8844L8.64327 20.8848ZM16.8806 36.0027L12.2926 39.9106C12.76 40.3651 13.1481 40.8948 13.4405 41.4776L18.0237 37.5745L24.4053 46.3547C24.8556 45.8858 25.3812 45.4953 25.9602 45.1995L19.5034 36.3146L21.8115 34.3495C21.3264 33.9159 20.9171 33.4043 20.6006 32.8358L18.3613 34.7428L8.44371 21.0975C7.97853 21.5523 7.44055 21.926 6.85205 22.2033L16.8806 36.0027Z" fill="#0085D0"/>
</g>
<defs>
<clipPath id="clip0_25_5297">
<rect width="62" height="62" fill="white"/>
</clipPath>
</defs>
</svg>
