<svg width="25" height="24" viewBox="0 0 25 24" fill="none" xmlns="http://www.w3.org/2000/svg">
<path d="M12.4999 1.66133C6.80209 1.66133 2.16694 6.29932 2.16694 12.0003C2.16694 17.7015 6.80209 22.3393 12.4999 22.3393C18.1979 22.3393 22.8333 17.7015 22.8333 12.0003C22.8331 6.29931 18.1978 1.66133 12.4999 1.66133ZM12.4999 20.9393C7.57424 20.9393 3.56637 16.9293 3.56637 12.0003C3.56637 7.07151 7.57424 3.06133 12.4999 3.06133C17.4256 3.06133 21.4338 7.07151 21.4338 12.0003C21.4337 16.9293 17.4256 20.9393 12.4999 20.9393Z" fill="white" stroke="white" stroke-width="0.4"/>
<path d="M15.6233 6.05078H13.4252C13.4202 6.05075 13.4152 6.05097 13.4102 6.05145C11.191 6.05845 10.9012 7.60895 10.9 8.96412C10.8969 8.97695 10.8953 8.99009 10.8953 9.00328V9.95462H9.37653C9.33235 9.95462 9.28999 9.97218 9.25875 10.0034C9.22751 10.0347 9.20996 10.0771 9.20996 10.1213V12.4675C9.20996 12.5117 9.22751 12.554 9.25875 12.5853C9.28999 12.6166 9.33235 12.6341 9.37653 12.6341H10.8953V17.7826C10.8953 17.8268 10.9129 17.8692 10.9441 17.9005C10.9753 17.9317 11.0177 17.9493 11.0619 17.9493H13.2784C13.3226 17.9493 13.365 17.9317 13.3962 17.9005C13.4275 17.8692 13.445 17.8268 13.445 17.7826V12.6343H15.6231C15.6673 12.6343 15.7096 12.6167 15.7409 12.5855C15.7721 12.5542 15.7897 12.5118 15.7897 12.4676V10.1215C15.7897 10.0772 15.7721 10.0349 15.7409 10.0036C15.7096 9.97234 15.6673 9.95478 15.6231 9.95478H13.2784V8.69362H15.6231C15.6673 8.69362 15.7096 8.67606 15.7409 8.6448C15.7721 8.61355 15.7897 8.57115 15.7897 8.52695V6.21745C15.7897 6.19557 15.7854 6.1739 15.777 6.15368C15.7687 6.13346 15.7564 6.11509 15.741 6.09961C15.7255 6.08413 15.7072 6.07185 15.687 6.06347C15.6668 6.0551 15.6451 6.05078 15.6233 6.05078Z" fill="white"/>
</svg>
