<svg width="24" height="24" viewBox="0 0 24 24" fill="none" xmlns="http://www.w3.org/2000/svg">
<g clip-path="url(#clip0_25_817)">
<path d="M12 24C18.6274 24 24 18.6274 24 12C24 5.37258 18.6274 0 12 0C5.37258 0 0 5.37258 0 12C0 18.6274 5.37258 24 12 24Z" fill="url(#paint0_linear_25_817)"/>
<path d="M15.9024 3.68359H13.2441C11.6665 3.68359 9.91189 4.34708 9.91189 6.63376C9.91959 7.43053 9.91189 8.1936 9.91189 9.05238H8.08691V11.9565H9.96837V20.3168H13.4256V11.9013H15.7075L15.914 9.04423H13.3661C13.3661 9.04423 13.3718 7.77329 13.3661 7.4042C13.3661 6.50056 14.3063 6.55231 14.3629 6.55231C14.8103 6.55231 15.6803 6.55361 15.9037 6.55231V3.68359H15.9024Z" fill="white"/>
</g>
<defs>
<linearGradient id="paint0_linear_25_817" x1="12" y1="0" x2="12" y2="24" gradientUnits="userSpaceOnUse">
<stop stop-color="#2BA8EE"/>
<stop offset="1" stop-color="#0A73AE"/>
</linearGradient>
<clipPath id="clip0_25_817">
<rect width="24" height="24" fill="white"/>
</clipPath>
</defs>
</svg>
