<svg width="24" height="24" viewBox="0 0 24 24" fill="none" xmlns="http://www.w3.org/2000/svg">
<path d="M11.9996 7.50026C12.7446 7.49958 13.488 7.5699 14.2196 7.71026L11.9996 7.50026ZM11.9996 7.50026C5.98994 7.50026 2.79418 11.973 2.63086 12.2016C2.62746 12.2063 2.62537 12.2093 2.6246 12.2103M11.9996 7.50026L2.3171 12.3753M2.6246 12.2103L2.7435 12.3017C2.74429 12.3007 2.74643 12.2977 2.7499 12.2928C2.91408 12.0632 6.06952 7.65026 11.9996 7.65026L11.9997 7.65026C12.7352 7.64959 13.4691 7.71901 14.1913 7.85758L14.1916 7.85763C14.2602 7.87066 14.3307 7.87006 14.3991 7.85585C14.4674 7.84164 14.5323 7.8141 14.59 7.77481C14.6478 7.73552 14.6972 7.68525 14.7355 7.62686C14.7738 7.56847 14.8002 7.50311 14.8132 7.43452C14.8263 7.36591 14.8256 7.29542 14.8114 7.22706C14.7972 7.15869 14.7697 7.0938 14.7304 7.03608C14.6911 6.97835 14.6408 6.92894 14.5824 6.89064C14.5242 6.85243 14.459 6.82604 14.3905 6.81298C12.0568 6.36271 9.64321 6.58332 7.42978 7.44921C5.21634 8.31511 3.29376 9.7908 1.88504 11.7051L1.88487 11.705L1.88046 11.7117C1.80447 11.8274 1.77729 11.9685 1.80482 12.1042C1.83225 12.2394 1.91175 12.3583 2.02612 12.4353C2.11188 12.495 2.21411 12.5264 2.3186 12.5253M2.6246 12.2103L2.74888 12.2943C2.70122 12.3648 2.63713 12.4226 2.56214 12.4629C2.48721 12.5031 2.40363 12.5245 2.3186 12.5253M2.6246 12.2103C2.59056 12.2606 2.54478 12.302 2.49122 12.3307C2.43765 12.3595 2.37789 12.3747 2.3171 12.3753M2.3186 12.5253C2.31853 12.5253 2.31845 12.5253 2.31838 12.5253L2.3171 12.3753M2.3186 12.5253C2.31867 12.5253 2.31874 12.5253 2.31882 12.5253L2.3171 12.3753M21.682 12.5253C21.7866 12.5255 21.8889 12.4944 21.9758 12.436L21.9765 12.4355C22.0908 12.3577 22.1697 12.238 22.1963 12.1024C22.2228 11.9667 22.1948 11.8261 22.1183 11.711L22.1184 11.7109L22.1139 11.7048C20.6753 9.76094 18.7086 8.27115 16.4479 7.41254L16.448 7.41221L16.4382 7.40925C16.3115 7.37071 16.1748 7.38154 16.0557 7.43955C15.9366 7.49756 15.8438 7.59847 15.7959 7.72203C15.7481 7.8456 15.7488 7.98268 15.7978 8.10577C15.8468 8.22887 15.9406 8.32888 16.0602 8.38575L16.0601 8.38612L16.0705 8.39016C18.1266 9.18565 19.9199 10.5389 21.249 12.2978C21.2969 12.3674 21.3609 12.4245 21.4356 12.4641C21.5115 12.5043 21.5961 12.5253 21.682 12.5253ZM21.682 12.5253C21.6819 12.5253 21.6818 12.5253 21.6818 12.5253L21.6821 12.3753L21.6823 12.5253C21.6822 12.5253 21.6821 12.5253 21.682 12.5253Z" fill="#808285" stroke="#808285" stroke-width="0.3"/>
<path d="M10.4287 15.7466L10.4216 15.7466C10.3417 15.747 10.2626 15.729 10.1906 15.6941L10.1901 15.6939C9.20952 15.2139 8.45978 14.3641 8.1058 13.3313C7.75182 12.2986 7.82259 11.1675 8.30256 10.1869C8.78252 9.20638 9.63235 8.45664 10.6651 8.10266C11.6978 7.7487 12.8288 7.81945 13.8093 8.29933C13.8094 8.29936 13.8094 8.29939 13.8095 8.29942L13.7435 8.43414C13.7882 8.45591 13.8282 8.48634 13.861 8.52368C13.8938 8.56102 13.9189 8.60452 13.9348 8.65164L10.4287 15.7466ZM10.4287 15.7466L10.4358 15.7459C10.49 15.7406 10.5432 15.7275 10.5937 15.7072C10.6578 15.6849 10.717 15.6504 10.768 15.6055C10.8202 15.5596 10.8628 15.5038 10.8932 15.4414C10.8933 15.4413 10.8933 15.4412 10.8934 15.4411L14.0693 9.003L14.0698 9.00326L14.0746 8.99093C14.1233 8.8654 14.1238 8.72629 14.0758 8.60053L10.4287 15.7466ZM9.70853 17.1979H9.95125L9.93058 17.1566C9.98281 17.1363 10.032 17.1077 10.0759 17.0714C10.1836 16.9824 10.2515 16.8543 10.2647 16.7152C10.2779 16.5761 10.2354 16.4375 10.1464 16.3299C10.0592 16.2244 9.93456 16.1571 9.79883 16.142C6.98696 15.5677 4.48013 13.9897 2.74643 11.7026C2.66859 11.5902 2.54992 11.5125 2.41564 11.4862C2.28 11.4597 2.13937 11.4877 2.02426 11.5642L2.02426 11.5642L2.02285 11.5652C1.90862 11.643 1.82967 11.7627 1.80313 11.8983C1.77659 12.0339 1.80461 12.1746 1.8811 12.2897L1.88095 12.2898L1.88529 12.2956C3.75763 14.8357 6.5125 16.5834 9.60821 17.195L9.62261 17.1979H9.63728H9.70853ZM11.8168 17.4L11.8168 17.4004H11.8273H11.9997C11.9997 17.4004 11.9998 17.4004 11.9998 17.4004C13.9699 17.4013 15.9125 16.9382 17.6703 16.0487C19.4282 15.1592 20.952 13.8683 22.1182 12.2804L22.1226 12.2744L22.1264 12.268C22.1947 12.1525 22.2162 12.0152 22.1864 11.8843C22.1566 11.7535 22.0779 11.639 21.9663 11.5644C21.8547 11.4898 21.7189 11.4607 21.5865 11.4832C21.4542 11.5057 21.3356 11.578 21.2549 11.6852L21.2549 11.6852C21.2538 11.6868 21.2519 11.6895 21.2493 11.6931C21.0824 11.927 17.9272 16.3504 11.9998 16.3504H11.8846C11.8176 16.3464 11.7504 16.3553 11.6867 16.3766C11.6212 16.3986 11.5607 16.4331 11.5085 16.4785C11.4564 16.5238 11.4137 16.5789 11.3829 16.6407C11.3521 16.7025 11.3337 16.7698 11.3289 16.8387C11.3241 16.9076 11.3329 16.9767 11.3548 17.0422C11.3767 17.1077 11.4113 17.1683 11.4566 17.2204C11.5019 17.2725 11.557 17.3152 11.6188 17.346C11.6806 17.3769 11.7479 17.3952 11.8168 17.4ZM11.9996 8.94039L12.0002 8.94039C12.2904 8.93965 12.579 8.98015 12.8573 9.06045L10.2013 14.4789C9.71335 14.1256 9.33944 13.6352 9.12831 13.0684C8.89747 12.4485 8.87367 11.7706 9.06047 11.1362C9.24727 10.5017 9.63462 9.94481 10.1645 9.54896C10.6943 9.15311 11.3382 8.93959 11.9996 8.94039Z" fill="#808285" stroke="#808285" stroke-width="0.3"/>
<path d="M8.47814 19.7065C8.57654 19.7067 8.67301 19.6793 8.75655 19.6273C8.84008 19.5753 8.90733 19.5009 8.95062 19.4126C8.95063 19.4126 8.95064 19.4125 8.95064 19.4125L15.9931 5.05007L15.9932 5.04992C16.0544 4.92467 16.0634 4.78022 16.0181 4.64836C15.9729 4.51649 15.8771 4.40801 15.7518 4.34678C15.6266 4.28554 15.4821 4.27657 15.3503 4.32184C15.2184 4.36711 15.1099 4.4629 15.0487 4.58815L8.0063 18.9504C7.97584 19.0124 7.95792 19.0799 7.95358 19.1488C7.94923 19.2178 7.95855 19.2869 7.98098 19.3523C8.00342 19.4177 8.03854 19.478 8.08433 19.5297C8.13011 19.5815 8.18567 19.6237 8.2478 19.6539L8.24806 19.654C8.31977 19.6888 8.39846 19.7067 8.47814 19.7065ZM8.47814 19.7065L8.47844 19.5565M8.47814 19.7065C8.47845 19.7065 8.47875 19.7065 8.47906 19.7065L8.47844 19.5565M8.47844 19.5565C8.54872 19.5567 8.61763 19.5371 8.67731 19.4999C8.73698 19.4628 8.78502 19.4096 8.81594 19.3465L8.31344 19.519C8.36487 19.5439 8.4213 19.5568 8.47844 19.5565ZM12.5202 16.0724L12.5204 16.0724L12.5729 16.0687L12.5729 16.069L12.5832 16.0676C13.2473 15.9735 13.8783 15.7183 14.4211 15.3242C14.9639 14.9302 15.402 14.4093 15.6972 13.807C15.9924 13.2047 16.1357 12.5393 16.1146 11.8689C16.0935 11.1985 15.9087 10.5435 15.5762 9.96093L15.576 9.96054C15.5064 9.83952 15.3917 9.75109 15.2569 9.7147C15.1222 9.6783 14.9785 9.69693 14.8574 9.76648C14.7364 9.83603 14.648 9.95081 14.6116 10.0856C14.5752 10.2203 14.5938 10.364 14.6634 10.485L14.7934 10.4103L14.6629 10.4841C14.9081 10.9177 15.0439 11.4046 15.0585 11.9025C15.0731 12.4004 14.966 12.8944 14.7467 13.3416C14.5273 13.7888 14.2022 14.1758 13.7995 14.469C13.3981 14.7613 12.9318 14.9516 12.4406 15.0236C12.3038 15.0348 12.1767 15.099 12.0865 15.2028C11.995 15.3081 11.9491 15.4454 11.9588 15.5845C11.9685 15.7236 12.0332 15.8532 12.1384 15.9447C12.1906 15.99 12.2511 16.0246 12.3166 16.0465C12.3821 16.0684 12.4513 16.0772 12.5202 16.0724Z" fill="#808285" stroke="#808285" stroke-width="0.3"/>
</svg>
