<svg width="24" height="24" viewBox="0 0 24 24" fill="none" xmlns="http://www.w3.org/2000/svg">
<g clip-path="url(#clip0_25_813)">
<path d="M6.08588 23.9151C5.15758 23.9047 4.23801 23.7344 3.36753 23.4118C2.73187 23.1768 2.15676 22.8027 1.68424 22.3169C1.19712 21.8454 0.822514 21.2701 0.588235 20.6339C0.265824 19.7634 0.0958076 18.8439 0.0856471 17.9158C0.0143529 16.3727 0 15.9099 0 12C0 8.09012 0.0157647 7.62894 0.0849412 6.08471C0.0963347 5.15689 0.26656 4.23788 0.588235 3.36753C0.823654 2.73176 1.19773 2.15642 1.68329 1.68329C2.15523 1.19662 2.73061 0.822358 3.36682 0.588235C4.2373 0.265557 5.15687 0.0953008 6.08518 0.0849412C7.62871 0.0143529 8.09224 0 12 0C15.9078 0 16.3711 0.0157647 17.9153 0.0849412C18.8433 0.0962542 19.7626 0.266481 20.6332 0.588235C21.2691 0.822667 21.8443 1.1968 22.3165 1.68306C22.8029 2.15535 23.1772 2.73073 23.4118 3.36682C23.7345 4.23729 23.9049 5.15686 23.9153 6.08518C23.9859 7.62941 24.0002 8.09176 24.0002 12.0005C24.0002 15.9092 23.9859 16.3715 23.9153 17.9158C23.9041 18.8439 23.7338 19.7633 23.4118 20.6339C23.1682 21.2652 22.7951 21.8386 22.3166 22.317C21.838 22.7954 21.2646 23.1683 20.6332 23.4118C19.7627 23.7345 18.8431 23.9049 17.9148 23.9153C16.372 23.9859 15.9082 24.0002 11.9995 24.0002C8.09082 24.0002 7.62847 23.9866 6.08565 23.9153" fill="url(#paint0_radial_25_813)"/>
<path d="M6.08588 23.9151C5.15758 23.9047 4.23801 23.7344 3.36753 23.4118C2.73187 23.1768 2.15676 22.8027 1.68424 22.3169C1.19712 21.8454 0.822514 21.2701 0.588235 20.6339C0.265824 19.7634 0.0958076 18.8439 0.0856471 17.9158C0.0143529 16.3727 0 15.9099 0 12C0 8.09012 0.0157647 7.62894 0.0849412 6.08471C0.0963347 5.15689 0.26656 4.23788 0.588235 3.36753C0.823654 2.73176 1.19773 2.15642 1.68329 1.68329C2.15523 1.19662 2.73061 0.822358 3.36682 0.588235C4.2373 0.265557 5.15687 0.0953008 6.08518 0.0849412C7.62871 0.0143529 8.09224 0 12 0C15.9078 0 16.3711 0.0157647 17.9153 0.0849412C18.8433 0.0962542 19.7626 0.266481 20.6332 0.588235C21.2691 0.822667 21.8443 1.1968 22.3165 1.68306C22.8029 2.15535 23.1772 2.73073 23.4118 3.36682C23.7345 4.23729 23.9049 5.15686 23.9153 6.08518C23.9859 7.62941 24.0002 8.09176 24.0002 12.0005C24.0002 15.9092 23.9859 16.3715 23.9153 17.9158C23.9041 18.8439 23.7338 19.7633 23.4118 20.6339C23.1682 21.2652 22.7951 21.8386 22.3166 22.317C21.838 22.7954 21.2646 23.1683 20.6332 23.4118C19.7627 23.7345 18.8431 23.9049 17.9148 23.9153C16.372 23.9859 15.9082 24.0002 11.9995 24.0002C8.09082 24.0002 7.62847 23.9866 6.08565 23.9153" fill="url(#paint1_radial_25_813)"/>
<path d="M9.05385 12.0503C9.05389 11.4625 9.22825 10.8879 9.55486 10.3992C9.88148 9.91043 10.3457 9.52954 10.8888 9.30465C11.4319 9.07975 12.0295 9.02096 12.606 9.1357C13.1825 9.25044 13.712 9.53356 14.1276 9.94926C14.5432 10.365 14.8262 10.8946 14.9408 11.4711C15.0554 12.0476 14.9965 12.6452 14.7715 13.1882C14.5464 13.7313 14.1654 14.1954 13.6766 14.5219C13.1878 14.8484 12.6132 15.0226 12.0254 15.0225C11.2372 15.0224 10.4813 14.7092 9.92407 14.1518C9.36681 13.5944 9.05378 12.8385 9.05385 12.0503ZM7.44702 12.0503C7.44702 12.9558 7.71554 13.841 8.21861 14.5939C8.72169 15.3468 9.43673 15.9336 10.2733 16.2801C11.1099 16.6267 12.0305 16.7173 12.9186 16.5407C13.8067 16.364 14.6225 15.928 15.2628 15.2877C15.9031 14.6474 16.3391 13.8316 16.5158 12.9435C16.6924 12.0554 16.6017 11.1348 16.2552 10.2982C15.9087 9.46165 15.3219 8.74661 14.569 8.24353C13.8161 7.74046 12.9309 7.47194 12.0254 7.47194C11.4241 7.47191 10.8288 7.59031 10.2733 7.82039C9.71779 8.05046 9.21307 8.3877 8.78792 8.81284C8.36278 9.23799 8.02554 9.74271 7.79546 10.2982C7.56539 10.8537 7.44699 11.449 7.44702 12.0503ZM15.715 7.29053C15.7149 7.50213 15.7776 7.70901 15.8951 7.885C16.0126 8.061 16.1796 8.1982 16.375 8.27926C16.5705 8.36033 16.7856 8.38161 16.9932 8.34042C17.2007 8.29923 17.3914 8.19741 17.5411 8.04785C17.6908 7.89829 17.7928 7.7077 17.8341 7.50019C17.8755 7.29267 17.8544 7.07754 17.7735 6.88201C17.6926 6.68648 17.5556 6.51933 17.3797 6.40169C17.2038 6.28405 16.997 6.22121 16.7854 6.22112C16.5017 6.22124 16.2298 6.33394 16.0292 6.53445C15.8286 6.73496 15.7157 7.0069 15.7155 7.29053M8.42373 19.3079C7.85834 19.3017 7.29825 19.1983 6.76796 19.0021C6.38339 18.8538 6.03412 18.6267 5.74263 18.3353C5.45114 18.044 5.22388 17.6948 5.07549 17.3103C4.8792 16.78 4.77573 16.2199 4.76961 15.6545C4.72632 14.7148 4.71785 14.4324 4.71785 12.0515C4.71785 9.67053 4.72726 9.38888 4.76961 8.44818C4.77647 7.88286 4.87992 7.32287 5.07549 6.79241C5.22371 6.40772 5.4509 6.05836 5.74241 5.76685C6.03391 5.47535 6.38327 5.24816 6.76796 5.09994C7.29822 4.90366 7.85834 4.80018 8.42373 4.79406C9.36349 4.75077 9.64585 4.7423 12.0258 4.7423C14.4058 4.7423 14.6884 4.75147 15.6291 4.79429C16.1945 4.80115 16.7544 4.90461 17.2849 5.10018C17.6696 5.24841 18.0189 5.4756 18.3104 5.76711C18.602 6.05861 18.8291 6.40797 18.9774 6.79265C19.1736 7.32291 19.2771 7.88302 19.2833 8.44841C19.3266 9.38959 19.335 9.67053 19.335 12.0517C19.335 14.4329 19.3263 14.7143 19.2833 15.655C19.2767 16.2203 19.1732 16.7804 18.9774 17.3108C18.829 17.6953 18.6017 18.0444 18.3102 18.3358C18.0187 18.6272 17.6695 18.8543 17.2849 19.0025C16.7546 19.1988 16.1945 19.3023 15.6291 19.3084C14.6894 19.3517 14.407 19.3602 12.0258 19.3602C9.64467 19.3602 9.36326 19.3515 8.42373 19.3084M8.34984 3.18865C7.61004 3.20319 6.87807 3.34322 6.18514 3.60277C5.59279 3.83179 5.05483 4.18207 4.60576 4.63115C4.15668 5.08022 3.8064 5.61818 3.57737 6.21053C3.31787 6.90348 3.17784 7.63544 3.16326 8.37524C3.11926 9.32582 3.10938 9.62982 3.10938 12.0512C3.10938 14.4726 3.11949 14.7764 3.16326 15.7272C3.17783 16.467 3.31786 17.199 3.57737 17.8919C3.80642 18.4843 4.1567 19.0222 4.60577 19.4713C5.05484 19.9204 5.5928 20.2707 6.18514 20.4997C6.87811 20.7591 7.61005 20.8992 8.34984 20.9138C9.3009 20.9571 9.60443 20.9677 12.0258 20.9677C14.4473 20.9677 14.751 20.9576 15.7018 20.9138C16.4416 20.8992 17.1736 20.7592 17.8666 20.4997C18.4589 20.2707 18.9968 19.9204 19.4459 19.4713C19.895 19.0222 20.2453 18.4843 20.4743 17.8919C20.7342 17.1991 20.8742 16.4671 20.8884 15.7272C20.9317 14.7759 20.9416 14.4726 20.9416 12.0512C20.9416 9.62982 20.9315 9.32606 20.8884 8.37524C20.8739 7.63543 20.7339 6.90347 20.4743 6.21053C20.2453 5.61829 19.8951 5.08042 19.4462 4.63136C18.9972 4.1823 18.4594 3.83195 17.8673 3.60277C17.1744 3.34305 16.4424 3.20302 15.7026 3.18865C14.7517 3.14512 14.448 3.13477 12.027 3.13477C9.60608 3.13477 9.30161 3.14488 8.35032 3.18865" fill="white"/>
</g>
<defs>
<radialGradient id="paint0_radial_25_813" cx="0" cy="0" r="1" gradientUnits="userSpaceOnUse" gradientTransform="translate(1.55318 23.4744) scale(30.4711)">
<stop offset="0.09" stop-color="#FA8F21"/>
<stop offset="0.78" stop-color="#D82D7E"/>
</radialGradient>
<radialGradient id="paint1_radial_25_813" cx="0" cy="0" r="1" gradientUnits="userSpaceOnUse" gradientTransform="translate(16.624 22.7035) scale(26.8148)">
<stop offset="0.64" stop-color="#8C3AAA" stop-opacity="0"/>
<stop offset="1" stop-color="#8C3AAA"/>
</radialGradient>
<clipPath id="clip0_25_813">
<rect width="24" height="24" fill="white"/>
</clipPath>
</defs>
</svg>
