<svg width="62" height="62" viewBox="0 0 62 62" fill="none" xmlns="http://www.w3.org/2000/svg">
<path d="M52.8123 30.9995C52.8123 21.9892 47.2419 14.0714 38.8473 10.9925C38.3323 10.8036 37.7581 11.1022 37.5932 11.6251L37.0096 13.4754C36.8533 13.9714 37.1251 14.4851 37.6122 14.6672C44.4237 17.2138 48.9373 23.664 48.9373 30.9995C48.9373 38.6447 43.9854 45.1406 37.1257 47.4883L37.997 46.617C38.3754 46.2386 38.3754 45.6253 37.997 45.247L36.6274 43.8771C36.249 43.4987 35.6357 43.4987 35.2572 43.8771L30.1299 49.0047C29.3734 49.7611 29.3734 50.988 30.1299 51.7446L35.2573 56.872C35.6357 57.2503 36.249 57.2503 36.6275 56.872L37.9972 55.5021C38.3756 55.1237 38.3756 54.5105 37.9972 54.1321L35.7495 51.8844C45.4718 49.909 52.8123 41.2964 52.8123 30.9995Z" fill="#6AC4F8"/>
<path d="M32.8698 10.2551L27.7424 5.12755C27.364 4.74915 26.7508 4.74915 26.3722 5.12755L25.0026 6.49736C24.6242 6.87575 24.6242 7.48897 25.0026 7.86736L27.2503 10.1153C17.5279 12.0905 10.1875 20.7031 10.1875 31C10.1875 40.0103 15.7576 47.9269 24.1522 51.0075C24.6672 51.1965 25.2417 50.8981 25.4068 50.375L25.9905 48.5229C26.1469 48.0271 25.875 47.5135 25.388 47.3315C18.5763 44.7849 14.0625 38.3355 14.0625 31C14.0625 23.3555 19.0142 16.8595 25.8737 14.5116L25.0028 15.3825C24.6244 15.7609 24.6244 16.3742 25.0028 16.7525L26.3724 18.1224C26.7508 18.5008 27.364 18.5008 27.7426 18.1224L32.8698 12.9948C33.6264 12.2382 33.6264 11.0115 32.8698 10.2551Z" fill="#0085D0"/>
</svg>
