<svg width="15" height="15" viewBox="0 0 15 15" fill="none" xmlns="http://www.w3.org/2000/svg">
<path d="M14.8786 13.6956L12.0462 10.8715C12.96 9.70729 13.4559 8.26959 13.454 6.78952C13.454 5.4714 13.0632 4.18289 12.3309 3.08691C11.5986 1.99094 10.5577 1.13673 9.33992 0.632309C8.12214 0.127888 6.78213 -0.00409207 5.48934 0.25306C4.19655 0.510212 3.00904 1.14495 2.077 2.077C1.14495 3.00904 0.510212 4.19655 0.25306 5.48934C-0.00409207 6.78213 0.127888 8.12214 0.632309 9.33992C1.13673 10.5577 1.99094 11.5986 3.08691 12.3309C4.18289 13.0632 5.4714 13.454 6.78952 13.454C8.26959 13.4559 9.70729 12.96 10.8715 12.0462L13.6956 14.8786C13.7731 14.9567 13.8652 15.0186 13.9667 15.0609C14.0682 15.1032 14.1771 15.125 14.2871 15.125C14.3971 15.125 14.506 15.1032 14.6075 15.0609C14.709 15.0186 14.8011 14.9567 14.8786 14.8786C14.9567 14.8011 15.0186 14.709 15.0609 14.6075C15.1032 14.506 15.125 14.3971 15.125 14.2871C15.125 14.1771 15.1032 14.0682 15.0609 13.9667C15.0186 13.8652 14.9567 13.7731 14.8786 13.6956ZM1.79113 6.78952C1.79113 5.80093 2.08428 4.83455 2.63351 4.01257C3.18274 3.19058 3.96338 2.54993 4.87672 2.17161C5.79006 1.7933 6.79507 1.69431 7.76466 1.88718C8.73425 2.08004 9.62488 2.55609 10.3239 3.25513C11.023 3.95416 11.499 4.84479 11.6919 5.81438C11.8847 6.78398 11.7857 7.78899 11.4074 8.70232C11.0291 9.61566 10.3885 10.3963 9.56648 10.9455C8.7445 11.4948 7.77811 11.7879 6.78952 11.7879C5.46387 11.7879 4.19251 11.2613 3.25513 10.3239C2.31775 9.38654 1.79113 8.11518 1.79113 6.78952Z" fill="#808285"/>
</svg>
