<svg width="21" height="10" viewBox="0 0 21 10" fill="none" xmlns="http://www.w3.org/2000/svg">
<path d="M10 1C9.40666 1 8.82664 1.20527 8.33329 1.58986C7.83994 1.97444 7.45543 2.52107 7.22836 3.16061C7.0013 3.80015 6.94189 4.50388 7.05765 5.18282C7.1734 5.86175 7.45912 6.48539 7.87868 6.97487C8.29824 7.46436 8.83279 7.7977 9.41473 7.93275C9.99667 8.0678 10.5999 7.99848 11.1481 7.73358C11.6962 7.46867 12.1648 7.02007 12.4944 6.44449C12.8241 5.86892 13 5.19223 13 4.5C13 3.57174 12.6839 2.6815 12.1213 2.02513C11.5587 1.36875 10.7957 1 10 1ZM10 5.66667C9.80222 5.66667 9.60888 5.59824 9.44443 5.47005C9.27998 5.34185 9.15181 5.15964 9.07612 4.94646C9.00043 4.73328 8.98063 4.4987 9.01922 4.27239C9.0578 4.04608 9.15304 3.8382 9.29289 3.67504C9.43275 3.51188 9.61093 3.40077 9.80491 3.35575C9.99889 3.31073 10.2 3.33384 10.3827 3.42214C10.5654 3.51044 10.7216 3.65998 10.8315 3.85183C10.9414 4.04369 11 4.26925 11 4.5C11 4.80942 10.8946 5.10616 10.7071 5.32496C10.5196 5.54375 10.2652 5.66667 10 5.66667Z" fill="#808285"/>
<path d="M19.7458 4.22474C17.1753 1.50154 13.7351 0 10.055 0C6.37488 0 2.93467 1.50154 0.364156 4.22474L0 4.61L0.364156 4.99526C2.93467 7.71846 6.36203 9.22 10.055 9.22C13.748 9.22 17.1753 7.71846 19.7458 4.99526L20.11 4.61L19.7458 4.22474ZM10.055 7.90286C7.11176 7.90286 4.31847 6.73719 2.1421 4.61C4.31847 2.48281 7.11176 1.31714 10.055 1.31714C12.9982 1.31714 15.7915 2.48281 17.9936 4.61C15.7915 6.73719 12.9982 7.90286 10.055 7.90286Z" fill="#808285"/>
</svg>
